<svg width="18" height="25" viewBox="0 0 18 25" fill="none" xmlns="http://www.w3.org/2000/svg">
<path fill-rule="evenodd" clip-rule="evenodd" d="M16.5579 9.58773H11.2491L17.241 2.39742C17.6247 1.969 17.7162 1.3532 17.4737 0.831716C17.2312 0.310236 16.7014 -0.0166275 16.1265 0.000653182H8.87629C8.38049 0.00991061 7.92576 0.278198 7.67791 0.7077L0.199984 13.4106C-0.0590911 13.849 -0.0669459 14.3918 0.179333 14.8376C0.425612 15.2833 0.889289 15.5656 1.39837 15.5797H4.51417L1.0029 22.77C0.68641 23.3872 0.855583 24.1423 1.40514 24.5655C1.9547 24.9887 2.72803 24.9593 3.24388 24.4956L17.4927 12.1043C17.953 11.7165 18.1203 11.0814 17.9107 10.5172C17.7011 9.95293 17.1598 9.58102 16.5579 9.58773ZM4.57413 20.3732L7.03082 15.328C7.49819 14.3693 5.74855 13.1469 5.74855 13.1469H3.10012L9.42759 2.36148H14.0773L8.0854 9.55179C7.7034 9.97861 7.61113 10.5914 7.85051 11.1118C8.08988 11.6322 8.61525 11.9609 9.18792 11.9486H14.5567L4.57413 20.3732Z" fill="white"/>
</svg>
