<svg width="22" height="19" viewBox="0 0 22 19" fill="none" xmlns="http://www.w3.org/2000/svg">
<path fill-rule="evenodd" clip-rule="evenodd" d="M5.93489 11.0101L11.0099 16.0851L16.0848 11.0101L18.9674 8.12752C20.3688 6.72611 20.3688 4.45397 18.9674 3.05255C17.566 1.65114 15.2939 1.65114 13.8924 3.05255L11.0099 5.95543L8.12727 3.07285C6.72586 1.67144 4.45372 1.67144 3.0523 3.07285C1.65089 4.47427 1.65089 6.74641 3.0523 8.14782L5.93489 11.0101ZM12.4311 1.64176C14.6201 -0.547252 18.1692 -0.547252 20.3582 1.64176C22.5473 3.83077 22.5473 7.37985 20.3582 9.56886L18.917 11.0101L11.0101 18.9373L3.08305 11.0101L1.64176 9.56886C-0.547252 7.37985 -0.547252 3.83077 1.64176 1.64176C3.83077 -0.547252 7.37985 -0.547252 9.56886 1.64176L11.0101 3.08305L12.4311 1.64176Z" fill="white"/>
</svg>
