<svg width="22" height="22" viewBox="0 0 22 22" fill="none" xmlns="http://www.w3.org/2000/svg">
<path fill-rule="evenodd" clip-rule="evenodd" d="M3 22H19C20.6569 22 22 20.6569 22 19V9C22 7.34315 20.6569 6 19 6H17V3C17 1.34315 15.6569 0 14 0H8C6.34315 0 5 1.34315 5 3V6H3C1.34315 6 0 7.34315 0 9V19C0 20.6569 1.34315 22 3 22ZM7.00017 3C7.00017 2.44771 7.44789 2 8.00017 2H14.0002C14.5525 2 15.0002 2.44771 15.0002 3V6H7.00017V3ZM1.99992 9C1.99992 8.44771 2.44763 8 2.99992 8H18.9999C19.5522 8 19.9999 8.44771 19.9999 9V19C19.9999 19.5523 19.5522 20 18.9999 20H2.99992C2.44763 20 1.99992 19.5523 1.99992 19V9Z" fill="white"/>
<path fill-rule="evenodd" clip-rule="evenodd" d="M10.0496 15.22C10.0224 15.3077 10.0056 15.3984 9.99961 15.49V18.49C9.99961 19.0423 10.4473 19.49 10.9996 19.49C11.5519 19.49 11.9996 19.0423 11.9996 18.49V15.49C11.9996 15.49 11.9996 15.43 11.9996 15.4C13.4262 15.057 14.3954 13.7324 14.2906 12.2689C14.1858 10.8054 13.0378 9.63237 11.5768 9.49612C10.1159 9.35987 8.77078 10.3003 8.39715 11.7192C8.02352 13.1381 8.73103 14.6191 10.0696 15.22H10.0496ZM11.2901 11.49C11.8424 11.49 12.2901 11.9377 12.2901 12.49C12.2901 13.0423 11.8424 13.49 11.2901 13.49C10.7378 13.49 10.2901 13.0423 10.2901 12.49C10.2901 11.9377 10.7378 11.49 11.2901 11.49Z" fill="white"/>
</svg>
