<svg width="22" height="22" viewBox="0 0 22 22" fill="none" xmlns="http://www.w3.org/2000/svg">
<path fill-rule="evenodd" clip-rule="evenodd" d="M19 3.79003H18V3.21003C17.9982 2.27043 17.5563 1.38595 16.806 0.820308C16.0558 0.254664 15.0838 0.073203 14.18 0.330028L2.73 3.60003C2.56115 3.6528 2.40932 3.74942 2.29 3.88003C0.947662 4.207 0.0021984 5.40844 0 6.79003V18.79C0 20.4469 1.34315 21.79 3 21.79H19C20.6569 21.79 22 20.4469 22 18.79V6.79003C22 5.13317 20.6569 3.79003 19 3.79003ZM14.73 2.25003C15.0377 2.16351 15.3682 2.22928 15.6193 2.42702C15.8705 2.62475 16.0119 2.93062 16 3.25003V3.83003H9.36L14.73 2.25003ZM20 13.79H17C16.4477 13.79 16 13.3423 16 12.79C16 12.2377 16.4477 11.79 17 11.79H20V13.79ZM20 9.79003H17.15C15.6644 9.75207 14.3621 10.7771 14.05 12.23C13.8831 13.1085 14.1167 14.0157 14.6873 14.7042C15.2578 15.3927 16.1058 15.7908 17 15.79H20V18.79C20 19.3423 19.5523 19.79 19 19.79H3C2.44772 19.79 2 19.3423 2 18.79V6.79003C2 6.23774 2.44772 5.79003 3 5.79003H19C19.5523 5.79003 20 6.23774 20 6.79003V9.79003Z" fill="white"/>
</svg>
