<svg width="157" height="85" viewBox="0 0 157 85" fill="none" xmlns="http://www.w3.org/2000/svg">
<g opacity="0.35">
<circle cx="2.5" cy="2.5" r="2.5" fill="#C5CFE4"/>
<circle cx="21.5" cy="2.5" r="2.5" fill="#C5CFE4"/>
<circle cx="40.5" cy="2.5" r="2.5" fill="#C5CFE4"/>
<circle cx="59.5" cy="2.5" r="2.5" fill="#C5CFE4"/>
<circle cx="78.5" cy="2.5" r="2.5" fill="#C5CFE4"/>
<circle cx="97.5" cy="2.5" r="2.5" fill="#C5CFE4"/>
<circle cx="2.5" cy="22.5" r="2.5" fill="#C5CFE4"/>
<circle cx="21.5" cy="22.5" r="2.5" fill="#C5CFE4"/>
<circle cx="40.5" cy="22.5" r="2.5" fill="#C5CFE4"/>
<circle cx="59.5" cy="22.5" r="2.5" fill="#C5CFE4"/>
<circle cx="78.5" cy="22.5" r="2.5" fill="#C5CFE4"/>
<circle cx="97.5" cy="22.5" r="2.5" fill="#C5CFE4"/>
<circle cx="2.5" cy="42.5" r="2.5" fill="#C5CFE4"/>
<circle cx="21.5" cy="42.5" r="2.5" fill="#C5CFE4"/>
<circle cx="40.5" cy="42.5" r="2.5" fill="#C5CFE4"/>
<circle cx="59.5" cy="42.5" r="2.5" fill="#C5CFE4"/>
<circle cx="78.5" cy="42.5" r="2.5" fill="#C5CFE4"/>
<circle cx="97.5" cy="42.5" r="2.5" fill="#C5CFE4"/>
<circle cx="2.5" cy="62.5" r="2.5" fill="#C5CFE4"/>
<circle cx="21.5" cy="62.5" r="2.5" fill="#C5CFE4"/>
<circle cx="40.5" cy="62.5" r="2.5" fill="#C5CFE4"/>
<circle cx="59.5" cy="62.5" r="2.5" fill="#C5CFE4"/>
<circle cx="78.5" cy="62.5" r="2.5" fill="#C5CFE4"/>
<circle cx="97.5" cy="62.5" r="2.5" fill="#C5CFE4"/>
</g>
<g opacity="0.35">
<circle cx="154.5" cy="82.5" r="2.5" transform="rotate(-180 154.5 82.5)" fill="#C5CFE4"/>
<circle cx="135.5" cy="82.5" r="2.5" transform="rotate(-180 135.5 82.5)" fill="#C5CFE4"/>
<circle cx="116.5" cy="82.5" r="2.5" transform="rotate(-180 116.5 82.5)" fill="#C5CFE4"/>
<circle cx="97.5" cy="82.5" r="2.5" transform="rotate(-180 97.5 82.5)" fill="#C5CFE4"/>
<circle cx="78.5" cy="82.5" r="2.5" transform="rotate(-180 78.5 82.5)" fill="#C5CFE4"/>
<circle cx="59.5" cy="82.5" r="2.5" transform="rotate(-180 59.5 82.5)" fill="#C5CFE4"/>
<circle cx="154.5" cy="62.5" r="2.5" transform="rotate(-180 154.5 62.5)" fill="#C5CFE4"/>
<circle cx="135.5" cy="62.5" r="2.5" transform="rotate(-180 135.5 62.5)" fill="#C5CFE4"/>
<circle cx="116.5" cy="62.5" r="2.5" transform="rotate(-180 116.5 62.5)" fill="#C5CFE4"/>
<circle cx="97.5" cy="62.5" r="2.5" transform="rotate(-180 97.5 62.5)" fill="#C5CFE4"/>
<circle cx="78.5" cy="62.5" r="2.5" transform="rotate(-180 78.5 62.5)" fill="#C5CFE4"/>
<circle cx="59.5" cy="62.5" r="2.5" transform="rotate(-180 59.5 62.5)" fill="#C5CFE4"/>
<circle cx="154.5" cy="42.5" r="2.5" transform="rotate(-180 154.5 42.5)" fill="#C5CFE4"/>
<circle cx="135.5" cy="42.5" r="2.5" transform="rotate(-180 135.5 42.5)" fill="#C5CFE4"/>
<circle cx="116.5" cy="42.5" r="2.5" transform="rotate(-180 116.5 42.5)" fill="#C5CFE4"/>
<circle cx="97.5" cy="42.5" r="2.5" transform="rotate(-180 97.5 42.5)" fill="#C5CFE4"/>
<circle cx="78.5" cy="42.5" r="2.5" transform="rotate(-180 78.5 42.5)" fill="#C5CFE4"/>
<circle cx="59.5" cy="42.5" r="2.5" transform="rotate(-180 59.5 42.5)" fill="#C5CFE4"/>
<circle cx="154.5" cy="22.5" r="2.5" transform="rotate(-180 154.5 22.5)" fill="#C5CFE4"/>
<circle cx="135.5" cy="22.5" r="2.5" transform="rotate(-180 135.5 22.5)" fill="#C5CFE4"/>
<circle cx="116.5" cy="22.5" r="2.5" transform="rotate(-180 116.5 22.5)" fill="#C5CFE4"/>
<circle cx="97.5" cy="22.5" r="2.5" transform="rotate(-180 97.5 22.5)" fill="#C5CFE4"/>
<circle cx="78.5" cy="22.5" r="2.5" transform="rotate(-180 78.5 22.5)" fill="#C5CFE4"/>
<circle cx="59.5" cy="22.5" r="2.5" transform="rotate(-180 59.5 22.5)" fill="#C5CFE4"/>
</g>
</svg>
