<svg width="20" height="18" viewBox="0 0 20 18" fill="none" xmlns="http://www.w3.org/2000/svg">
<path fill-rule="evenodd" clip-rule="evenodd" d="M17.2727 4.54545H14.5455V2.72727C14.5455 1.22104 13.3244 0 11.8182 0H2.72727C1.22104 0 0 1.22104 0 2.72727V8.18182C0 9.68805 1.22104 10.9091 2.72727 10.9091H4.13636L5.45455 12.3727V12.7C5.45455 14.2062 6.67559 15.4273 8.18182 15.4273H11.4091L12.7818 16.9818C13.0407 17.2753 13.4132 17.4435 13.8045 17.4435C14.1959 17.4435 14.5684 17.2753 14.8273 16.9818L16.2 15.4273H17.2727C18.779 15.4273 20 14.2062 20 12.7V7.24545C19.985 5.74989 18.7684 4.54538 17.2727 4.54545ZM2.72727 9.09091C2.2252 9.09091 1.81818 8.6839 1.81818 8.18182V2.72727C1.81818 2.2252 2.2252 1.81818 2.72727 1.81818H11.8182C12.3203 1.81818 12.7273 2.2252 12.7273 2.72727V8.18182C12.7273 8.6839 12.3203 9.09091 11.8182 9.09091H8.11818L6.53636 10.9091L4.95455 9.09091H2.72727ZM17.2727 13.6364C17.7748 13.6364 18.1818 13.2293 18.1818 12.7273V7.2909C18.1818 6.78882 17.7748 6.38181 17.2727 6.38181H14.5455V8.19999C14.5455 9.70622 13.3244 10.9273 11.8182 10.9273H8.92727L7.55455 12.4818C7.4717 12.5756 7.37696 12.6581 7.27273 12.7273C7.27273 13.2293 7.67974 13.6364 8.18182 13.6364H12.2273L13.8091 15.5273L15.3909 13.6364H17.2727Z" fill="#A1AEC8"/>
</svg>
