<svg width="20" height="13" viewBox="0 0 20 13" fill="none" xmlns="http://www.w3.org/2000/svg">
<path fill-rule="evenodd" clip-rule="evenodd" d="M17.2727 3.64172H16.3636C16.1681 3.64392 15.9732 3.66523 15.7818 3.70536C14.7435 1.44709 12.4855 0 10 0C7.51449 0 5.25645 1.44709 4.21818 3.70536C4.02678 3.66523 3.83191 3.64392 3.63636 3.64172H2.72727C1.22104 3.64172 0 4.86276 0 6.36899V10.0054C0 11.5116 1.22104 12.7326 2.72727 12.7326H3.63636C5.14259 12.7326 6.36364 11.5116 6.36364 10.0054V6.36899C6.35858 5.76115 6.15061 5.17241 5.77273 4.69627C6.45841 2.96136 8.13451 1.82154 10 1.82154C11.8655 1.82154 13.5416 2.96136 14.2273 4.69627C13.8494 5.17241 13.6414 5.76115 13.6364 6.36899V10.0054C13.6364 11.5116 14.8574 12.7326 16.3636 12.7326H17.2727C18.779 12.7326 20 11.5116 20 10.0054V6.36899C20 4.86276 18.779 3.64172 17.2727 3.64172ZM4.54545 10.0054C4.54545 10.5075 4.13844 10.9145 3.63636 10.9145H2.72727C2.2252 10.9145 1.81818 10.5075 1.81818 10.0054V6.36902C1.81818 5.86694 2.2252 5.45993 2.72727 5.45993H3.63636C4.13844 5.45993 4.54545 5.86694 4.54545 6.36902V10.0054ZM17.2727 10.9145C17.7748 10.9145 18.1818 10.5075 18.1818 10.0054V6.36902C18.1818 5.86694 17.7748 5.45993 17.2727 5.45993H16.3636C15.8616 5.45993 15.4545 5.86694 15.4545 6.36902V10.0054C15.4545 10.5075 15.8616 10.9145 16.3636 10.9145H17.2727Z" fill="#A1AEC8"/>
</svg>
