<svg width="24" height="24" viewBox="0 0 24 24" fill="none" xmlns="http://www.w3.org/2000/svg">
<path fill-rule="evenodd" clip-rule="evenodd" d="M12.0005 4.15657L10.4032 9.08973C10.2262 9.62475 9.72796 9.98751 9.16444 9.9916H3.98137L8.16477 13.0341C8.61977 13.3668 8.81209 13.9525 8.64287 14.4901L7.04557 19.4233L11.229 16.3699C11.6914 16.0431 12.3096 16.0431 12.7719 16.3699L16.9554 19.4233L15.3581 14.4901C15.1888 13.9525 15.3812 13.3668 15.8362 13.0341L20.0196 9.9916H14.8365C14.273 9.98751 13.7747 9.62475 13.5978 9.08973L12.0005 4.15657ZM10.7613 0.89677C10.9372 0.361675 11.4367 0 12 0C12.5633 0 13.0628 0.361675 13.2387 0.89677L15.4771 7.81841H22.703C23.2663 7.82143 23.764 8.18587 23.9369 8.722C24.1099 9.25812 23.919 9.84469 23.4636 10.1763L17.6177 14.4249L19.8561 21.3031C20.0315 21.8413 19.8397 22.4312 19.3813 22.7632C18.9229 23.0953 18.3026 23.0936 17.8459 22.7591L12 18.4997L6.1541 22.7483C5.69906 23.0786 5.08354 23.08 4.627 22.7518C4.17046 22.4235 3.97574 21.8396 4.14389 21.3031L6.38228 14.4358L0.536383 10.1763C0.0810176 9.84469 -0.109887 9.25812 0.0630558 8.722C0.235999 8.18587 0.733682 7.82143 1.297 7.81841H8.52288L10.7613 0.89677Z" fill="white"/>
</svg>
