<svg width="17" height="17" viewBox="0 0 17 17" fill="none" xmlns="http://www.w3.org/2000/svg">
<path d="M15.465 0H1.53499C0.690745 0 0 0.695454 0 1.54545V15.4545C0 16.3045 0.690745 17 1.53499 17H15.465C16.3093 17 17 16.3045 17 15.4545V1.54545C17 0.695454 16.3093 0 15.465 0ZM12.3567 2.89773C12.3567 2.47273 12.702 2.125 13.1242 2.125H14.5248C14.947 2.125 15.2923 2.47273 15.2923 2.89773V10.0455C15.2923 10.4705 14.947 10.8182 14.5248 10.8182H13.1242C12.702 10.8182 12.3567 10.4705 12.3567 10.0455V2.89773ZM1.61174 2.975C1.61174 2.51136 1.99549 2.125 2.45598 2.125H3.70316C4.16366 2.125 4.5474 2.51136 4.5474 2.975V9.9875C4.5474 10.4511 4.16366 10.8375 3.70316 10.8375H2.45598C1.99549 10.8375 1.61174 10.4511 1.61174 9.9875V2.975ZM16.7122 15.242C16.7122 16.0727 16.0406 16.7295 15.2348 16.7295H1.76524C0.940181 16.7295 0.28781 16.0534 0.28781 15.242V12.4795H16.7122V15.242Z" fill="#E5E5E5"/>
</svg>
