<svg width="100" height="76" viewBox="0 0 100 76" fill="none" xmlns="http://www.w3.org/2000/svg">
<g opacity="0.15">
<circle cx="2" cy="2" r="2" fill="white"/>
<circle cx="26" cy="2" r="2" fill="white"/>
<circle cx="50" cy="2" r="2" fill="white"/>
<circle cx="74" cy="2" r="2" fill="white"/>
<circle cx="98" cy="2" r="2" fill="white"/>
<circle cx="2" cy="26" r="2" fill="white"/>
<circle cx="26" cy="26" r="2" fill="white"/>
<circle cx="50" cy="26" r="2" fill="white"/>
<circle cx="74" cy="26" r="2" fill="white"/>
<circle cx="98" cy="26" r="2" fill="white"/>
<circle cx="2" cy="50" r="2" fill="white"/>
<circle cx="26" cy="50" r="2" fill="white"/>
<circle cx="50" cy="50" r="2" fill="white"/>
<circle cx="74" cy="50" r="2" fill="white"/>
<circle cx="98" cy="50" r="2" fill="white"/>
<circle cx="2" cy="74" r="2" fill="white"/>
<circle cx="26" cy="74" r="2" fill="white"/>
<circle cx="50" cy="74" r="2" fill="white"/>
<circle cx="74" cy="74" r="2" fill="white"/>
<circle cx="98" cy="74" r="2" fill="white"/>
</g>
</svg>
