<svg width="38" height="29" viewBox="0 0 38 29" fill="none" xmlns="http://www.w3.org/2000/svg">
<g opacity="0.25">
<circle cx="1" cy="1" r="1" fill="white"/>
<circle cx="10" cy="1" r="1" fill="white"/>
<circle cx="19" cy="1" r="1" fill="white"/>
<circle cx="28" cy="1" r="1" fill="white"/>
<circle cx="37" cy="1" r="1" fill="white"/>
<circle cx="1" cy="10" r="1" fill="white"/>
<circle cx="10" cy="10" r="1" fill="white"/>
<circle cx="19" cy="10" r="1" fill="white"/>
<circle cx="28" cy="10" r="1" fill="white"/>
<circle cx="37" cy="10" r="1" fill="white"/>
<circle cx="1" cy="19" r="1" fill="white"/>
<circle cx="10" cy="19" r="1" fill="white"/>
<circle cx="19" cy="19" r="1" fill="white"/>
<circle cx="28" cy="19" r="1" fill="white"/>
<circle cx="37" cy="19" r="1" fill="white"/>
<circle cx="1" cy="28" r="1" fill="white"/>
<circle cx="10" cy="28" r="1" fill="white"/>
<circle cx="19" cy="28" r="1" fill="white"/>
<circle cx="28" cy="28" r="1" fill="white"/>
<circle cx="37" cy="28" r="1" fill="white"/>
</g>
</svg>
