<svg width="214" height="57" xmlns="http://www.w3.org/2000/svg" fill="none">
 <defs>
  <filter color-interpolation-filters="sRGB" filterUnits="userSpaceOnUse" height="77" width="75" y="17" x="55" id="filter1_f">
   <feGaussianBlur result="effect1_foregroundBlur" stdDeviation="17.5"/>
  </filter>
  <filter color-interpolation-filters="sRGB" filterUnits="userSpaceOnUse" height="77" width="75" y="54" x="55" id="filter2_f">
   <feGaussianBlur result="effect1_foregroundBlur" stdDeviation="17.5"/>
  </filter>
  <linearGradient id='linear-gradient'>
   <stop stop-color='#fff' stop-opacity='.13'/>
   <stop offset='.77' stop-color='#fff' stop-opacity='.13'/>
   <stop offset='.92' stop-color='#fff' stop-opacity='.5'/>
   <stop offset='1' stop-color='#fff' stop-opacity='.0'/>
  </linearGradient>
 </defs>
 <g>
  <path id="svg_3" fill="white" d="m54.28,26.72c4.24001,0 7.173,1.8 8.8,5.4c0.39999,0.88 0.627,1.9467 0.67999,3.2c0.05301,1.2267 -0.067,2.2533 -0.36,3.08l-13.95999,0c0,1.3067 0.467,2.3333 1.39999,3.08c0.96001,0.7467 2.147,1.12 3.56001,1.12c2.21301,0 4.227,-0.4667 6.04,-1.4l2.67999,2.92001c-2.79999,2.07999 -5.707,3.12 -8.71999,3.12c-3.013,0 -5.467,-0.96 -7.36,-2.88c-1.893,-1.9467 -2.84,-4.4 -2.84,-7.36c0,-2.9333 0.92001,-5.3733 2.76,-7.32c1.84,-1.9733 4.28,-2.96 7.32,-2.96zm0,4.64c-1.307,0 -2.4,0.3867 -3.28,1.16c-0.853,0.7733 -1.307,1.6667 -1.36,2.68l9.16,0c0,-0.5867 -0.16,-1.12 -0.48,-1.6c-0.8,-1.4933 -2.147,-2.24 -4.04001,-2.24zm31.789,15.64l-3.39999,0l-0.28,-2.84c-1.62701,2.0533 -3.84001,3.07999 -6.64001,3.07999c-2.79999,0 -5.133,-0.98669 -7,-2.96c-1.84,-1.9733 -2.75999,-4.4 -2.75999,-7.28c0,-2.88 0.92,-5.3067 2.75999,-7.28c1.867,-2 4.20001,-3 7,-3c2.8,0 5.013,1.04 6.64001,3.12l0.28,-2.84l3.39999,0l0,20zm-9.84,-4.68c1.38699,0 2.58699,-0.4933 3.59999,-1.48c1.04001,-0.98669 1.56001,-2.26669 1.56001,-3.84c0,-1.5733 -0.52,-2.8533 -1.56001,-3.84c-1.013,-1.01331 -2.213,-1.52 -3.59999,-1.52c-1.38701,0 -2.60001,0.5067 -3.64,1.52c-1.013,0.98669 -1.52,2.26669 -1.52,3.84c0,1.5733 0.507,2.8533 1.52,3.84c1.013,0.9867 2.22699,1.48 3.64,1.48zm58.073,-23.56c4.16,0 7.67999,1.5467 10.56,4.64l-3.60001,3.32c-1.84,-1.84 -4.15999,-2.76 -6.95999,-2.76c-2.48,0 -4.56,0.8533 -6.24001,2.56c-1.653,1.68 -2.48,3.8533 -2.48,6.52c0,2.64 0.827,4.8133 2.48,6.52c1.68001,1.7067 3.76001,2.56001 6.24001,2.56001c1.894,0 3.57401,-0.52 5.03999,-1.56001l0,-4.84l-5.12,0l0,-4.16l10.64,0l0,11.12c-2.88,3.0933 -6.39999,4.64 -10.56,4.64c-3.946,0 -7.306,-1.3867 -10.08,-4.16c-2.77299,-2.8 -4.16,-6.1733 -4.16,-10.12c0,-3.9467 1.38701,-7.3067 4.16,-10.08c2.774,-2.8 6.134,-4.2 10.08,-4.2zm22.81799,7.96c2.85301,0 5.28,1.0133 7.28,3.04c2,2 3,4.4133 3,7.24c0,2.8267 -1,5.24 -3,7.24c-2,2 -4.42699,3 -7.28,3c-2.85399,0 -5.28,-1 -7.28,-3c-1.974,-2 -2.95999,-4.4133 -2.95999,-7.24c0,-2.8533 1,-5.28 3,-7.28c2,-2 4.41299,-3 7.23999,-3zm3.60001,6.44c-1.01401,-1.01331 -2.214,-1.52 -3.60001,-1.52c-1.38699,0 -2.59999,0.5067 -3.64,1.52c-1.01399,0.98669 -1.51999,2.26669 -1.51999,3.84c0,1.5733 0.506,2.8533 1.51999,3.84c1.013,0.9867 2.226,1.48 3.64,1.48c1.386,0 2.586,-0.4933 3.60001,-1.48c1.03999,-0.98669 1.56,-2.26669 1.56,-3.84c0,-1.5733 -0.52,-2.8533 -1.56,-3.84z"/>
  <path id="svg_4" fill="white" d="m90.60001,47l-1,0l0,1l1,0l0,-1zm0,-28l0,-1l-1,0l0,1l1,0zm5.12,0l1,0l0,-1l-1,0l0,1zm0,28l0,1l1,0l0,-1l-1,0zm-4.12,0l0,-28l-2,0l0,28l2,0zm-1,-27l5.12,0l0,-2l-5.12,0l0,2zm4.12,-1l0,28l2,0l0,-28l-2,0zm1,27l-5.12,0l0,2l5.12,0l0,-2zm16.55299,1l-0.84,0.543l0.29601,0.457l0.54399,0l0,-1zm-3.44,-5.32l0.84001,-0.543l-0.00101,-0.0012l-0.839,0.5442zm-1.71999,-2l-0.58501,0.8107l0.00999,0.0074l0.01001,0.0072l0.565,-0.8253zm-3.48001,-0.52l0,-1l-1,0l0,1l1,0zm0,7.84l0,1l1,0l0,-1l-1,0zm-5.08,0l-1,0l0,1l1,0l0,-1zm0,-28l0,-1l-1,0l0,1l1,0zm5.08,0l1,0l0,-1l-1,0l0,1zm0,15.28l-1,0l0,1l1,0l0,-1zm3.32001,-0.52l-0.58501,-0.8107l0,0l0.58501,0.8107zm1.67999,-2l-0.836,-0.5482l-0.00299,0.004l0.83899,0.5442zm3.12001,-4.76l0,-1l-0.54001,0l-0.29599,0.4518l0.836,0.5482zm5.64,0l0.834,0.5524l1.02899,-1.5524l-1.86299,0l0,1zm-4.48001,6.76l-0.834,-0.55251l-0.00699,0.011l0.84099,0.5415zm-2.84,2.92l-0.39,-0.9206l-2.468,1.0469l2.55,0.8251l0.308,-0.9514zm3.04001,3l0.836,-0.5484l0,-0.0003l-0.836,0.5487zm4.79999,7.32l0,1l1.85201,0l-1.01601,-1.5484l-0.836,0.5484zm-4.79999,-0.543l-3.44,-5.32l-1.68001,1.086l3.44,5.32l1.68001,-1.086zm-3.44101,-5.3212c-0.65799,-1.0147 -1.319,-1.8191 -1.994,-2.28111l-1.12999,1.6506c0.33899,0.2314 0.82399,0.7603 1.446,1.71889l1.67799,-1.08839zm-1.97299,-2.2665c-0.72,-0.5195 -1.65401,-0.7093 -2.666,-0.7093l0,2c0.80099,0 1.254,0.1568 1.495,0.3307l1.17101,-1.6214zm-2.666,-0.7093l-1.40001,0l0,2l1.40001,0l0,-2zm-2.40001,1l0,7.84l2,0l0,-7.84l-2,0zm1,6.84l-5.08,0l0,2l5.08,0l0,-2zm-4.08,1l0,-28l-2,0l0,28l2,0zm-1,-27l5.08,0l0,-2l-5.08,0l0,2zm4.08,-1l0,15.28l2,0l0,-15.28l-2,0zm1,16.28l1.24001,0l0,-2l-1.24001,0l0,2zm1.24001,0c1.01199,0 1.946,-0.1898 2.666,-0.7093l-1.17101,-1.6214c-0.241,0.1739 -0.694,0.3307 -1.495,0.3307l0,2zm2.666,-0.7093c0.636,-0.46 1.27899,-1.2579 1.933,-2.2665l-1.67799,-1.0884c-0.62601,0.9647 -1.10301,1.5001 -1.42601,1.73351l1.17101,1.6214zm1.92999,-2.2625l3.12001,-4.75999l-1.672,-1.09641l-3.12001,4.76l1.672,1.0964zm2.28401,-4.3082l5.64,0l0,-2l-5.64,0l0,2zm4.80699,-1.5524l-4.48,6.76l1.66699,1.1048l4.48001,-6.76l-1.66701,-1.1048zm-4.48799,6.7709c-0.99101,1.5398 -1.80101,2.29131 -2.38901,2.5409l0.78101,1.8412c1.17099,-0.497 2.25499,-1.6923 3.28999,-3.2991l-1.68199,-1.083zm-2.30701,4.4129c0.25,0.0809 0.60001,0.2903 1.04601,0.7304c0.44,0.4343 0.92999,1.0494 1.46599,1.8669l1.67201,-1.0974c-0.58301,-0.8891 -1.16,-1.6274 -1.733,-2.1931c-0.56801,-0.5599 -1.17801,-0.9971 -1.83501,-1.2096l-0.616,1.9028zm2.51199,2.597l4.8,7.32l1.672,-1.0968l-4.79999,-7.32l-1.67201,1.0968zm5.636,5.7716l-5.64,0l0,2l5.64,0l0,-2z"/>
  <path id="svg_5" fill="white" d="m168.62,25.44c0.41301,0 0.767,0.1333 1.06,0.39999c0.29301,0.2533 0.44,0.5733 0.44,0.96001c0,0.3733 -0.14699,0.6933 -0.44,0.96c-0.293,0.2533 -0.64699,0.38 -1.06,0.38c-0.427,0 -0.787,-0.1267 -1.08,-0.38c-0.293,-0.2667 -0.43999,-0.5867 -0.43999,-0.96c0,-0.3867 0.14699,-0.7067 0.43999,-0.96001c0.293,-0.26669 0.653,-0.39999 1.08,-0.39999zm8.834,-7.56c1.60001,0 2.914,0.6133 3.94,1.84l-1.52,1.64c-0.73299,-0.68 -1.53999,-1.02 -2.42,-1.02c-0.70599,0 -1.31299,0.2467 -1.81999,0.74c-0.506,0.4933 -0.76001,1.1333 -0.76001,1.92c0,0.7867 0.25401,1.4267 0.76001,1.92c0.507,0.4933 1.114,0.74001 1.81999,0.74001c0.88,0 1.68701,-0.34 2.42,-1.02l1.52,1.64c-1.026,1.2267 -2.34,1.84 -3.94,1.84c-1.42599,0 -2.64,-0.5 -3.64,-1.5c-0.98599,-1 -1.48,-2.2067 -1.48,-3.62c0,-1.4133 0.494,-2.62 1.48,-3.62c1,-1 2.214,-1.5 3.64,-1.5zm11.17201,-0.02c1.427,0 2.63998,0.5067 3.63998,1.52c1,1 1.5,2.2067 1.5,3.62c0,1.4133 -0.5,2.62 -1.5,3.62c-1,1 -2.21298,1.5 -3.63998,1.5c-1.42599,0 -2.64001,-0.5 -3.64001,-1.5c-0.98599,-1 -1.47998,-2.2067 -1.47998,-3.62c0,-1.4267 0.5,-2.64 1.5,-3.64c1,-1 2.207,-1.5 3.62,-1.5zm1.79999,3.22c-0.50598,-0.5067 -1.10599,-0.76 -1.79999,-0.76c-0.69299,0 -1.30002,0.2533 -1.82001,0.76c-0.50601,0.4933 -0.76001,1.1333 -0.76001,1.92c0,0.7867 0.254,1.4267 0.76001,1.92c0.50699,0.4933 1.11401,0.74001 1.82001,0.74001c0.694,0 1.29401,-0.2467 1.79999,-0.74001c0.52002,-0.4933 0.78,-1.1333 0.78,-1.92c0,-0.7867 -0.25998,-1.4267 -0.78,-1.92zm18.60101,-3.22c1.414,0 2.49399,0.44 3.23999,1.32c0.74701,0.8667 1.12,2.0467 1.12,3.54l0,5.28l-2.54001,0l0,-5.12c0,-1.7067 -0.73999,-2.56 -2.21997,-2.56c-0.76001,0 -1.34601,0.2333 -1.76001,0.7c-0.41299,0.4533 -0.62,1.1467 -0.62,2.08l0,4.9l-2.54001,0l0,-5.12c0,-1.7067 -0.73999,-2.56 -2.22,-2.56c-0.76001,0 -1.34601,0.2333 -1.76001,0.7c-0.41299,0.4533 -0.62,1.1467 -0.62,2.08l0,4.9l-2.54001,0l0,-10l1.70001,0l0.17999,1.56c0.694,-1.1333 1.84,-1.7 3.44,-1.7c1.707,0 2.89401,0.6467 3.56,1.94c0.32001,-0.6267 0.79401,-1.1067 1.42001,-1.44c0.62698,-0.3333 1.34698,-0.5 2.16,-0.5z" opacity="0.35"/>
  <path id="svg_8" fill="white" d="m2.0978,44.1997c-1.5155,0.9244 -1.9907,2.9324 -0.8222,4.2687c1.8718,2.1403 4.1628,3.9088 6.7497,5.1948c3.5661,1.7727 7.5594,2.5616 11.5501,2.2816c3.9907,-0.28 7.8276,-1.6182 11.0976,-3.8707c3.271,-2.2524 5.85101,-5.33379 7.46301,-8.9125c1.612,-3.5787 2.194,-7.5192 1.685,-11.3974c-0.509,-3.8783 -2.091,-7.5474 -4.575,-10.6126c-2.484,-3.0652 -5.776,-5.4103 -9.5223,-6.783c-2.7606,-1.0116 -5.69061,-1.4669 -8.6154,-1.3509c-1.731,0.0686 -2.8596,1.7305 -2.5364,3.4325c0.3195,1.6822 1.9426,2.7595 3.6547,2.7838c1.7892,0.0254 3.5684,0.351 5.2582,0.9702c2.6603,0.9748 4.9982,2.6402 6.7622,4.8168c1.764,2.1767 2.887,4.7822 3.249,7.53619c0.361,2.7541 -0.053,5.5523 -1.197,8.09361c-1.145,2.5413 -2.97701,4.7295 -5.2993,6.32899c-2.3224,1.5995 -5.0471,2.5498 -7.881,2.7486c-2.8339,0.1989 -5.6696,-0.3613 -8.202,-1.6202c-1.5923,-0.7916 -3.0268,-1.8406 -4.2464,-3.096c-1.2013,-1.2365 -3.1007,-1.7102 -4.5725,-0.8125z"/>
  <g id="svg_9" filter="url(#filter1_f)">
   <rect id="svg_10" fill="black" height="7" width="5" y="13" x="17"/>
  </g>
  <g id="svg_11" filter="url(#filter2_f)">
   <rect id="svg_12" fill="black" height="7" width="5" y="50" x="17"/>
  </g>
  <path id="svg_13" fill="white" d="m12,0c3.3137,0 6,2.6863 6,6l0,37c-3.3137,0 -6,-2.6863 -6,-6l0,-37z"/>
 </g>
</svg>
