<svg width="92" height="230" viewBox="0 0 92 230" fill="none" xmlns="http://www.w3.org/2000/svg">
<path opacity="0.05" d="M2 2L2 -3.49691e-06L8.74228e-08 -3.58433e-06L0 2L2 2ZM2 7.5L-2.40413e-07 7.5L-3.27835e-07 9.5L2 9.5L2 7.5ZM83.9 7.5L85.9 7.5L85.9 5.5L83.9 5.5L83.9 7.5ZM83.9 12.1L83.9 14.1L85.9 14.1L85.9 12.1L83.9 12.1ZM2 12.1L2 10.1L-3.54062e-07 10.1L-4.41485e-07 12.1L2 12.1ZM2 17.6L-6.81898e-07 17.6L-7.6932e-07 19.6L2 19.6L2 17.6ZM89.5 17.6L89.5 19.6L91.5 19.6L91.5 17.6L89.5 17.6ZM89.5 2L91.5 2L91.5 4.15258e-07L89.5 3.27836e-07L89.5 2ZM0 2L-2.40413e-07 7.5L4 7.5L4 2L0 2ZM2 9.5L83.9 9.5L83.9 5.5L2 5.5L2 9.5ZM81.9 7.5L81.9 12.1L85.9 12.1L85.9 7.5L81.9 7.5ZM83.9 10.1L2 10.1L2 14.1L83.9 14.1L83.9 10.1ZM-4.41485e-07 12.1L-6.81898e-07 17.6L4 17.6L4 12.1L-4.41485e-07 12.1ZM2 19.6L89.5 19.6L89.5 15.6L2 15.6L2 19.6ZM91.5 17.6L91.5 2L87.5 2L87.5 17.6L91.5 17.6ZM89.5 3.27836e-07L2 -3.49691e-06L2 4L89.5 4L89.5 3.27836e-07ZM83.9 37.3148L83.9 39.3148L85.9 39.3148L85.9 37.3148L83.9 37.3148ZM7.5 37.3148L5.5 37.3148L5.5 39.3148L7.5 39.3148L7.5 37.3148ZM7.5 32.7148L7.5 30.7148L5.5 30.7148L5.5 32.7148L7.5 32.7148ZM2 27.2148L2 25.2148L-1.01475e-06 25.2148L-1.10218e-06 27.2148L2 27.2148ZM2 42.8148L-1.78407e-06 42.8148L-1.8715e-06 44.8148L2 44.8148L2 42.8148ZM89.5 42.8148L89.5 44.8148L91.5 44.8148L91.5 42.8148L89.5 42.8148ZM81.9 33.3148L81.9 37.3148L85.9 37.3148L85.9 33.3148L81.9 33.3148ZM83.9 35.3148L7.5 35.3148L7.5 39.3148L83.9 39.3148L83.9 35.3148ZM9.5 37.3148L9.5 32.7148L5.5 32.7148L5.5 37.3148L9.5 37.3148ZM7.5 34.7148L83.3 34.7148L83.3 30.7148L7.5 30.7148L7.5 34.7148ZM83.3 34.7148C82.7995 34.7148 82.4665 34.4848 82.2983 34.3166C82.1301 34.1484 81.9 33.8153 81.9 33.3148L85.9 33.3148C85.9 32.5144 85.5199 31.8813 85.1267 31.4881C84.7335 31.0949 84.1005 30.7148 83.3 30.7148L83.3 34.7148ZM-1.10218e-06 27.2148L-1.78407e-06 42.8148L4 42.8148L4 27.2148L-1.10218e-06 27.2148ZM2 44.8148L89.5 44.8148L89.5 40.8148L2 40.8148L2 44.8148ZM91.5 42.8148L91.5 33.3148L87.5 33.3148L87.5 42.8148L91.5 42.8148ZM91.5 33.3148C91.5 28.7681 87.762 25.2148 83.3 25.2148L83.3 29.2148C85.638 29.2148 87.5 31.0615 87.5 33.3148L91.5 33.3148ZM83.3 25.2148L2 25.2148L2 29.2148L83.3 29.2148L83.3 25.2148ZM2 68.0297L-2.88625e-06 68.0297L-2.97367e-06 70.0297L2 70.0297L2 68.0297ZM89.5 68.0297L89.5 70.0297L91.5 70.0297L91.5 68.0297L89.5 68.0297ZM89.5 62.5297L91.5 62.5297L91.5 60.5297L89.5 60.5297L89.5 62.5297ZM32.5 62.5297L31.0703 61.1311L27.7456 64.5297L32.5 64.5297L32.5 62.5297ZM37 57.9297L37 55.9297L36.1587 55.9297L35.5703 56.5311L37 57.9297ZM89.5 57.9297L89.5 59.9297L91.5 59.9297L91.5 57.9297L89.5 57.9297ZM89.5 52.4297L91.5 52.4297L91.5 50.4297L89.5 50.4297L89.5 52.4297ZM35.2 52.4297L35.2 50.4297L34.3716 50.4297L33.7858 51.0155L35.2 52.4297ZM25.1 62.5297L25.1 64.5297L25.9284 64.5297L26.5142 63.9439L25.1 62.5297ZM2 62.5297L2 60.5297L-2.55841e-06 60.5297L-2.64584e-06 62.5297L2 62.5297ZM2 70.0297L89.5 70.0297L89.5 66.0297L2 66.0297L2 70.0297ZM91.5 68.0297L91.5 62.5297L87.5 62.5297L87.5 68.0297L91.5 68.0297ZM89.5 60.5297L32.5 60.5297L32.5 64.5297L89.5 64.5297L89.5 60.5297ZM33.9297 63.9283L38.4297 59.3283L35.5703 56.5311L31.0703 61.1311L33.9297 63.9283ZM37 59.9297L89.5 59.9297L89.5 55.9297L37 55.9297L37 59.9297ZM91.5 57.9297L91.5 52.4297L87.5 52.4297L87.5 57.9297L91.5 57.9297ZM89.5 50.4297L35.2 50.4297L35.2 54.4297L89.5 54.4297L89.5 50.4297ZM33.7858 51.0155L23.6858 61.1155L26.5142 63.9439L36.6142 53.8439L33.7858 51.0155ZM25.1 60.5297L2 60.5297L2 64.5297L25.1 64.5297L25.1 60.5297ZM-2.64584e-06 62.5297L-2.88625e-06 68.0297L4 68.0297L4 62.5297L-2.64584e-06 62.5297ZM83.9 88.2328L83.9 90.2328L85.9 90.2328L85.9 88.2328L83.9 88.2328ZM38.3 88.2328L36.8858 89.647L37.4716 90.2328L38.3 90.2328L38.3 88.2328ZM33.7 83.6328L33.7 81.6328L28.8716 81.6328L32.2858 85.047L33.7 83.6328ZM83.9 83.6328L85.9 83.6328L85.9 81.6328L83.9 81.6328L83.9 83.6328ZM2 78.1328L2 76.1328L-3.24045e-06 76.1328L-3.32787e-06 78.1328L2 78.1328ZM2 93.7328L-4.00977e-06 93.7328L-4.09719e-06 95.7328L2 95.7328L2 93.7328ZM29.5 93.7328L29.5 95.7328L34.3284 95.7328L30.9142 92.3186L29.5 93.7328ZM24 88.2328L25.4142 86.8186L24.8284 86.2328L24 86.2328L24 88.2328ZM7.5 88.2328L5.5 88.2328L5.5 90.2328L7.5 90.2328L7.5 88.2328ZM7.5 83.6328L7.5 81.6328L5.5 81.6328L5.5 83.6328L7.5 83.6328ZM25.9 83.6328L27.3297 82.2342L26.7413 81.6328L25.9 81.6328L25.9 83.6328ZM30.4 88.2328L28.9703 89.6314L28.9843 89.6457L28.9986 89.6597L30.4 88.2328ZM36 93.7328L34.5986 95.1597L35.1821 95.7328L36 95.7328L36 93.7328ZM89.5 93.7328L89.5 95.7328L91.5 95.7328L91.5 93.7328L89.5 93.7328ZM89.5 78.1328L91.5 78.1328L91.5 76.1328L89.5 76.1328L89.5 78.1328ZM83.9 86.2328L38.3 86.2328L38.3 90.2328L83.9 90.2328L83.9 86.2328ZM39.7142 86.8186L35.1142 82.2186L32.2858 85.047L36.8858 89.647L39.7142 86.8186ZM33.7 85.6328L83.9 85.6328L83.9 81.6328L33.7 81.6328L33.7 85.6328ZM81.9 83.6328L81.9 88.2328L85.9 88.2328L85.9 83.6328L81.9 83.6328ZM-3.32787e-06 78.1328L-4.00977e-06 93.7328L4 93.7328L4 78.1328L-3.32787e-06 78.1328ZM2 95.7328L29.5 95.7328L29.5 91.7328L2 91.7328L2 95.7328ZM30.9142 92.3186L25.4142 86.8186L22.5858 89.647L28.0858 95.147L30.9142 92.3186ZM24 86.2328L7.5 86.2328L7.5 90.2328L24 90.2328L24 86.2328ZM9.5 88.2328L9.5 83.6328L5.5 83.6328L5.5 88.2328L9.5 88.2328ZM7.5 85.6328L25.9 85.6328L25.9 81.6328L7.5 81.6328L7.5 85.6328ZM24.4703 85.0314L28.9703 89.6314L31.8297 86.8342L27.3297 82.2342L24.4703 85.0314ZM28.9986 89.6597L34.5986 95.1597L37.4014 92.3059L31.8014 86.8059L28.9986 89.6597ZM36 95.7328L43.8 95.7328L43.8 91.7328L36 91.7328L36 95.7328ZM43.8 95.7328L89.5 95.7328L89.5 91.7328L43.8 91.7328L43.8 95.7328ZM91.5 93.7328L91.5 78.1328L87.5 78.1328L87.5 93.7328L91.5 93.7328ZM89.5 76.1328L2 76.1328L2 80.1328L89.5 80.1328L89.5 76.1328ZM89.5 120.548L91.5 120.548L91.5 119.706L90.8982 119.118L89.5 120.548ZM85 116.148L83.6018 114.718L82.1392 116.148L83.6018 117.578L85 116.148ZM89.5 111.748L90.8982 113.178L91.5 112.589L91.5 111.748L89.5 111.748ZM89.5 103.348L91.5 103.348L91.5 101.348L89.5 101.348L89.5 103.348ZM2 103.348L2 101.348L-4.34262e-06 101.348L-4.43005e-06 103.348L2 103.348ZM2 108.848L-4.67046e-06 108.848L-4.75788e-06 110.848L2 110.848L2 108.848ZM83.9 108.848L85.9 108.848L85.9 106.848L83.9 106.848L83.9 108.848ZM83.9 109.448L85.332 110.844L85.9 110.261L85.9 109.448L83.9 109.448ZM80 113.448L80 115.448L80.8433 115.448L81.432 114.844L80 113.448ZM2 113.448L2 111.448L-4.78411e-06 111.448L-4.87153e-06 113.448L2 113.448ZM1.99999 118.948L-5.11194e-06 118.948L-5.19937e-06 120.948L1.99999 120.948L1.99999 118.948ZM80 118.948L81.4142 117.533L80.8284 116.948L80 116.948L80 118.948ZM83.9 122.848L85.9 122.848L85.9 122.019L85.3142 121.433L83.9 122.848ZM83.9 123.548L83.9 125.548L85.9 125.548L85.9 123.548L83.9 123.548ZM1.99999 123.548L1.99999 121.548L-5.22559e-06 121.548L-5.31302e-06 123.548L1.99999 123.548ZM1.99999 129.048L-5.55343e-06 129.048L-5.64085e-06 131.048L1.99999 131.048L1.99999 129.048ZM89.5 129.048L89.5 131.048L91.5 131.048L91.5 129.048L89.5 129.048ZM90.8982 119.118L86.3982 114.718L83.6018 117.578L88.1018 121.978L90.8982 119.118ZM86.3982 117.578L90.8982 113.178L88.1018 110.318L83.6018 114.718L86.3982 117.578ZM91.5 111.748L91.5 108.848L87.5 108.848L87.5 111.748L91.5 111.748ZM91.5 108.848L91.5 103.348L87.5 103.348L87.5 108.848L91.5 108.848ZM89.5 101.348L83.9 101.348L83.9 105.348L89.5 105.348L89.5 101.348ZM83.9 101.348L63.2 101.348L63.2 105.348L83.9 105.348L83.9 101.348ZM63.2 101.348L54.4 101.348L54.4 105.348L63.2 105.348L63.2 101.348ZM54.4 101.348L2 101.348L2 105.348L54.4 105.348L54.4 101.348ZM-4.43005e-06 103.348L-4.67046e-06 108.848L4 108.848L4 103.348L-4.43005e-06 103.348ZM2 110.848L52.1 110.848L52.1 106.848L2 106.848L2 110.848ZM52.1 110.848L65.5 110.848L65.5 106.848L52.1 106.848L52.1 110.848ZM65.5 110.848L83.9 110.848L83.9 106.848L65.5 106.848L65.5 110.848ZM81.9 108.848L81.9 109.448L85.9 109.448L85.9 108.848L81.9 108.848ZM82.468 108.051L78.568 112.051L81.432 114.844L85.332 110.844L82.468 108.051ZM80 111.448L2 111.448L2 115.448L80 115.448L80 111.448ZM-4.87153e-06 113.448L-5.11194e-06 118.948L3.99999 118.948L4 113.448L-4.87153e-06 113.448ZM1.99999 120.948L80 120.948L80 116.948L1.99999 116.948L1.99999 120.948ZM78.5858 120.362L82.4858 124.262L85.3142 121.433L81.4142 117.533L78.5858 120.362ZM81.9 122.848L81.9 123.548L85.9 123.548L85.9 122.848L81.9 122.848ZM83.9 121.548L65.5 121.548L65.5 125.548L83.9 125.548L83.9 121.548ZM65.5 121.548L52.1 121.548L52.1 125.548L65.5 125.548L65.5 121.548ZM52.1 121.548L1.99999 121.548L1.99999 125.548L52.1 125.548L52.1 121.548ZM-5.31302e-06 123.548L-5.55343e-06 129.048L3.99999 129.048L3.99999 123.548L-5.31302e-06 123.548ZM1.99999 131.048L54.4 131.048L54.4 127.048L1.99999 127.048L1.99999 131.048ZM54.4 131.048L63.2 131.048L63.2 127.048L54.4 127.048L54.4 131.048ZM63.2 131.048L83.9 131.048L83.9 127.048L63.2 127.048L63.2 131.048ZM83.9 131.048L89.5 131.048L89.5 127.048L83.9 127.048L83.9 131.048ZM91.5 129.048L91.5 123.548L87.5 123.548L87.5 129.048L91.5 129.048ZM91.5 123.548L91.5 120.548L87.5 120.548L87.5 123.548L91.5 123.548ZM1.99999 154.221L-6.6538e-06 154.221L-6.74122e-06 156.221L1.99999 156.221L1.99999 154.221ZM89.5 154.221L89.5 156.221L91.5 156.221L91.5 154.221L89.5 154.221ZM89.5 148.721L91.5 148.721L91.5 146.721L89.5 146.721L89.5 148.721ZM33.2 148.721L31.7703 147.323L28.4456 150.721L33.2 150.721L33.2 148.721ZM37.7 144.121L37.7 142.121L36.8587 142.121L36.2703 142.723L37.7 144.121ZM89.5 144.121L89.5 146.121L91.5 146.121L91.5 144.121L89.5 144.121ZM89.5 138.621L91.5 138.621L91.5 136.621L89.5 136.621L89.5 138.621ZM36 138.621L36 136.621L35.1716 136.621L34.5858 137.207L36 138.621ZM25.9 148.721L25.9 150.721L26.7284 150.721L27.3142 150.135L25.9 148.721ZM7.49999 148.721L5.49999 148.721L5.49999 150.721L7.49999 150.721L7.49999 148.721ZM7.49999 144.121L7.49999 142.121L5.49999 142.121L5.49999 144.121L7.49999 144.121ZM24 144.121L24 146.121L24.8284 146.121L25.4142 145.535L24 144.121ZM29.5 138.621L30.9142 140.035L34.3284 136.621L29.5 136.621L29.5 138.621ZM1.99999 138.621L1.99999 136.621L-5.88447e-06 136.621L-5.9719e-06 138.621L1.99999 138.621ZM1.99999 156.221L89.5 156.221L89.5 152.221L1.99999 152.221L1.99999 156.221ZM91.5 154.221L91.5 148.721L87.5 148.721L87.5 154.221L91.5 154.221ZM89.5 146.721L33.2 146.721L33.2 150.721L89.5 150.721L89.5 146.721ZM34.6297 150.12L39.1297 145.52L36.2703 142.723L31.7703 147.323L34.6297 150.12ZM37.7 146.121L89.5 146.121L89.5 142.121L37.7 142.121L37.7 146.121ZM91.5 144.121L91.5 138.621L87.5 138.621L87.5 144.121L91.5 144.121ZM89.5 136.621L36 136.621L36 140.621L89.5 140.621L89.5 136.621ZM34.5858 137.207L24.4858 147.307L27.3142 150.135L37.4142 140.035L34.5858 137.207ZM25.9 146.721L7.49999 146.721L7.49999 150.721L25.9 150.721L25.9 146.721ZM9.49999 148.721L9.49999 144.121L5.49999 144.121L5.49999 148.721L9.49999 148.721ZM7.49999 146.121L24 146.121L24 142.121L7.49999 142.121L7.49999 146.121ZM25.4142 145.535L30.9142 140.035L28.0858 137.207L22.5858 142.707L25.4142 145.535ZM29.5 136.621L1.99999 136.621L1.99999 140.621L29.5 140.621L29.5 136.621ZM-5.9719e-06 138.621L-6.21231e-06 144.121L3.99999 144.121L3.99999 138.621L-5.9719e-06 138.621ZM-6.21231e-06 144.121L-6.6538e-06 154.221L3.99999 154.221L3.99999 144.121L-6.21231e-06 144.121ZM89.5 193.555L91.5 193.555L91.5 192.714L90.8982 192.125L89.5 193.555ZM85 189.155L83.6018 187.725L82.1392 189.155L83.6018 190.585L85 189.155ZM89.5 184.755L90.8982 186.185L91.5 185.597L91.5 184.755L89.5 184.755ZM89.5 176.355L91.5 176.355L91.5 174.355L89.5 174.355L89.5 176.355ZM1.99999 176.355L1.99999 174.355L-7.5339e-06 174.355L-7.62132e-06 176.355L1.99999 176.355ZM1.99999 181.855L-7.86173e-06 181.855L-7.94916e-06 183.855L1.99999 183.855L1.99999 181.855ZM83.9 181.855L85.9 181.855L85.9 179.855L83.9 179.855L83.9 181.855ZM83.9 182.455L85.332 183.852L85.9 183.269L85.9 182.455L83.9 182.455ZM80 186.455L80 188.455L80.8433 188.455L81.432 187.852L80 186.455ZM1.99999 186.455L1.99999 184.455L-7.97538e-06 184.455L-8.0628e-06 186.455L1.99999 186.455ZM1.99999 191.955L-8.30322e-06 191.955L-8.39064e-06 193.955L1.99999 193.955L1.99999 191.955ZM80 191.955L81.4142 190.541L80.8284 189.955L80 189.955L80 191.955ZM83.9 195.855L85.9 195.855L85.9 195.027L85.3142 194.441L83.9 195.855ZM83.9 196.555L83.9 198.555L85.9 198.555L85.9 196.555L83.9 196.555ZM1.99999 196.555L1.99999 194.555L-8.41687e-06 194.555L-8.50429e-06 196.555L1.99999 196.555ZM1.99999 202.055L-8.7447e-06 202.055L-8.83212e-06 204.055L1.99999 204.055L1.99999 202.055ZM89.5 202.055L89.5 204.055L91.5 204.055L91.5 202.055L89.5 202.055ZM90.8982 192.125L86.3982 187.725L83.6018 190.585L88.1018 194.985L90.8982 192.125ZM86.3982 190.585L90.8982 186.185L88.1018 183.325L83.6018 187.725L86.3982 190.585ZM91.5 184.755L91.5 181.855L87.5 181.855L87.5 184.755L91.5 184.755ZM91.5 181.855L91.5 176.355L87.5 176.355L87.5 181.855L91.5 181.855ZM89.5 174.355L83.9 174.355L83.9 178.355L89.5 178.355L89.5 174.355ZM83.9 174.355L63.2 174.355L63.2 178.355L83.9 178.355L83.9 174.355ZM63.2 174.355L54.4 174.355L54.4 178.355L63.2 178.355L63.2 174.355ZM54.4 174.355L1.99999 174.355L1.99999 178.355L54.4 178.355L54.4 174.355ZM-7.62132e-06 176.355L-7.86173e-06 181.855L3.99999 181.855L3.99999 176.355L-7.62132e-06 176.355ZM1.99999 183.855L52.1 183.855L52.1 179.855L1.99999 179.855L1.99999 183.855ZM52.1 183.855L65.5 183.855L65.5 179.855L52.1 179.855L52.1 183.855ZM65.5 183.855L83.9 183.855L83.9 179.855L65.5 179.855L65.5 183.855ZM81.9 181.855L81.9 182.455L85.9 182.455L85.9 181.855L81.9 181.855ZM82.468 181.059L78.568 185.059L81.432 187.852L85.332 183.852L82.468 181.059ZM80 184.455L1.99999 184.455L1.99999 188.455L80 188.455L80 184.455ZM-8.0628e-06 186.455L-8.30322e-06 191.955L3.99999 191.955L3.99999 186.455L-8.0628e-06 186.455ZM1.99999 193.955L80 193.955L80 189.955L1.99999 189.955L1.99999 193.955ZM78.5858 193.37L82.4858 197.27L85.3142 194.441L81.4142 190.541L78.5858 193.37ZM81.9 195.855L81.9 196.555L85.9 196.555L85.9 195.855L81.9 195.855ZM83.9 194.555L65.5 194.555L65.5 198.555L83.9 198.555L83.9 194.555ZM65.5 194.555L52.1 194.555L52.1 198.555L65.5 198.555L65.5 194.555ZM52.1 194.555L1.99999 194.555L1.99999 198.555L52.1 198.555L52.1 194.555ZM-8.50429e-06 196.555L-8.7447e-06 202.055L3.99999 202.055L3.99999 196.555L-8.50429e-06 196.555ZM1.99999 204.055L54.4 204.055L54.4 200.055L1.99999 200.055L1.99999 204.055ZM54.4 204.055L63.2 204.055L63.2 200.055L54.4 200.055L54.4 204.055ZM63.2 204.055L83.9 204.055L83.9 200.055L63.2 200.055L63.2 204.055ZM83.9 204.055L89.5 204.055L89.5 200.055L83.9 200.055L83.9 204.055ZM91.5 202.055L91.5 196.555L87.5 196.555L87.5 202.055L91.5 202.055ZM91.5 196.555L91.5 193.555L87.5 193.555L87.5 196.555L91.5 196.555ZM69 221.729L67.5858 223.143L68.1716 223.729L69 223.729L69 221.729ZM64.4 217.129L64.4 215.129L59.5716 215.129L62.9858 218.543L64.4 217.129ZM89.5 217.129L89.5 219.129L91.5 219.129L91.5 217.129L89.5 217.129ZM89.5 211.629L91.5 211.629L91.5 209.629L89.5 209.629L89.5 211.629ZM1.99999 211.629L1.99999 209.629L-9.07575e-06 209.629L-9.16317e-06 211.629L1.99999 211.629ZM1.99999 217.129L-9.40358e-06 217.129L-9.49101e-06 219.129L1.99999 219.129L1.99999 217.129ZM56.6 217.129L58.0297 215.73L57.4413 215.129L56.6 215.129L56.6 217.129ZM61.1 221.729L61.1 223.729L65.8544 223.729L62.5297 220.33L61.1 221.729ZM1.99999 221.729L1.99999 219.729L-9.51723e-06 219.729L-9.60466e-06 221.729L1.99999 221.729ZM1.99999 227.229L-9.84507e-06 227.229L-9.93249e-06 229.229L1.99999 229.229L1.99999 227.229ZM89.5 227.229L89.5 229.229L91.5 229.229L91.5 227.229L89.5 227.229ZM89.5 221.729L91.5 221.729L91.5 219.729L89.5 219.729L89.5 221.729ZM70.4142 220.315L65.8142 215.715L62.9858 218.543L67.5858 223.143L70.4142 220.315ZM64.4 219.129L89.5 219.129L89.5 215.129L64.4 215.129L64.4 219.129ZM91.5 217.129L91.5 211.629L87.5 211.629L87.5 217.129L91.5 217.129ZM89.5 209.629L1.99999 209.629L1.99999 213.629L89.5 213.629L89.5 209.629ZM-9.16317e-06 211.629L-9.40358e-06 217.129L3.99999 217.129L3.99999 211.629L-9.16317e-06 211.629ZM1.99999 219.129L56.6 219.129L56.6 215.129L1.99999 215.129L1.99999 219.129ZM55.1703 218.527L59.6703 223.128L62.5297 220.33L58.0297 215.73L55.1703 218.527ZM61.1 219.729L1.99999 219.729L1.99999 223.729L61.1 223.729L61.1 219.729ZM-9.60466e-06 221.729L-9.84507e-06 227.229L3.99999 227.229L3.99999 221.729L-9.60466e-06 221.729ZM1.99999 229.229L89.5 229.229L89.5 225.229L1.99999 225.229L1.99999 229.229ZM91.5 227.229L91.5 221.729L87.5 221.729L87.5 227.229L91.5 227.229ZM89.5 219.729L69 219.729L69 223.729L89.5 223.729L89.5 219.729Z" fill="white"/>
</svg>
