<svg width="714" height="197" viewBox="0 0 714 197" fill="none" xmlns="http://www.w3.org/2000/svg">
<path opacity="0.15" d="M2.54297 195H0.542969V197H2.54297V195ZM36.863 195V197H38.863V195H36.863ZM36.863 77.74H38.863V76.9221L38.2899 76.3386L36.863 77.74ZM24.763 65.42L26.1899 64.0186L22.763 60.5294V65.42H24.763ZM24.763 182.9V184.9H26.763V182.9H24.763ZM14.643 182.9H12.643V184.9H14.643V182.9ZM14.643 14.82V12.82H12.643V14.82H14.643ZM24.763 14.82H26.763V12.82H24.763V14.82ZM24.763 51.12H22.763V51.9484L23.3488 52.5342L24.763 51.12ZM36.863 63.22L35.4488 64.6342L38.863 68.0484V63.22H36.863ZM36.863 2.49999H38.863V0.499987H36.863V2.49999ZM2.54297 2.49999V0.499987H0.542969V2.49999H2.54297ZM2.54297 197H36.863V193H2.54297V197ZM38.863 195V77.74H34.863V195H38.863ZM38.2899 76.3386L26.1899 64.0186L23.3361 66.8214L35.4361 79.1414L38.2899 76.3386ZM22.763 65.42V182.9H26.763V65.42H22.763ZM24.763 180.9H14.643V184.9H24.763V180.9ZM16.643 182.9V14.82H12.643V182.9H16.643ZM14.643 16.82H24.763V12.82H14.643V16.82ZM22.763 14.82V51.12H26.763V14.82H22.763ZM23.3488 52.5342L35.4488 64.6342L38.2772 61.8058L26.1772 49.7058L23.3488 52.5342ZM38.863 63.22V2.49999H34.863V63.22H38.863ZM36.863 0.499987H2.54297V4.49999H36.863V0.499987ZM0.542969 2.49999V195H4.54297V2.49999H0.542969ZM79.5756 182.9H77.5756V184.9H79.5756V182.9ZM89.4756 14.82H91.4756V12.82H89.4756V14.82ZM89.4756 182.9V184.9H91.4756V182.9H89.4756ZM101.796 2.49999H103.796V0.499987H101.796V2.49999ZM67.2556 182.9V184.9H69.2556V182.9H67.2556ZM58.0156 182.9V180.9H56.0156V182.9H58.0156ZM58.0156 195H56.0156V197H58.0156V195ZM111.036 195V197H113.036V195H111.036ZM111.036 182.9H113.036V180.9H111.036V182.9ZM101.796 182.9H99.7956V184.9H101.796V182.9ZM81.5756 182.9V16.14H77.5756V182.9H81.5756ZM81.5756 16.14C81.5756 16.2297 81.5524 16.3375 81.4568 16.4604C81.3444 16.6049 81.0741 16.82 80.6756 16.82V12.82C79.6171 12.82 78.7968 13.3651 78.2994 14.0046C77.8189 14.6224 77.5756 15.3903 77.5756 16.14H81.5756ZM80.6756 16.82H89.4756V12.82H80.6756V16.82ZM87.4756 14.82V182.9H91.4756V14.82H87.4756ZM89.4756 180.9H79.5756V184.9H89.4756V180.9ZM101.796 0.499987H80.6756V4.49999H101.796V0.499987ZM80.6756 0.499987C72.29 0.499987 65.2556 7.57654 65.2556 16.14H69.2556C69.2556 9.74343 74.5412 4.49999 80.6756 4.49999V0.499987ZM65.2556 16.14V182.9H69.2556V16.14H65.2556ZM67.2556 180.9H58.0156V184.9H67.2556V180.9ZM56.0156 182.9V195H60.0156V182.9H56.0156ZM58.0156 197H79.5756V193H58.0156V197ZM79.5756 197H89.4756V193H79.5756V197ZM89.4756 197H101.796V193H89.4756V197ZM101.796 197H111.036V193H101.796V197ZM113.036 195V182.9H109.036V195H113.036ZM111.036 180.9H101.796V184.9H111.036V180.9ZM103.796 182.9V2.49999H99.7956V182.9H103.796ZM154.4 14.82H156.4V12.82H154.4V14.82ZM154.4 115.14L155.814 116.554L156.4 115.968V115.14H154.4ZM144.28 125.26H142.28V130.088L145.694 126.674L144.28 125.26ZM144.28 14.82V12.82H142.28V14.82H144.28ZM132.18 195H130.18V197H132.18V195ZM166.5 195V197H168.5V195H166.5ZM166.5 134.5H168.5V129.672L165.085 133.086L166.5 134.5ZM154.4 146.6L152.985 145.186L152.4 145.772V146.6H154.4ZM154.4 182.9V184.9H156.4V182.9H154.4ZM144.28 182.9H142.28V184.9H144.28V182.9ZM144.28 142.42L142.881 140.99L142.28 141.579V142.42H144.28ZM154.4 132.52L155.798 133.95L155.813 133.936L155.827 133.921L154.4 132.52ZM166.5 120.2L167.927 121.601L168.5 121.018V120.2H166.5ZM166.5 2.49999H168.5V0.499987H166.5V2.49999ZM132.18 2.49999V0.499987H130.18V2.49999H132.18ZM152.4 14.82V115.14H156.4V14.82H152.4ZM152.985 113.726L142.865 123.846L145.694 126.674L155.814 116.554L152.985 113.726ZM146.28 125.26V14.82H142.28V125.26H146.28ZM144.28 16.82H154.4V12.82H144.28V16.82ZM132.18 197H166.5V193H132.18V197ZM168.5 195V134.5H164.5V195H168.5ZM165.085 133.086L152.985 145.186L155.814 148.014L167.914 135.914L165.085 133.086ZM152.4 146.6V182.9H156.4V146.6H152.4ZM154.4 180.9H144.28V184.9H154.4V180.9ZM146.28 182.9V142.42H142.28V182.9H146.28ZM145.678 143.85L155.798 133.95L153.001 131.09L142.881 140.99L145.678 143.85ZM155.827 133.921L167.927 121.601L165.073 118.799L152.973 131.119L155.827 133.921ZM168.5 120.2V103.04H164.5V120.2H168.5ZM168.5 103.04V2.49999H164.5V103.04H168.5ZM166.5 0.499987H132.18V4.49999H166.5V0.499987ZM130.18 2.49999V195H134.18V2.49999H130.18ZM196.892 182.9V184.9H198.892V182.9H196.892ZM187.652 182.9V180.9H185.652V182.9H187.652ZM187.652 195H185.652V197H187.652V195ZM209.212 195V197H211.212V195H209.212ZM219.112 14.82H221.112V12.82H219.112V14.82ZM219.112 195H217.112V197H219.112V195ZM231.432 195V197H233.432V195H231.432ZM231.432 2.49999H233.432V0.499987H231.432V2.49999ZM194.892 16.14V182.9H198.892V16.14H194.892ZM196.892 180.9H187.652V184.9H196.892V180.9ZM185.652 182.9V195H189.652V182.9H185.652ZM187.652 197H209.212V193H187.652V197ZM211.212 195V16.14H207.212V195H211.212ZM211.212 16.14C211.212 16.2297 211.189 16.3375 211.094 16.4604C210.981 16.6049 210.711 16.82 210.312 16.82V12.82C209.254 12.82 208.434 13.3651 207.936 14.0046C207.456 14.6224 207.212 15.3903 207.212 16.14H211.212ZM210.312 16.82H219.112V12.82H210.312V16.82ZM217.112 14.82V195H221.112V14.82H217.112ZM219.112 197H231.432V193H219.112V197ZM233.432 195V2.49999H229.432V195H233.432ZM231.432 0.499987H210.312V4.49999H231.432V0.499987ZM210.312 0.499987C201.927 0.499987 194.892 7.57654 194.892 16.14H198.892C198.892 9.74343 204.178 4.49999 210.312 4.49999V0.499987ZM274.583 55.3L275.982 56.7297L276.583 56.1413V55.3H274.583ZM264.463 65.2H262.463V69.9544L265.862 66.6297L264.463 65.2ZM264.463 2.49999H266.463V0.499987H264.463V2.49999ZM252.363 2.49999V0.499987H250.363V2.49999H252.363ZM252.363 195H250.363V197H252.363V195ZM264.463 195V197H266.463V195H264.463ZM264.463 74.66L265.878 73.2458L262.463 69.8316V74.66H264.463ZM274.583 84.78H276.583V83.9516L275.997 83.3658L274.583 84.78ZM274.583 195H272.583V197H274.583V195ZM286.683 195V197H288.683V195H286.683ZM286.683 79.72H288.683V78.8916L288.098 78.3058L286.683 79.72ZM277.003 70.04L275.589 68.6258L274.175 70.04L275.589 71.4542L277.003 70.04ZM286.683 60.36L288.098 61.7742L288.683 61.1884V60.36H286.683ZM286.683 2.49999H288.683V0.499987H286.683V2.49999ZM274.583 2.49999V0.499987H272.583V2.49999H274.583ZM273.185 53.8703L263.065 63.7703L265.862 66.6297L275.982 56.7297L273.185 53.8703ZM266.463 65.2V2.49999H262.463V65.2H266.463ZM264.463 0.499987H252.363V4.49999H264.463V0.499987ZM250.363 2.49999V195H254.363V2.49999H250.363ZM252.363 197H264.463V193H252.363V197ZM266.463 195V74.66H262.463V195H266.463ZM263.049 76.0742L273.169 86.1942L275.997 83.3658L265.878 73.2458L263.049 76.0742ZM272.583 84.78V195H276.583V84.78H272.583ZM274.583 197H286.683V193H274.583V197ZM288.683 195V79.72H284.683V195H288.683ZM288.098 78.3058L278.417 68.6258L275.589 71.4542L285.269 81.1342L288.098 78.3058ZM278.418 71.4542L288.098 61.7742L285.269 58.9458L275.589 68.6258L278.418 71.4542ZM288.683 60.36V2.49999H284.683V60.36H288.683ZM286.683 0.499987H274.583V4.49999H286.683V0.499987ZM272.583 2.49999V55.3H276.583V2.49999H272.583ZM330.056 182.9V184.9H332.056V182.9H330.056ZM319.936 182.9H317.936V184.9H319.936V182.9ZM319.936 52.88L318.522 51.4658L317.936 52.0516V52.88H319.936ZM330.056 42.76H332.056V37.9316L328.642 41.3458L330.056 42.76ZM307.836 34.62H305.836V39.4484L309.25 36.0342L307.836 34.62ZM319.936 22.52L321.35 23.9342L321.936 23.3484V22.52H319.936ZM319.936 14.82V12.82H317.936V14.82H319.936ZM330.056 14.82H332.056V12.82H330.056V14.82ZM330.056 26.7L331.47 28.1142L332.056 27.5284V26.7H330.056ZM307.836 48.92L306.422 47.5058L305.836 48.0916V48.92H307.836ZM307.836 195H305.836V197H307.836V195ZM342.156 195V197H344.156V195H342.156ZM342.156 2.49999H344.156V0.499987H342.156V2.49999ZM307.836 2.49999V0.499987H305.836V2.49999H307.836ZM330.056 180.9H319.936V184.9H330.056V180.9ZM321.936 182.9V52.88H317.936V182.9H321.936ZM321.35 54.2942L331.47 44.1742L328.642 41.3458L318.522 51.4658L321.35 54.2942ZM328.056 42.76V182.9H332.056V42.76H328.056ZM309.25 36.0342L321.35 23.9342L318.522 21.1058L306.422 33.2058L309.25 36.0342ZM321.936 22.52V14.82H317.936V22.52H321.936ZM319.936 16.82H330.056V12.82H319.936V16.82ZM328.056 14.82V26.7H332.056V14.82H328.056ZM328.642 25.2858L306.422 47.5058L309.25 50.3342L331.47 28.1142L328.642 25.2858ZM305.836 48.92V195H309.836V48.92H305.836ZM307.836 197H342.156V193H307.836V197ZM344.156 195V2.49999H340.156V195H344.156ZM342.156 0.499987H307.836V4.49999H342.156V0.499987ZM305.836 2.49999V34.62H309.836V2.49999H305.836ZM413.072 14.82H415.072V12.82H413.072V14.82ZM413.072 182.9V184.9H415.072V182.9H413.072ZM402.952 182.9H400.952V184.9H402.952V182.9ZM390.852 195H388.852V197H390.852V195ZM425.172 195V197H427.172V195H425.172ZM425.172 2.49999H427.172V0.499987H425.172V2.49999ZM404.272 16.82H413.072V12.82H404.272V16.82ZM411.072 14.82V182.9H415.072V14.82H411.072ZM413.072 180.9H402.952V184.9H413.072V180.9ZM404.952 182.9V16.14H400.952V182.9H404.952ZM404.952 16.14C404.952 16.4605 404.811 16.6135 404.778 16.6467C404.745 16.6799 404.592 16.82 404.272 16.82V12.82C403.291 12.82 402.478 13.2901 401.95 13.8183C401.422 14.3465 400.952 15.1595 400.952 16.14H404.952ZM390.852 197H425.172V193H390.852V197ZM427.172 195V2.49999H423.172V195H427.172ZM425.172 0.499987H404.272V4.49999H425.172V0.499987ZM404.272 0.499987C395.645 0.499987 388.852 7.59803 388.852 16.14H392.852C392.852 9.72195 397.938 4.49999 404.272 4.49999V0.499987ZM388.852 16.14V195H392.852V16.14H388.852ZM468.544 55.3V57.3H470.544V55.3H468.544ZM458.424 55.3H456.424V57.3H458.424V55.3ZM458.424 2.49999H460.424V0.499987H458.424V2.49999ZM446.324 2.49999V0.499987H444.324V2.49999H446.324ZM446.324 195H444.324V197H446.324V195ZM458.424 195V197H460.424V195H458.424ZM458.424 67.4V65.4H456.424V67.4H458.424ZM468.544 67.4H470.544V65.4H468.544V67.4ZM468.544 195H466.544V197H468.544V195ZM480.644 195V197H482.644V195H480.644ZM480.644 2.49999H482.644V0.499987H480.644V2.49999ZM468.544 2.49999V0.499987H466.544V2.49999H468.544ZM468.544 53.3H458.424V57.3H468.544V53.3ZM460.424 55.3V2.49999H456.424V55.3H460.424ZM458.424 0.499987H446.324V4.49999H458.424V0.499987ZM444.324 2.49999V55.3H448.324V2.49999H444.324ZM444.324 55.3V67.4H448.324V55.3H444.324ZM444.324 67.4V195H448.324V67.4H444.324ZM446.324 197H458.424V193H446.324V197ZM460.424 195V67.4H456.424V195H460.424ZM458.424 69.4H468.544V65.4H458.424V69.4ZM466.544 67.4V195H470.544V67.4H466.544ZM468.544 197H480.644V193H468.544V197ZM482.644 195V67.4H478.644V195H482.644ZM482.644 67.4V55.3H478.644V67.4H482.644ZM482.644 55.3V2.49999H478.644V55.3H482.644ZM480.644 0.499987H468.544V4.49999H480.644V0.499987ZM466.544 2.49999V55.3H470.544V2.49999H466.544ZM511.037 182.9V184.9H513.037V182.9H511.037ZM501.797 182.9V180.9H499.797V182.9H501.797ZM501.797 195H499.797V197H501.797V195ZM523.357 195V197H525.357V195H523.357ZM533.257 14.82H535.257V12.82H533.257V14.82ZM533.257 195H531.257V197H533.257V195ZM545.577 195V197H547.577V195H545.577ZM545.577 2.49999H547.577V0.499987H545.577V2.49999ZM509.037 16.14V182.9H513.037V16.14H509.037ZM511.037 180.9H501.797V184.9H511.037V180.9ZM499.797 182.9V195H503.797V182.9H499.797ZM501.797 197H523.357V193H501.797V197ZM525.357 195V16.14H521.357V195H525.357ZM525.357 16.14C525.357 16.2297 525.334 16.3375 525.238 16.4604C525.126 16.6049 524.855 16.82 524.457 16.82V12.82C523.398 12.82 522.578 13.3651 522.081 14.0046C521.6 14.6224 521.357 15.3903 521.357 16.14H525.357ZM524.457 16.82H533.257V12.82H524.457V16.82ZM531.257 14.82V195H535.257V14.82H531.257ZM533.257 197H545.577V193H533.257V197ZM547.577 195V2.49999H543.577V195H547.577ZM545.577 0.499987H524.457V4.49999H545.577V0.499987ZM524.457 0.499987C516.071 0.499987 509.037 7.57654 509.037 16.14H513.037C513.037 9.74343 518.322 4.49999 524.457 4.49999V0.499987ZM588.728 182.9V184.9H590.728V182.9H588.728ZM578.608 182.9H576.608V184.9H578.608V182.9ZM578.608 52.88L577.194 51.4658L576.608 52.0516V52.88H578.608ZM588.728 42.76H590.728V37.9316L587.314 41.3458L588.728 42.76ZM566.508 34.62H564.508V39.4484L567.922 36.0342L566.508 34.62ZM578.608 22.52L580.022 23.9342L580.608 23.3484V22.52H578.608ZM578.608 14.82V12.82H576.608V14.82H578.608ZM588.728 14.82H590.728V12.82H588.728V14.82ZM588.728 26.7L590.142 28.1142L590.728 27.5284V26.7H588.728ZM566.508 48.92L565.094 47.5058L564.508 48.0916V48.92H566.508ZM566.508 195H564.508V197H566.508V195ZM600.828 195V197H602.828V195H600.828ZM600.828 2.49999H602.828V0.499987H600.828V2.49999ZM566.508 2.49999V0.499987H564.508V2.49999H566.508ZM588.728 180.9H578.608V184.9H588.728V180.9ZM580.608 182.9V52.88H576.608V182.9H580.608ZM580.022 54.2942L590.142 44.1742L587.314 41.3458L577.194 51.4658L580.022 54.2942ZM586.728 42.76V182.9H590.728V42.76H586.728ZM567.922 36.0342L580.022 23.9342L577.194 21.1058L565.094 33.2058L567.922 36.0342ZM580.608 22.52V14.82H576.608V22.52H580.608ZM578.608 16.82H588.728V12.82H578.608V16.82ZM586.728 14.82V26.7H590.728V14.82H586.728ZM587.314 25.2858L565.094 47.5058L567.922 50.3342L590.142 28.1142L587.314 25.2858ZM564.508 48.92V195H568.508V48.92H564.508ZM566.508 197H600.828V193H566.508V197ZM602.828 195V2.49999H598.828V195H602.828ZM600.828 0.499987H566.508V4.49999H600.828V0.499987ZM564.508 2.49999V34.62H568.508V2.49999H564.508ZM644.2 47.6L645.615 49.0142L646.2 48.4284V47.6H644.2ZM634.08 57.72H632.08V62.5484L635.495 59.1342L634.08 57.72ZM634.08 2.49999H636.08V0.499987H634.08V2.49999ZM621.98 2.49999V0.499987H619.98V2.49999H621.98ZM621.98 195H619.98V197H621.98V195ZM634.08 195V197H636.08V195H634.08ZM634.08 74.88L632.682 73.4503L632.08 74.0387V74.88H634.08ZM644.2 64.98H646.2V60.2256L642.802 63.5503L644.2 64.98ZM644.2 195H642.2V197H644.2V195ZM656.3 195V197H658.3V195H656.3ZM656.3 2.49999H658.3V0.499987H656.3V2.49999ZM644.2 2.49999V0.499987H642.2V2.49999H644.2ZM642.786 46.1858L632.666 56.3058L635.495 59.1342L645.615 49.0142L642.786 46.1858ZM636.08 57.72V2.49999H632.08V57.72H636.08ZM634.08 0.499987H621.98V4.49999H634.08V0.499987ZM619.98 2.49999V195H623.98V2.49999H619.98ZM621.98 197H634.08V193H621.98V197ZM636.08 195V74.88H632.08V195H636.08ZM635.479 76.3097L645.599 66.4097L642.802 63.5503L632.682 73.4503L635.479 76.3097ZM642.2 64.98V195H646.2V64.98H642.2ZM644.2 197H656.3V193H644.2V197ZM658.3 195V2.49999H654.3V195H658.3ZM656.3 0.499987H644.2V4.49999H656.3V0.499987ZM642.2 2.49999V47.6H646.2V2.49999H642.2ZM699.673 55.3V57.3H701.673V55.3H699.673ZM689.553 55.3H687.553V57.3H689.553V55.3ZM689.553 2.49999H691.553V0.499987H689.553V2.49999ZM677.453 2.49999V0.499987H675.453V2.49999H677.453ZM677.453 195H675.453V197H677.453V195ZM689.553 195V197H691.553V195H689.553ZM689.553 67.4V65.4H687.553V67.4H689.553ZM699.673 67.4H701.673V65.4H699.673V67.4ZM699.673 195H697.673V197H699.673V195ZM711.773 195V197H713.773V195H711.773ZM711.773 2.49999H713.773V0.499987H711.773V2.49999ZM699.673 2.49999V0.499987H697.673V2.49999H699.673ZM699.673 53.3H689.553V57.3H699.673V53.3ZM691.553 55.3V2.49999H687.553V55.3H691.553ZM689.553 0.499987H677.453V4.49999H689.553V0.499987ZM675.453 2.49999V55.3H679.453V2.49999H675.453ZM675.453 55.3V67.4H679.453V55.3H675.453ZM675.453 67.4V195H679.453V67.4H675.453ZM677.453 197H689.553V193H677.453V197ZM691.553 195V67.4H687.553V195H691.553ZM689.553 69.4H699.673V65.4H689.553V69.4ZM697.673 67.4V195H701.673V67.4H697.673ZM699.673 197H711.773V193H699.673V197ZM713.773 195V67.4H709.773V195H713.773ZM713.773 67.4V55.3H709.773V67.4H713.773ZM713.773 55.3V2.49999H709.773V55.3H713.773ZM711.773 0.499987H699.673V4.49999H711.773V0.499987ZM697.673 2.49999V55.3H701.673V2.49999H697.673Z" fill="white"/>
</svg>
