<?xml version="1.0" standalone="no"?>
<!DOCTYPE svg PUBLIC "-//W3C//DTD SVG 1.1//EN" "http://www.w3.org/Graphics/SVG/1.1/DTD/svg11.dtd" >
<svg xmlns="http://www.w3.org/2000/svg" xmlns:xlink="http://www.w3.org/1999/xlink" version="1.1">
<metadata>
Created by FontForge 20190801 at Wed Apr 17 00:37:47 2019
 By Jimmy Wärting
Wolfy Design
</metadata>
<defs>
<font id="Lazar1389-Regular" horiz-adv-x="202" >
  <font-face 
    font-family="Lazar 1389-FREE"
    font-weight="500"
    font-stretch="normal"
    units-per-em="1000"
    panose-1="0 0 0 0 0 0 0 0 0 0"
    ascent="800"
    descent="-200"
    cap-height="875"
    bbox="-0.000976562 -158.716 300.368 875.001"
    underline-thickness="0"
    underline-position="0"
    unicode-range="U+000D-0428"
  />
<missing-glyph horiz-adv-x="650" 
 />
    <glyph glyph-name=".notdef" horiz-adv-x="650" 
 />
    <glyph glyph-name="controlCR" unicode="&#xd;" horiz-adv-x="75" 
 />
    <glyph glyph-name="space" unicode=" " horiz-adv-x="75" 
 />
    <glyph glyph-name="zero" unicode="0" 
d="M101.076 55.6025v763.795h-39.9004c-3.07617 0 -5.57031 -2.49414 -5.57031 -5.57031v-758.225h45.4707zM156.679 875l0.00292969 -875h-156.682l0.00292969 813.848c0 33.7734 27.3789 61.1523 61.1523 61.1523h95.5234z" />
    <glyph glyph-name="one" unicode="1" horiz-adv-x="156" 
d="M0 819.397v55.6025h111.205v-875h-55.6025v819.397h-55.6025z" />
    <glyph glyph-name="two" unicode="2" 
d="M0 875l156.681 -0.000976562v-272.294l-101.076 -101.078v-446.025h45.4736v427.189l55.6025 55.6035l0.000976562 -538.395h-156.682l0.000976562 524.659l101.076 101.076v193.662h-45.4736v-174.826l-55.6025 -55.6035z" />
    <glyph glyph-name="three" unicode="3" 
d="M0 599.104v275.897h156.676v-262.17l-44.0918 -44.0859l44.0918 -44.0859v-524.659h-156.676v538.386l55.6025 -55.6025v-427.181h45.4707v446.022l-67.1201 67.1191l67.1201 67.1201v183.532h-45.4707v-164.69z" />
    <glyph glyph-name="four" unicode="4" 
d="M101.073 327.905v547.095h55.6025v-875h-55.6025v249.271l-101.073 101.07v524.659h55.6025v-501.625z" />
    <glyph glyph-name="five" unicode="5" 
d="M0.000976562 875l156.681 0.000976562l-0.000976562 -286.032l-55.6025 55.6035v174.826h-45.4736v-193.662l101.076 -101.076l0.000976562 -524.659h-156.682l0.000976562 538.395l55.6025 -55.6035v-427.189h45.4736v446.025l-101.076 101.078v272.294z" />
    <glyph glyph-name="six" unicode="6" 
d="M101.079 517.141l-45.4756 45.4756v-507.014h45.4756v461.538zM0 875l156.681 0.000976562v-275.889l-55.6025 55.6025v164.683h-45.4756v-183.525l101.079 -101.073v-534.799h-156.682v875z" />
    <glyph glyph-name="seven" unicode="7" 
d="M0 612.83l-0.000976562 262.17h156.682v-875h-55.6025v819.397h-45.4756v-152.539z" />
    <glyph glyph-name="eight" unicode="8" 
d="M55.6055 250.347v-194.744h45.4707v149.274zM55.6055 819.398v-490.416l45.4707 -45.4707v535.887h-45.4707zM0.00292969 0.000976562l-0.00292969 875h156.682l-0.00292969 -875h-156.676z" />
    <glyph glyph-name="nine" unicode="9" 
d="M101.076 312.383v507.014h-45.4707v-461.538zM0.00292969 340.2l-0.00292969 534.8h156.682l-0.00292969 -875h-156.677v275.889l55.6035 -55.6035v-164.684h45.4707v183.528z" />
    <glyph glyph-name="nonbreakingspace" unicode="&#xa0;" horiz-adv-x="75" 
 />
    <glyph glyph-name="uni402" unicode="&#x402;" 
d="M0 872.962l101.074 -0.00195312h55.6025v-275.889l-55.6006 55.6025l-0.00292969 164.684h-45.4707v-183.528l101.073 -101.07v-691.475l-156.676 156.677v78.626v197.624l55.6025 -55.5938v-197.633l45.4707 -45.4707v539.589l-45.4707 45.4756v-276.287
l-55.6025 55.5947v533.076z" />
    <glyph glyph-name="uni408" unicode="&#x408;" 
d="M0 275.889l55.6035 -54.0283v-166.258h45.4756v819.397h55.6025v-875h-156.682v275.889z" />
    <glyph glyph-name="uni409" unicode="&#x409;" horiz-adv-x="345" 
d="M244.767 517.141l-45.4766 45.4756v-507.014h45.4766v461.538zM199.29 875l-0.000976562 -239.128l101.079 -101.074v-534.799h-101.079h-55.6025v819.397h-39.916c-3.06738 0 -5.55957 -2.49219 -5.55957 -5.55957v-813.838h-98.2119v55.6035h42.6094v758.234
c0 33.7256 27.4375 61.1631 61.1631 61.1631h39.916h55.6025z" />
    <glyph glyph-name="uni40a" unicode="&#x40a;" horiz-adv-x="303" 
d="M202.152 55.6035v461.538l-45.4766 45.4756v-507.014h45.4766zM156.679 635.873v-0.00292969l101.076 -101.071v-534.799h-156.682v580.27h-45.4707v-580.27h-55.6025v875h55.6025v-239.127h45.4707v239.127h55.6025v-239.127h0.00292969z" />
    <glyph glyph-name="uni40b" unicode="&#x40b;" 
d="M0 875l101.074 0.000976562h55.6035v-275.889l-55.6035 55.6025v164.684h-45.4697v-183.528l101.073 -101.07v-534.799h-55.6035v517.141l-45.4707 45.4756v-562.617h-55.6035v875z" />
    <glyph glyph-name="uni40f" unicode="&#x40f;" horiz-adv-x="207" 
d="M101.073 53.5654l0.000976562 819.397h55.6025v-875h-50.5371v-156.678h-55.6025v156.678h-50.5371v875h55.6025v-819.397h45.4707z" />
    <glyph glyph-name="uni410" unicode="&#x410;" 
d="M101.079 55.6035v636.506l-45.4756 -45.4766v-591.029h45.4756zM0 729.773l-0.000976562 145.227h156.682v-875h-156.682v664.291l101.079 101.073v54.0332h-45.4756v-34.5156z" />
    <glyph glyph-name="uni411" unicode="&#x411;" 
d="M101.079 517.141l-45.4756 45.4756v-507.014h45.4756v461.538zM55.6035 875l45.4756 0.000976562h55.6025v-55.6025v-220.286l-55.6025 55.6025v164.684h-45.4756v-183.525l101.079 -101.074v-534.799h-156.682v819.397v55.6025h55.6025z" />
    <glyph glyph-name="uni412" unicode="&#x412;" 
d="M101.073 635.864v183.533h-45.4707v-164.69v-64.3125zM101.073 55.6025v446.022l-45.4707 45.4707v-491.493h45.4707zM156.676 875v-262.169l-44.0918 -44.0859l44.0918 -44.0859v-524.659h-156.676v599.104v275.896h156.676z" />
    <glyph glyph-name="uni413" unicode="&#x413;" 
d="M156.682 599.111l-55.6035 54.0283v166.258h-45.4756v-819.397h-55.6025v875h156.682v-275.889z" />
    <glyph glyph-name="uni414" unicode="&#x414;" horiz-adv-x="287" 
d="M98.2119 55.6035h45.4756v763.794h-39.916c-3.06738 0 -5.55957 -2.49219 -5.55957 -5.55957v-758.234zM199.291 875l-0.000976562 -819.397h42.6094v-55.6035h-42.6094h-55.6025h-45.4756h-98.2119v55.6035h42.6094v758.234c0 33.7256 27.4375 61.1631 61.1631 61.1631
h95.5186z" />
    <glyph glyph-name="uni415" unicode="&#x415;" 
d="M101.073 819.397l-45.4707 -0.000976562v-501.635l45.4707 45.4707v456.165zM-0 -0.000976562v875.001h156.676v-456.164v-78.6348l-55.6025 -55.6035l-45.4707 -45.4707v-183.525h45.4707v164.69l55.6025 55.6035v-275.896h-156.676z" />
    <glyph glyph-name="uni416" unicode="&#x416;" horiz-adv-x="303" 
d="M202.146 635.864v239.137h55.6025v-262.17l-44.0918 -44.0859l44.0918 -44.0859v-524.659h-55.6025v501.625l-45.4707 45.4707v-547.096h-55.6025v547.096l-45.4707 -45.4707v-501.625h-55.6025v524.659l44.0918 44.0859l-44.0918 44.0859v262.17h55.6025v-239.136
l45.4707 -45.4707v284.605h55.6025v-284.605z" />
    <glyph glyph-name="uni417" unicode="&#x417;" 
d="M0 597.066v275.897h156.676v-262.17l-44.0918 -44.0859l44.0918 -44.0859v-681.335l-156.676 156.677v538.386l55.6025 -55.6035v-459.76l45.4707 -45.4707v524.072l-67.1201 67.1201l67.1201 67.1191v183.533h-45.4707v-164.69z" />
    <glyph glyph-name="uni418" unicode="&#x418;" 
d="M101.073 670.123v204.876h55.6025v-875h-55.6025v591.489l-45.4707 -45.4707v-546.019h-55.6025v875h55.6025v-250.347z" />
    <glyph glyph-name="uni41a" unicode="&#x41a;" 
d="M101.073 635.864v239.137h55.6025v-262.17l-44.0908 -44.0859l44.0908 -44.0859v-524.659h-55.6025v501.625l-45.4707 45.4707v-547.096h-55.6025v875h55.6025v-284.605z" />
    <glyph glyph-name="uni41b" unicode="&#x41b;" horiz-adv-x="244" 
d="M42.6094 813.838c0 33.7256 27.4365 61.1621 61.1621 61.1621h95.5186v-875h-55.6025v819.397h-39.916c-3.06836 0 -5.56055 -2.49219 -5.56055 -5.55957v-813.838h-98.2109v55.6035h42.6094v758.234z" />
    <glyph glyph-name="uni41c" unicode="&#x41c;" horiz-adv-x="303" 
d="M172.961 875h29.1875h55.6035v-55.6025v-206.567v-88.1719v-524.659h-55.6035v501.625v134.239v183.533h-6.15234l-39.3184 -39.3184v-780.079h-55.6035v780.079l-39.3184 39.3184h-6.15234v-183.533v-134.239v-501.625h-55.6035v524.659v88.1719v206.567v55.6025
h55.6035h29.1855l44.0859 -44.0908z" />
    <glyph glyph-name="uni41d" unicode="&#x41d;" 
d="M101.073 635.873v239.127h55.6025v-239.127v-55.6035v-580.27h-55.6025v580.27h-45.4707v-580.27h-55.6025v580.27v55.6035v239.127h55.6025v-239.127h45.4707z" />
    <glyph glyph-name="uni41e" unicode="&#x41e;" 
d="M61.1738 819.397c-3.07715 0 -5.57129 -2.49316 -5.57129 -5.57031v-758.224h45.4707v763.794h-39.8994zM0 0.000976562v813.848c-0 33.7734 27.3789 61.1523 61.1523 61.1523h95.5234v-875h-156.676z" />
    <glyph glyph-name="uni41f" unicode="&#x41f;" 
d="M0 0v875h156.676v-875h-55.6025v819.397h-45.4707v-819.397h-55.6025z" />
    <glyph glyph-name="uni420" unicode="&#x420;" 
d="M55.6025 819.397v-636.505l45.4766 45.4756v591.029h-45.4766zM-0 0.000976562v875h156.682v-664.29l-101.079 -101.073v-109.637h-55.6025z" />
    <glyph glyph-name="uni421" unicode="&#x421;" 
d="M0 0v875h156.676v-275.896l-55.6025 55.6035v164.69h-45.4707v-763.795h45.4707v533.615l55.6025 -55.6025v-533.616h-156.676z" />
    <glyph glyph-name="uni422" unicode="&#x422;" 
d="M0 819.397l0.000976562 55.6025h156.676v-55.6025h-50.5371v-819.397h-55.6025v819.397h-50.5371z" />
    <glyph glyph-name="uni423" unicode="&#x423;" 
d="M156.677 0l-101.073 -0.000976562h-55.6035v275.889l55.6035 -55.6025v-164.684h45.4697v183.528l-101.073 101.07v534.799h55.6035v-517.141l45.4697 -45.4756v562.617h55.6035v-875z" />
    <glyph glyph-name="uni424" unicode="&#x424;" horiz-adv-x="303" 
d="M202.157 646.632l-45.4756 45.4766v-618.853l45.4756 45.4756v527.9zM101.078 73.2559v618.853l-45.4756 -45.4766v-527.9zM156.682 875v-109.636l101.079 -101.073v-563.218l-101.079 -101.073h-55.6035l-101.078 101.073v563.218l101.078 101.073v109.636h55.6035z" />
    <glyph glyph-name="uni425" unicode="&#x425;" 
d="M101.073 635.864v239.136h55.6035v-262.17l-44.0908 -44.0859l44.0908 -44.0859v-524.659h-55.6035v501.625l-22.7354 22.7354l-22.7344 -22.7354v-501.625h-55.6035v524.659l44.0908 44.0859l-44.0908 44.0859v262.17h55.6035v-239.136l22.7344 -22.7344z" />
    <glyph glyph-name="uni426" unicode="&#x426;" horiz-adv-x="262" 
d="M156.676 872.964v-819.397h55.6025v-212.281h-55.6025v156.678h-156.676v875.001h55.6025v-819.397h45.4707v819.396z" />
    <glyph glyph-name="uni427" unicode="&#x427;" horiz-adv-x="207" 
d="M156.677 0l-55.6035 -0.000976562v231.776l-101.073 101.07v542.154h55.6035v-524.496l45.4697 -45.4756v569.973h55.6035v-875.001z" />
    <glyph glyph-name="uni428" unicode="&#x428;" horiz-adv-x="308" 
d="M202.146 875h55.6025v-875h-101.073h-55.6025h-101.073v875h55.6025v-819.397h45.4707v819.397h55.6025v-819.397h45.4707v819.397z" />
  </font>
</defs>
</svg>
