<svg width="18" height="18" viewBox="0 0 18 18" fill="none" xmlns="http://www.w3.org/2000/svg">
<path fill-rule="evenodd" clip-rule="evenodd" d="M16.8641 15.8231C16.8457 14.4035 16.0183 13.1191 14.7333 12.5154V8.49231C14.7786 5.72404 12.7645 3.35123 10.0257 2.94615C8.48444 2.7508 6.93395 3.23063 5.77249 4.26239C4.61102 5.29415 3.95178 6.77727 3.96412 8.33077V12.3846C2.46907 12.8874 1.45848 14.2843 1.44873 15.8615C1.45446 16.1113 1.56205 16.3479 1.74653 16.5164C1.93102 16.6849 2.17637 16.7707 2.42565 16.7538H15.9487C16.1935 16.7518 16.4275 16.6526 16.5992 16.4781C16.7709 16.3035 16.8662 16.0679 16.8641 15.8231ZM8.57956 4.52309C9.71131 4.29207 10.887 4.58193 11.7816 5.31256C12.6763 6.0432 13.1952 7.13723 13.1949 8.29232V12.1385H5.50264V8.45386C5.46096 6.57792 6.74851 4.93309 8.57956 4.52309ZM3.11058 15.2154C3.38327 14.3007 4.22538 13.6746 5.17981 13.6769H13.1952C14.1488 13.6772 14.9895 14.3023 15.2644 15.2154H3.11058Z" fill="white"/>
<path fill-rule="evenodd" clip-rule="evenodd" d="M10.1181 1.6923V0.92307C10.1181 0.498235 9.77366 0.153839 9.34882 0.153839C8.92399 0.153839 8.57959 0.498235 8.57959 0.92307V1.6923C8.57959 2.11714 8.92399 2.46153 9.34882 2.46153C9.77366 2.46153 10.1181 2.11714 10.1181 1.6923Z" fill="white"/>
<path fill-rule="evenodd" clip-rule="evenodd" d="M10.1181 17.0769V16.3077C10.1181 15.8828 9.77366 15.5385 9.34882 15.5385C8.92399 15.5385 8.57959 15.8828 8.57959 16.3077V17.0769C8.57959 17.5017 8.92399 17.8461 9.34882 17.8461C9.77366 17.8461 10.1181 17.5017 10.1181 17.0769Z" fill="white"/>
<path fill-rule="evenodd" clip-rule="evenodd" d="M3.33332 3.06923C3.47775 3.21485 3.67437 3.29677 3.87947 3.29677C4.08458 3.29677 4.28119 3.21485 4.42562 3.06923C4.72387 2.7692 4.72387 2.28464 4.42562 1.98461L3.87947 1.43846C3.73504 1.29283 3.53842 1.21092 3.33332 1.21092C3.12821 1.21092 2.9316 1.29283 2.78716 1.43846C2.48891 1.73849 2.48891 2.22305 2.78716 2.52307L3.33332 3.06923Z" fill="white"/>
<path fill-rule="evenodd" clip-rule="evenodd" d="M1.48717 6.45384L2.2564 6.65384C2.66016 6.74791 3.06583 6.50509 3.17368 6.10479C3.28154 5.70449 3.05276 5.29073 2.6564 5.16922L1.88717 4.96922C1.47732 4.86174 1.05772 5.10593 0.948708 5.51538C0.840696 5.9229 1.08084 6.34143 1.48717 6.45384Z" fill="white"/>
<path fill-rule="evenodd" clip-rule="evenodd" d="M16.464 6.70769L17.2332 6.50769C17.6296 6.38618 17.8583 5.97242 17.7505 5.57212C17.6426 5.17182 17.2369 4.929 16.8332 5.02307L16.064 5.22307C15.6676 5.34458 15.4388 5.75834 15.5467 6.15864C15.6545 6.55893 16.0602 6.80175 16.464 6.70769Z" fill="white"/>
<path fill-rule="evenodd" clip-rule="evenodd" d="M14.6485 3.06923L15.1947 2.52307C15.4929 2.22305 15.4929 1.73849 15.1947 1.43846C15.0502 1.29283 14.8536 1.21092 14.6485 1.21092C14.4434 1.21092 14.2468 1.29283 14.1024 1.43846L13.5562 1.98461C13.258 2.28464 13.258 2.7692 13.5562 3.06923C13.7006 3.21485 13.8973 3.29677 14.1024 3.29677C14.3075 3.29677 14.5041 3.21485 14.6485 3.06923Z" fill="white"/>
</svg>
