<svg width="16" height="15" viewBox="0 0 16 15" fill="none" xmlns="http://www.w3.org/2000/svg">
<path fill-rule="evenodd" clip-rule="evenodd" d="M4.20975 2.90829H15.1159C15.3645 2.90497 15.6027 3.00787 15.7707 3.19114C15.9387 3.37442 16.0205 3.62066 15.9956 3.86803L15.2685 10.8479C15.2277 11.2888 14.8606 11.6276 14.4179 11.6332H5.21312C4.7899 11.6315 4.43001 11.3239 4.36244 10.9061L2.90829 3.79532L2.34845 1.45415H0.727073C0.325522 1.45415 0 1.12863 0 0.727073C0 0.325522 0.325522 0 0.727073 0H2.79923C3.19507 0.0072874 3.53728 0.278079 3.63537 0.661637L4.20975 2.90829ZM5.69289 10.179H13.8943L14.4759 4.36244H4.52958L5.69289 10.179Z" fill="white"/>
<path d="M6.91434 14.5415C7.51667 14.5415 8.00495 14.0532 8.00495 13.4509C8.00495 12.8485 7.51667 12.3602 6.91434 12.3602C6.31201 12.3602 5.82373 12.8485 5.82373 13.4509C5.82373 14.0532 6.31201 14.5415 6.91434 14.5415Z" fill="white"/>
<path d="M12.0037 14.5415C12.606 14.5415 13.0943 14.0532 13.0943 13.4509C13.0943 12.8485 12.606 12.3602 12.0037 12.3602C11.4014 12.3602 10.9131 12.8485 10.9131 13.4509C10.9131 14.0532 11.4014 14.5415 12.0037 14.5415Z" fill="white"/>
</svg>
