<svg width="12" height="12" viewBox="0 0 12 12" fill="none" xmlns="http://www.w3.org/2000/svg">
<path d="M8.46532e-06 5.96685C-0.00170418 5.62509 0.256648 5.33803 0.596693 5.30386H11.337C11.7032 5.30386 12 5.60069 12 5.96685C12 6.333 11.7032 6.62983 11.337 6.62983H0.596693C0.256648 6.59566 -0.00170418 6.3086 8.46532e-06 5.96685Z" fill="#1E61EB"/>
<path d="M5.96718 8.46532e-06C6.30894 -0.00170418 6.59599 0.256648 6.63017 0.596693V11.337C6.63017 11.7032 6.33334 12 5.96718 12C5.60103 12 5.3042 11.7032 5.3042 11.337V0.596693C5.33837 0.256648 5.62543 -0.00170418 5.96718 8.46532e-06Z" fill="#1E61EB"/>
</svg>
