<svg width="16" height="18" viewBox="0 0 16 18" fill="none" xmlns="http://www.w3.org/2000/svg">
<path fill-rule="evenodd" clip-rule="evenodd" d="M10.96 8.57868C12.5719 7.31603 13.2053 5.16993 12.5375 3.23438C11.8696 1.29882 10.0475 0 8 0C5.95247 0 4.13036 1.29882 3.46251 3.23438C2.79466 5.16993 3.42813 7.31603 5.04 8.57868C1.99965 9.78954 0.00337721 12.7301 0 16.0027V16.8027C0 17.2445 0.358172 17.6027 0.8 17.6027C1.24183 17.6027 1.6 17.2445 1.6 16.8027V16.0027C1.6 12.4681 4.46538 9.60268 8 9.60268C11.5346 9.60268 14.4 12.4681 14.4 16.0027V16.8027C14.4 17.2445 14.7582 17.6027 15.2 17.6027C15.6418 17.6027 16 17.2445 16 16.8027V16.0027C15.9966 12.7301 14.0003 9.78954 10.96 8.57868ZM4.79991 4.80264C4.79991 3.03533 6.2326 1.60264 7.99991 1.60264C9.76722 1.60264 11.1999 3.03533 11.1999 4.80264C11.1999 6.56995 9.76722 8.00264 7.99991 8.00264C7.15122 8.00264 6.33729 7.6655 5.73717 7.06538C5.13706 6.46526 4.79991 5.65133 4.79991 4.80264Z" fill="#CDD6E6"/>
</svg>
