<svg width="18" height="19" viewBox="0 0 18 19" fill="none" xmlns="http://www.w3.org/2000/svg">
<path d="M0.354137 17.6459C-0.118046 17.1709 -0.118046 16.4037 0.354137 15.9287L15.8571 0.425724C16.1548 0.0781839 16.6221 -0.0731997 17.0669 0.0338134C17.5118 0.140826 17.8592 0.488175 17.9662 0.933049C18.0732 1.37792 17.9218 1.84524 17.5743 2.14287L2.07128 17.6459C1.59628 18.118 0.829136 18.118 0.354137 17.6459Z" fill="#B8BED3"/>
<path d="M0.354137 0.425731C0.829136 -0.0464513 1.59628 -0.0464513 2.07128 0.425731L17.5743 15.9287C17.9218 16.2264 18.0732 16.6937 17.9662 17.1385C17.8592 17.5834 17.5118 17.9308 17.0669 18.0378C16.6221 18.1448 16.1548 17.9934 15.8571 17.6459L0.354137 2.14287C-0.118046 1.66787 -0.118046 0.900731 0.354137 0.425731Z" fill="#B8BED3"/>
</svg>
