<svg width="16" height="14" viewBox="0 0 16 14" fill="none" xmlns="http://www.w3.org/2000/svg">
<path fill-rule="evenodd" clip-rule="evenodd" d="M12.989 2.90908C13.2737 2.90093 13.5446 3.031 13.7163 3.25817L15.8254 6.07271C15.9406 6.22274 16.0021 6.40716 15.9999 6.59634V10.7636C15.9999 11.2456 15.6092 11.6363 15.1272 11.6363H13.0909C13.0497 11.6398 13.0084 11.6398 12.9672 11.6363C12.657 12.5044 11.8346 13.0839 10.9127 13.0839C9.99081 13.0839 9.16841 12.5044 8.85815 11.6363H6.41452C6.10134 12.4992 5.28157 13.0738 4.36362 13.0738C3.44567 13.0738 2.6259 12.4992 2.31272 11.6363H2.18181C0.97683 11.6363 0 10.6595 0 9.45451V2.18181C0 0.97683 0.97683 0 2.18181 0H9.45451C10.6595 0 11.6363 0.97683 11.6363 2.18181V2.90908H12.989ZM3.63635 10.9091C3.63635 11.3107 3.96196 11.6363 4.36362 11.6363C4.76528 11.6363 5.09089 11.3107 5.09089 10.9091C5.09089 10.5074 4.76528 10.1818 4.36362 10.1818C3.96196 10.1818 3.63635 10.5074 3.63635 10.9091ZM10.9091 11.6363C10.5074 11.6363 10.1818 11.3107 10.1818 10.9091C10.1818 10.5074 10.5074 10.1818 10.9091 10.1818C11.3107 10.1818 11.6363 10.5074 11.6363 10.9091C11.6363 11.3107 11.3107 11.6363 10.9091 11.6363ZM13.0909 10.1818H14.5454V6.78543L12.7272 4.36362H11.6363V7.2727C11.6363 7.67436 11.3107 7.99997 10.9091 7.99997C10.5074 7.99997 10.1818 7.67436 10.1818 7.2727V2.18181C10.1818 1.78015 9.85617 1.45454 9.45451 1.45454H2.18181C1.78015 1.45454 1.45454 1.78015 1.45454 2.18181V9.45451C1.45454 9.85617 1.78015 10.1818 2.18181 10.1818H2.31272C2.6259 9.31891 3.44567 8.74435 4.36362 8.74435C5.28157 8.74435 6.10134 9.31891 6.41452 10.1818H8.85815C9.16841 9.31367 9.99081 8.73425 10.9127 8.73425C11.8346 8.73425 12.657 9.31367 12.9672 10.1818C13.0084 10.1783 13.0497 10.1783 13.0909 10.1818Z" fill="#CDD6E6"/>
</svg>
