<svg width="16" height="16" viewBox="0 0 16 16" fill="none" xmlns="http://www.w3.org/2000/svg">
<path fill-rule="evenodd" clip-rule="evenodd" d="M7.96002 5.0656C6.36138 5.0656 5.06543 6.36155 5.06543 7.96019C5.06543 9.55882 6.36138 10.8548 7.96002 10.8548C9.55866 10.8548 10.8546 9.55882 10.8546 7.96019C10.8546 7.19249 10.5496 6.45624 10.0068 5.9134C9.46396 5.37056 8.72771 5.0656 7.96002 5.0656ZM7.96013 9.40749C7.16081 9.40749 6.51283 8.75952 6.51283 7.9602C6.51283 7.16088 7.16081 6.5129 7.96013 6.5129C8.75945 6.5129 9.40742 7.16088 9.40742 7.9602C9.40742 8.75952 8.75945 9.40749 7.96013 9.40749Z" fill="#CDD6E6"/>
<path fill-rule="evenodd" clip-rule="evenodd" d="M14.0316 5.44914C14.6956 4.58429 14.6151 3.36109 13.8435 2.59074L13.3297 2.07695C12.5544 1.28425 11.3064 1.20313 10.4351 1.8888C10.2955 0.82289 9.39685 0.019647 8.32202 7.92922e-05H7.59838C6.50149 -0.00922407 5.57 0.801174 5.42743 1.8888C4.56258 1.2248 3.33939 1.30531 2.56903 2.07695L2.05524 2.59074C1.28361 3.36109 1.20309 4.58429 1.86709 5.44914C0.796311 5.60054 0.000243134 6.51695 7.92922e-05 7.59838V8.32202C-0.00922407 9.41891 0.801174 10.3504 1.8888 10.493C1.20313 11.3643 1.28425 12.6123 2.07695 13.3876L2.59074 13.9013C3.36109 14.673 4.58429 14.7535 5.44914 14.0895C5.5917 15.1771 6.5232 15.9875 7.62009 15.9782H8.34373C9.44062 15.9875 10.3721 15.1771 10.5147 14.0895C11.386 14.7752 12.634 14.694 13.4093 13.9013L13.9231 13.3876C14.7157 12.6123 14.7969 11.3643 14.1112 10.493C15.1988 10.3504 16.0092 9.41891 15.9999 8.32202V7.59838C15.9936 6.48259 15.1425 5.55327 14.0316 5.44914ZM14.4732 8.34373C14.4732 8.74339 14.1492 9.06738 13.7495 9.06738C13.2165 9.06432 12.7348 9.38458 12.5314 9.87727C12.3279 10.37 12.4434 10.9368 12.8233 11.3107C13.1039 11.5929 13.1039 12.0488 12.8233 12.331L12.3095 12.8448C12.0272 13.1254 11.5714 13.1254 11.2891 12.8448C10.918 12.4677 10.3565 12.3509 9.86574 12.5487C9.37503 12.7466 9.05155 13.2203 9.04584 13.7494C9.04584 14.149 8.72185 14.473 8.3222 14.473H7.59855C7.19889 14.473 6.8749 14.149 6.8749 13.7494C6.87796 13.2163 6.55769 12.7346 6.065 12.5312C5.57232 12.3278 5.00549 12.4432 4.63159 12.8231C4.34934 13.1037 3.8935 13.1037 3.61125 12.8231L3.09746 12.3021C2.81689 12.0198 2.81689 11.564 3.09746 11.2817C3.47214 10.9071 3.58424 10.3437 3.38148 9.8542C3.17871 9.36471 2.70102 9.04559 2.17119 9.04567C1.77153 9.04567 1.44754 8.72168 1.44754 8.32202V7.59837C1.44754 7.19871 1.77153 6.87473 2.17119 6.87473C2.70422 6.87778 3.18593 6.55752 3.38937 6.06483C3.5928 5.57214 3.47737 5.00531 3.09746 4.63142C2.82165 4.35003 2.82165 3.8997 3.09746 3.61831L3.61849 3.09729C3.90074 2.81671 4.35658 2.81671 4.63883 3.09729C5.01343 3.47197 5.57687 3.58407 6.06636 3.3813C6.55586 3.17854 6.87498 2.70084 6.8749 2.17102C6.8749 1.77136 7.19889 1.44737 7.59855 1.44737H8.3222C8.72185 1.44737 9.04584 1.77136 9.04584 2.17102C9.04278 2.70404 9.36305 3.18576 9.85574 3.38919C10.3484 3.59262 10.9153 3.47719 11.2891 3.09729C11.5714 2.81671 12.0272 2.81671 12.3095 3.09729L12.8233 3.61108C13.1039 3.89333 13.1039 4.34917 12.8233 4.63142C12.4434 5.00531 12.3279 5.57214 12.5314 6.06483C12.7348 6.55752 13.2165 6.87778 13.7495 6.87473C14.1492 6.87473 14.4732 7.19871 14.4732 7.59837V8.34373Z" fill="#CDD6E6"/>
</svg>
