<svg width="14" height="20" viewBox="0 0 14 20" fill="none" xmlns="http://www.w3.org/2000/svg">
<path fill-rule="evenodd" clip-rule="evenodd" d="M2.58303 6.79979L2.32083 6.35406L0.887514 3.98559C0.394953 3.17649 0.377094 2.16463 0.840797 1.33866C1.3045 0.512689 2.17766 0.0010482 3.12489 0.000259428H10.6149C11.9081 -0.0178094 13.0213 0.909884 13.2368 2.1852C13.3605 2.86846 13.1995 3.57259 12.7911 4.13416L11.1218 6.47642C11.1193 6.49381 11.1193 6.51147 11.1218 6.52885C12.9857 7.86864 14.063 10.0462 13.9971 12.3408C13.9983 14.2047 13.2223 15.9848 11.8559 17.2525C9.11913 19.8786 4.78771 19.8437 2.0936 17.1739C0.649219 15.8042 -0.112735 13.8641 0.0135385 11.8776C0.0968235 9.89341 1.03364 8.04208 2.58303 6.79979ZM1.76161 12.2184C1.76161 15.1145 4.10936 17.4623 7.00546 17.4623C9.90156 17.4623 12.2493 15.1145 12.2493 12.2184C12.2493 9.32233 9.90156 6.97458 7.00546 6.97458C4.10936 6.97458 1.76161 9.32233 1.76161 12.2184ZM9.40885 5.6811C7.6736 5.03566 5.7532 5.10481 4.06886 5.87337C3.95 5.6811 3.83673 5.48882 3.72346 5.29655C3.55356 5.00814 3.38366 4.71973 3.19489 4.43131L2.37335 3.07665C2.13856 2.69316 2.23308 2.19409 2.59184 1.92301C2.75026 1.80401 2.9444 1.74238 3.14245 1.74821H10.5712C10.9117 1.73167 11.2308 1.91464 11.3885 2.21689C11.5462 2.51913 11.5137 2.88548 11.3054 3.15531L9.55743 5.62866C9.52247 5.6811 9.48751 5.6811 9.40885 5.6811Z" fill="url(#paint0_linear)"/>
<path d="M6.48944 11.8164C6.36053 11.8639 6.22926 11.9047 6.09616 11.9388C5.73506 11.9784 5.38712 11.7905 5.22218 11.4668C5.05608 11.1367 5.11557 10.7378 5.37076 10.4705C5.79026 10.051 6.24473 9.59651 6.63802 9.21196C6.81114 9.02365 7.04153 8.8977 7.2935 8.85363C7.52416 8.82917 7.75508 8.8974 7.9354 9.0433C8.11572 9.18919 8.23065 9.40079 8.25487 9.63147C8.25487 9.69265 8.25487 9.74509 8.25487 9.80627V14.8753C8.27546 15.1827 8.13268 15.4782 7.87907 15.6532C7.61936 15.8639 7.26215 15.908 6.95902 15.7666C6.65588 15.6253 6.46 15.3234 6.45449 14.9889C6.45449 13.9664 6.45449 12.9526 6.45449 11.9388L6.48944 11.8164Z" fill="url(#paint1_linear)"/>
<defs>
<linearGradient id="paint0_linear" x1="3.18182" y1="16.2322" x2="13.541" y2="6.16042" gradientUnits="userSpaceOnUse">
<stop stop-color="#B139FE"/>
<stop offset="1" stop-color="#1E61EB"/>
</linearGradient>
<linearGradient id="paint1_linear" x1="5.8398" y1="14.7667" x2="9.16255" y2="12.787" gradientUnits="userSpaceOnUse">
<stop stop-color="#B139FE"/>
<stop offset="1" stop-color="#1E61EB"/>
</linearGradient>
</defs>
</svg>
