<svg width="14" height="14" viewBox="0 0 14 14" fill="none" xmlns="http://www.w3.org/2000/svg">
<path fill-rule="evenodd" clip-rule="evenodd" d="M12.0909 2.27453H11.4545V1.90544C11.4534 1.30752 11.1722 0.744667 10.6947 0.384713C10.2173 0.0247578 9.59879 -0.0907176 9.02364 0.0727168L1.73727 2.15363C1.62982 2.18721 1.5332 2.24869 1.45727 2.33181C0.603057 2.53988 0.00139898 3.30443 0 4.18363V11.82C0 12.8744 0.854729 13.7291 1.90909 13.7291H12.0909C13.1453 13.7291 14 12.8744 14 11.82V4.18363C14 3.12926 13.1453 2.27453 12.0909 2.27453ZM9.37351 1.29453C9.56932 1.23947 9.77965 1.28133 9.93945 1.40716C10.0993 1.53299 10.1893 1.72763 10.1817 1.93089V2.29998H5.95624L9.37351 1.29453ZM12.7272 8.63818H10.8181C10.4666 8.63818 10.1817 8.35327 10.1817 8.00182C10.1817 7.65037 10.4666 7.36546 10.8181 7.36546H12.7272V8.63818ZM12.7273 6.09272H10.9137C9.96827 6.06856 9.13958 6.72082 8.94095 7.64545C8.83473 8.20448 8.98342 8.78176 9.3465 9.21991C9.70958 9.65807 10.2492 9.91142 10.8182 9.9109H12.7273V11.82C12.7273 12.1714 12.4424 12.4564 12.0909 12.4564H1.90913C1.55768 12.4564 1.27277 12.1714 1.27277 11.82V4.18363C1.27277 3.83217 1.55768 3.54726 1.90913 3.54726H12.0909C12.4424 3.54726 12.7273 3.83217 12.7273 4.18363V6.09272Z" fill="#CDD6E6"/>
</svg>
