<svg width="16" height="15" viewBox="0 0 16 15" fill="none" xmlns="http://www.w3.org/2000/svg">
<path fill-rule="evenodd" clip-rule="evenodd" d="M8.81449 6.90365H8.70567C8.70567 6.88189 8.69116 6.83836 8.69116 6.83836V5.76468C8.69116 5.69213 8.72018 5.69213 8.75645 5.69213C8.9717 5.61456 9.18242 5.52495 9.3876 5.42371C10.4614 4.82639 11.0426 3.6175 10.8385 2.40579C10.6134 1.12216 9.56016 0.146046 8.26314 0.0190233C7.33684 -0.0888545 6.41688 0.266648 5.80383 0.969378C5.20517 1.60872 4.94894 2.4961 5.11464 3.35615C5.25533 4.49711 6.07739 5.43702 7.18946 5.7284C7.23178 5.73903 7.2597 5.77936 7.25475 5.82272V6.83111V6.91091H5.12189C4.9661 6.91068 4.81063 6.92525 4.6576 6.95444C3.70661 7.13757 2.99104 7.92706 2.90198 8.89142V9.45002H2.80767H1.93712C0.861975 9.56838 0.0369038 10.4583 0.000133194 11.5394V12.3519C-0.00412177 12.7287 0.0936406 13.0997 0.283063 13.4256C0.67848 14.1233 1.42555 14.547 2.2273 14.5283H5.07836C5.2322 14.5146 5.38491 14.4904 5.5354 14.4557C6.43695 14.2678 7.1226 13.5327 7.24749 12.6203C7.26562 12.3062 7.26562 11.9913 7.24749 11.6772C7.25013 11.5168 7.23799 11.3565 7.21122 11.1984C7.02924 10.262 6.25876 9.55332 5.31051 9.45002H4.44721H4.3529V9.03651C4.37962 8.65581 4.69672 8.36089 5.07836 8.36183H10.8966C11.1275 8.36522 11.343 8.47837 11.4769 8.66652C11.6041 8.90667 11.65 9.18161 11.6075 9.45002H11.4987H10.6427C9.70185 9.52935 8.91949 10.2062 8.70567 11.1258C8.62586 11.6208 8.62586 12.1253 8.70567 12.6203C8.84187 13.7164 9.77754 14.5367 10.8821 14.5283H13.7839C14.7852 14.5358 15.6625 13.8591 15.9095 12.8887C16.0097 12.3773 16.0268 11.8531 15.9603 11.3362C15.8441 10.4734 15.2248 9.76289 14.386 9.52982C14.1882 9.48453 13.9867 9.45781 13.7839 9.45002H13.0584V9.30493C13.0695 9.11163 13.0695 8.91786 13.0584 8.72456C12.8874 7.69003 12.003 6.92456 10.9546 6.90365H8.81449ZM5.07824 13.0773H3.62732H2.22717C2.01562 13.0929 1.80785 13.0151 1.65855 12.8644C1.50925 12.7137 1.43339 12.5052 1.45093 12.2938V11.6264C1.45093 11.2257 1.77573 10.9009 2.17639 10.9009H5.07824C5.4789 10.9009 5.8037 11.2257 5.8037 11.6264V12.3519C5.8037 12.7525 5.4789 13.0773 5.07824 13.0773ZM12.3329 13.0773H13.8273C14.2109 13.0543 14.5099 12.7361 14.5093 12.3519V11.6264C14.5093 11.2257 14.1845 10.9009 13.7838 10.9009H10.8819C10.5272 10.8952 10.2203 11.1468 10.1565 11.4958C10.1494 11.5973 10.1494 11.6991 10.1565 11.8005V12.3156C10.1465 12.5142 10.2186 12.7082 10.3557 12.8522C10.4928 12.9962 10.6831 13.0776 10.8819 13.0773H12.3329ZM7.98008 1.46994C8.7814 1.46994 9.431 2.11954 9.431 2.92086C9.431 3.72219 8.7814 4.37179 7.98008 4.37179C7.17875 4.37179 6.52915 3.72219 6.52915 2.92086C6.52915 2.11954 7.17875 1.46994 7.98008 1.46994Z" fill="#CDD6E6"/>
</svg>
