<svg width="16" height="18" viewBox="0 0 16 18" fill="none" xmlns="http://www.w3.org/2000/svg">
<path fill-rule="evenodd" clip-rule="evenodd" d="M13.6 0H2.296C1.02978 0.00438903 0.00438903 1.02978 0 2.296V15.2C0 16.5255 1.07452 17.6 2.4 17.6H13.6C14.9255 17.6 16 16.5255 16 15.2V2.4C16 1.07452 14.9255 0 13.6 0ZM12.7199 1.6C13.5005 1.56286 14.2007 2.0764 14.3999 2.832C14.5531 3.38715 14.3962 3.98181 13.989 4.38903C13.5817 4.79626 12.9871 4.95321 12.4319 4.8C11.6763 4.60081 11.1628 3.90053 11.1999 3.12V1.6H12.7199ZM9.59999 1.6V3.2C9.60221 3.71813 9.35339 4.20526 8.93231 4.50718C8.51122 4.80909 7.97 4.8884 7.47999 4.72C6.80257 4.48836 6.36148 3.83489 6.39999 3.12V1.6H9.59999ZM4.8 1.6V3.2C4.80222 3.71813 4.5534 4.20526 4.13231 4.50718C3.71122 4.80909 3.17 4.8884 2.68 4.72C2.0085 4.49 1.5688 3.84511 1.6 3.136V2.4C1.6 1.95817 1.95817 1.6 2.4 1.6H4.8ZM5.6 16V12C5.59935 11.2846 5.91785 10.6063 6.46867 10.1498C7.01949 9.6934 7.74521 9.50646 8.448 9.64C9.61038 9.8897 10.4304 10.9315 10.4 12.12V16H5.6ZM13.6 16H12V12C12.0002 10.7987 11.4606 9.66091 10.5301 8.90106C9.5997 8.1412 8.37702 7.83974 7.2 8.08C5.30345 8.50799 3.96747 10.208 4 12.152V16H2.4C1.95817 16 1.6 15.6418 1.6 15.2V5.968C2.5153 6.48735 3.62294 6.54081 4.584 6.112C4.9879 5.92941 5.34391 5.65555 5.624 5.312C6.38592 6.16449 7.54479 6.5457 8.664 6.312C9.34399 6.17255 9.95624 5.80576 10.4 5.272C10.8556 5.83348 11.4968 6.21368 12.208 6.344C12.9601 6.48477 13.7378 6.35138 14.4 5.968V15.2C14.4 15.6418 14.0418 16 13.6 16Z" fill="#CDD6E6"/>
</svg>
