<svg width="14" height="14" viewBox="0 0 14 14" fill="none" xmlns="http://www.w3.org/2000/svg">
<path fill-rule="evenodd" clip-rule="evenodd" d="M3.88308 12.4259H1.55323V1.55323H3.88308C4.08905 1.55323 4.28657 1.4714 4.43222 1.32575C4.57786 1.18011 4.65969 0.982587 4.65969 0.776616C4.65969 0.570644 4.57786 0.37312 4.43222 0.227477C4.28657 0.081833 4.08905 0 3.88308 0H0.776616C0.570644 0 0.37312 0.081833 0.227477 0.227477C0.081833 0.37312 0 0.570644 0 0.776616V13.2025C0 13.4084 0.081833 13.606 0.227477 13.7517C0.37312 13.8973 0.570644 13.9791 0.776616 13.9791H3.88308C4.08905 13.9791 4.28657 13.8973 4.43222 13.7517C4.57786 13.606 4.65969 13.4084 4.65969 13.2025C4.65969 12.9965 4.57786 12.7989 4.43222 12.6533C4.28657 12.5076 4.08905 12.4259 3.88308 12.4259ZM13.7539 6.43813L9.09416 1.77843C8.94586 1.63528 8.74677 1.55694 8.54069 1.56058C8.3346 1.56422 8.13842 1.64957 7.99527 1.79787C7.85212 1.94617 7.77373 2.14523 7.77737 2.35132C7.78101 2.55741 7.86638 2.75361 8.01468 2.89676L11.3463 6.22847H3.88308C3.67711 6.22847 3.47958 6.31026 3.33394 6.4559C3.1883 6.60155 3.10646 6.79912 3.10646 7.00509C3.10646 7.21106 3.1883 7.40854 3.33394 7.55418C3.47958 7.69982 3.67711 7.78171 3.88308 7.78171H13.2025C13.36 7.78595 13.5151 7.74219 13.6472 7.65619C13.7792 7.57019 13.882 7.446 13.9419 7.30021C14.0017 7.15441 14.0157 6.99388 13.9822 6.8399C13.9486 6.68592 13.869 6.54578 13.7539 6.43813ZM10.3756 9.10969L8.04573 11.0512C7.89022 11.1872 7.79509 11.3793 7.78126 11.5854C7.76742 11.7915 7.83603 11.9947 7.97197 12.1502C8.10791 12.3057 8.30005 12.4008 8.50613 12.4147C8.71222 12.4285 8.91536 12.3599 9.07087 12.2239L11.4007 10.2824C11.5562 10.1464 11.6514 9.95426 11.6652 9.74818C11.679 9.54209 11.6104 9.33895 11.4745 9.18344C11.3386 9.02794 11.1464 8.93288 10.9403 8.91904C10.7342 8.90521 10.5311 8.97375 10.3756 9.10969Z" fill="#CDD6E6"/>
</svg>
