<!-- Generated by IcoMoon.io -->
<svg version="1.1" xmlns="http://www.w3.org/2000/svg" width="28" height="32" viewBox="0 0 28 32">
<title>goods</title>
<path fill="#b139fe" d="M24.178 0c2.356 0 4.267 1.91 4.267 4.267v0 22.756c0 2.356-1.91 4.267-4.267 4.267h-19.911c-2.356 0-4.267-1.91-4.267-4.267v0-22.94c0.008-2.251 1.831-4.074 4.081-4.082h0.001zM19.911 2.844v2.702c-0.066 1.387 0.846 2.631 2.19 2.987 0.227 0.065 0.487 0.102 0.757 0.102 1.571 0 2.844-1.274 2.844-2.844 0-0.269-0.037-0.53-0.107-0.777l0.005 0.020c-0.356-1.344-1.6-2.258-2.987-2.19zM11.378 2.844v2.702c-0.001 0.021-0.001 0.046-0.001 0.071 0 1.571 1.274 2.845 2.845 2.845 1.546 0 2.805-1.234 2.844-2.771l0-0.004v-2.844zM4.267 2.844c-0.785 0-1.422 0.637-1.422 1.422v1.308c-0 0.017-0.001 0.037-0.001 0.057 0 1.571 1.274 2.845 2.845 2.845 1.551 0 2.813-1.242 2.844-2.785l0-0.003v-2.844zM18.489 28.444v-6.898c0.001-0.033 0.001-0.073 0.001-0.112 0-2.1-1.473-3.856-3.442-4.291l-0.029-0.005c-0.239-0.048-0.515-0.075-0.796-0.075-2.356 0-4.267 1.91-4.267 4.267 0 0.001 0 0.003 0 0.004v-0 7.111zM24.178 28.444c0.785 0 1.422-0.637 1.422-1.422v0-16.412c-0.817 0.481-1.801 0.766-2.85 0.766-0.37 0-0.732-0.035-1.082-0.103l0.036 0.006c-1.305-0.245-2.42-0.932-3.207-1.896l-0.008-0.010c-0.789 0.949-1.877 1.6-3.086 1.849-0.35 0.076-0.751 0.12-1.163 0.12-1.683 0-3.195-0.731-4.237-1.893l-0.005-0.005c-0.498 0.612-1.131 1.097-1.849 1.422-0.705 0.323-1.53 0.511-2.399 0.511-1.068 0-2.070-0.285-2.934-0.782l0.029 0.015v16.412c0 0.785 0.637 1.422 1.422 1.422h2.844v-6.841c-0.001-0.036-0.001-0.079-0.001-0.122 0-3.46 2.409-6.358 5.641-7.107l0.049-0.010c0.428-0.091 0.919-0.144 1.422-0.144 3.927 0 7.111 3.184 7.111 7.111 0 0 0 0.001 0 0.002v-0 7.111z"></path>
</svg>
