<!-- Generated by IcoMoon.io -->
<svg version="1.1" xmlns="http://www.w3.org/2000/svg" width="47" height="32" viewBox="0 0 47 32">
<title>headphones</title>
<path fill="#b139fe" d="M40.198 8.474c3.505 0 6.348 2.842 6.348 6.348v8.465c-0.002 3.504-2.843 6.345-6.348 6.345h-2.115c-3.506 0-6.348-2.842-6.348-6.348v0-8.463c0.012-1.414 0.495-2.784 1.376-3.892-1.592-3.954-5.395-6.693-9.839-6.693s-8.247 2.74-9.813 6.622l-0.025 0.071c0.879 1.105 1.364 2.479 1.376 3.892v8.465c-0.002 3.504-2.843 6.345-6.348 6.345h-2.115c-3.506 0-6.348-2.842-6.348-6.348v0-8.463c0-3.505 2.842-6.348 6.348-6.348h2.115c0.483 0.006 0.95 0.059 1.402 0.157l-0.046-0.008c2.4-5.132 7.519-8.624 13.455-8.624s11.055 3.492 13.416 8.533l0.038 0.091c0.406-0.088 0.873-0.141 1.352-0.145l0.003-0zM10.577 14.822c0-1.168-0.947-2.115-2.115-2.115h-2.115c-1.168 0-2.115 0.947-2.115 2.115v0 8.465c0 1.164 0.945 2.115 2.115 2.115h2.115c0 0 0 0 0 0 1.168 0 2.115-0.947 2.115-2.115 0-0.001 0-0.002 0-0.003v0zM40.198 25.402c0 0 0 0 0 0 1.168 0 2.115-0.947 2.115-2.115 0-0.001 0-0.002 0-0.003v0-8.463c0-1.168-0.947-2.115-2.115-2.115v0h-2.115c-1.168 0-2.115 0.947-2.115 2.115v0 8.465c0 1.164 0.945 2.115 2.115 2.115z"></path>
</svg>
