<!-- Generated by IcoMoon.io -->
<svg version="1.1" xmlns="http://www.w3.org/2000/svg" width="32" height="32" viewBox="0 0 32 32">
<title>settings</title>
<path fill="#b139fe" d="M20.022 11.836c1.106 1.056 1.794 2.543 1.794 4.19 0 3.198-2.592 5.79-5.79 5.79-1.647 0-3.134-0.688-4.188-1.792l-0.002-0.002c-0.99-1.037-1.6-2.445-1.6-3.996 0-3.198 2.592-5.79 5.79-5.79 1.551 0 2.959 0.61 3.998 1.602l-0.002-0.002zM18.824 15.93c0-1.599-1.296-2.895-2.895-2.895s-2.895 1.296-2.895 2.895v0c0 1.599 1.296 2.895 2.895 2.895s2.895-1.296 2.895-2.895v0z"></path>
<path fill="#b139fe" d="M32 15.196v1.448c0 0.011 0 0.024 0 0.037 0 2.199-1.635 4.017-3.756 4.303l-0.022 0.002c1.372 1.742 1.21 4.24-0.376 5.79l-1.028 1.026c-0.789 0.807-1.888 1.307-3.104 1.307-1.017 0-1.953-0.35-2.693-0.936l0.009 0.007c-0.29 2.142-2.106 3.776-4.305 3.776-0.013 0-0.026-0-0.039-0h-1.446c-0.010 0-0.023 0-0.035 0-2.198 0-4.015-1.634-4.303-3.754l-0.002-0.022c-0.724 0.561-1.645 0.899-2.645 0.899-1.201 0-2.289-0.488-3.075-1.277l-1.026-1.026c-0.806-0.789-1.306-1.888-1.306-3.104 0-1.018 0.35-1.954 0.937-2.695l-0.007 0.009c-2.143-0.289-3.778-2.106-3.778-4.305 0-0.013 0-0.026 0-0.039v0.002-1.448c0.001-2.183 1.612-3.988 3.711-4.293l0.023-0.003c-0.56-0.724-0.898-1.644-0.898-2.644 0-1.2 0.487-2.286 1.274-3.072l1.028-1.028c0.786-0.787 1.872-1.274 3.072-1.274 1 0 1.92 0.338 2.654 0.906l-0.010-0.007c0.288-2.144 2.106-3.78 4.306-3.78 0.013 0 0.026 0 0.038 0h1.446c2.166 0.041 3.941 1.661 4.224 3.756l0.002 0.022c0.731-0.58 1.668-0.93 2.686-0.93 1.216 0 2.315 0.5 3.104 1.305l0.001 0.001 1.026 1.028c1.544 1.54 1.706 3.986 0.378 5.716 2.21 0.214 3.925 2.056 3.936 4.301v0.001zM28.946 15.196c0-0.8-0.648-1.446-1.448-1.446-0.004 0-0.010 0-0.015 0-1.447 0-2.62-1.173-2.62-2.62 0-0.731 0.3-1.392 0.783-1.868l0-0c0.26-0.262 0.42-0.622 0.42-1.020s-0.16-0.758-0.42-1.020l0 0-1.026-1.028c-0.262-0.26-0.622-0.42-1.020-0.42s-0.758 0.16-1.020 0.42l0-0c-0.476 0.483-1.137 0.783-1.868 0.783-1.447 0-2.62-1.173-2.62-2.62 0-0.005 0-0.011 0-0.016v0.001c0-0.8-0.648-1.448-1.448-1.448h-1.444c-0.8 0-1.448 0.648-1.448 1.448-0.001 1.446-1.173 2.619-2.62 2.619-0.723 0-1.378-0.293-1.852-0.767v0c-0.262-0.26-0.622-0.42-1.020-0.42s-0.758 0.16-1.020 0.42l0-0-1.044 1.042c-0.256 0.261-0.413 0.619-0.413 1.013s0.158 0.752 0.414 1.013l-0-0c0.483 0.476 0.783 1.137 0.783 1.868 0 1.447-1.173 2.62-2.62 2.62-0.005 0-0.011 0-0.016-0h0.001c-0.8 0-1.446 0.648-1.446 1.446v1.448c0 0.8 0.648 1.448 1.446 1.448 1.446 0.001 2.619 1.173 2.619 2.62 0 0.723-0.293 1.378-0.767 1.852v0c-0.26 0.262-0.42 0.622-0.42 1.020s0.16 0.758 0.42 1.020l-0-0 1.028 1.042c0.564 0.56 1.476 0.56 2.040 0 0.476-0.483 1.137-0.783 1.868-0.783 1.447 0 2.62 1.173 2.62 2.62 0 0.005 0 0.011-0 0.016v-0.001c0 0.8 0.648 1.448 1.448 1.448h1.446c0.8 0 1.448-0.648 1.448-1.448 0.017-1.434 1.184-2.589 2.62-2.589 0.73 0 1.391 0.299 1.866 0.781l0 0c0.564 0.56 1.476 0.56 2.040 0l1.028-1.028c0.26-0.262 0.42-0.622 0.42-1.020s-0.16-0.758-0.42-1.020l0 0c-0.483-0.476-0.783-1.137-0.783-1.868 0-1.447 1.173-2.62 2.62-2.62 0.006 0 0.012 0 0.018 0h-0.001c0.8 0 1.446-0.648 1.446-1.446z"></path>
</svg>
