<!-- Generated by IcoMoon.io -->
<svg version="1.1" xmlns="http://www.w3.org/2000/svg" width="32" height="32" viewBox="0 0 32 32">
<title>exit</title>
<path fill="#b139fe" d="M8.875 28.402c0.98 0 1.775 0.795 1.775 1.775s-0.795 1.775-1.775 1.775v0h-7.099c-0.98 0-1.775-0.794-1.776-1.774v-28.402c0-0.981 0.795-1.776 1.776-1.776v0h7.099c0.953 0.035 1.712 0.816 1.712 1.775s-0.759 1.74-1.709 1.775l-0.003 0h-5.326v24.853zM31.435 14.715c0.346 0.325 0.562 0.786 0.562 1.297 0 0.981-0.795 1.776-1.776 1.776-0.015 0-0.030-0-0.046-0.001l0.002 0h-21.303c-0.981 0-1.776-0.795-1.776-1.776s0.795-1.776 1.776-1.776h17.058l-7.614-7.614c-0.335-0.324-0.543-0.777-0.543-1.279 0-0.982 0.796-1.777 1.777-1.777 0.48 0 0.915 0.19 1.235 0.499l-0-0zM23.719 20.823c0.304-0.248 0.696-0.399 1.123-0.399 0.983 0 1.781 0.797 1.781 1.781 0 0.511-0.215 0.972-0.56 1.296l-0.001 0.001-5.326 4.439c-0.315 0.286-0.735 0.461-1.196 0.461-0.983 0-1.781-0.797-1.781-1.781 0-0.545 0.245-1.033 0.631-1.36l0.003-0.002z"></path>
</svg>
