<svg xmlns="http://www.w3.org/2000/svg" width="19" height="19" viewBox="0 0 19 19"><defs><linearGradient id="xe85a" x1="4.11" x2="13.49" y1="9.69" y2="8.31" gradientUnits="userSpaceOnUse"><stop offset="0" stop-color="#b139fe"/><stop offset="1" stop-color="#1e61eb"/></linearGradient><linearGradient id="xe85b" x1="8.45" x2="9.49" y1="15.3" y2="2.8" gradientUnits="userSpaceOnUse"><stop offset="0" stop-color="#b139fe"/><stop offset="1" stop-color="#1e61eb"/></linearGradient></defs><g><g><g><path fill="url(#xe85a)" d="M0 9a1 1 0 0 1 .9-1h16.2a1 1 0 1 1 0 2H.9A1 1 0 0 1 0 9z"/></g><g><path fill="url(#xe85b)" d="M9 0a1 1 0 0 1 1 .9v16.2a1 1 0 1 1-2 0V.9A1 1 0 0 1 9 0z"/></g></g></g></svg>