<svg width="27" height="17" xmlns="http://www.w3.org/2000/svg" fill="none">

 <g>
  <title>Layer 1</title>
  <path id="svg_1" clip-rule="evenodd" fill="white" fill-rule="evenodd" d="m9.6531,7.4286l0,2.5714l4.3403,0c-0.1749,1.1036 -1.3119,3.2357 -4.3403,3.2357c-2.613,0 -4.7449,-2.1214 -4.7449,-4.7357c0,-2.6143 2.1319,-4.7357 4.7449,-4.7357c1.4868,0 2.4817,0.6214 3.0503,1.1571l2.0772,-1.9607c-1.3338,-1.2214 -3.0612,-1.9607 -5.1275,-1.9607c-4.2311,0 -7.6531,3.3536 -7.6531,7.5c0,4.1464 3.422,7.5 7.6531,7.5c4.4169,0 7.3469,-3.0429 7.3469,-7.3286c0,-0.4928 -0.0547,-0.8678 -0.1203,-1.2428l-7.2266,0"/>
  <path id="svg_2" clip-rule="evenodd" fill="white" fill-rule="evenodd" d="m26,7.3333l-2.3333,0l0,-2.3333l-2.3334,0l0,2.3333l-2.3333,0l0,2.3334l2.3333,0l0,2.3333l2.3334,0l0,-2.3333l2.3333,0"/>
 </g>
</svg>