<svg width="22" height="22" viewBox="0 0 22 22" fill="none" xmlns="http://www.w3.org/2000/svg">
<path fill-rule="evenodd" clip-rule="evenodd" d="M17.0714 7.28033C17.4144 7.68355 17.3837 8.28416 17.0014 8.65033L9.66143 15.5203C9.17276 15.9433 8.4358 15.8989 8.00143 15.4203L5.00143 12.7403C4.58722 12.3731 4.54916 11.7395 4.91643 11.3253C5.2837 10.9111 5.91722 10.8731 6.33143 11.2403L9.00143 13.5003L15.6814 7.20033C16.0903 6.8471 16.7058 6.88253 17.0714 7.28033Z" fill="white"/>
<path fill-rule="evenodd" clip-rule="evenodd" d="M11 2C6.02944 2 2 6.02944 2 11C2 15.9706 6.02944 20 11 20C15.9706 20 20 15.9706 20 11C20 6.02944 15.9706 2 11 2ZM0 11C0 4.92487 4.92487 0 11 0C17.0751 0 22 4.92487 22 11C22 17.0751 17.0751 22 11 22C8.08262 22 5.28473 20.8411 3.22183 18.7782C1.15893 16.7153 0 13.9174 0 11Z" fill="white"/>
</svg>
