<svg width="22" height="22" viewBox="0 0 22 22" fill="none" xmlns="http://www.w3.org/2000/svg">
<path fill-rule="evenodd" clip-rule="evenodd" d="M17.0705 7.28C17.4134 7.68322 17.3827 8.28384 17.0005 8.65L9.66046 15.52C9.17178 15.943 8.43482 15.8986 8.00046 15.42L5.00046 12.74C4.58624 12.3727 4.54819 11.7392 4.91546 11.325C5.28273 10.9108 5.91624 10.8727 6.33046 11.24L9.00046 13.5L15.6805 7.2C16.0893 6.84677 16.7048 6.8822 17.0705 7.28Z" fill="white"/>
<path fill-rule="evenodd" clip-rule="evenodd" d="M11 2C6.02944 2 2 6.02944 2 11C2 15.9706 6.02944 20 11 20C15.9706 20 20 15.9706 20 11C20 6.02944 15.9706 2 11 2ZM0 11C0 4.92487 4.92487 0 11 0C17.0751 0 22 4.92487 22 11C22 17.0751 17.0751 22 11 22C8.08262 22 5.28473 20.8411 3.22183 18.7782C1.15893 16.7153 0 13.9174 0 11Z" fill="white"/>
</svg>
