<svg width="22" height="19" viewBox="0 0 22 19" fill="none" xmlns="http://www.w3.org/2000/svg">
<path fill-rule="evenodd" clip-rule="evenodd" d="M5.93364 11.0101L11.0086 16.085L16.0836 11.0101L18.9662 8.12749C20.3676 6.72608 20.3676 4.45394 18.9662 3.05253C17.5648 1.65111 15.2926 1.65111 13.8912 3.05253L11.0086 5.95541L8.12603 3.07283C6.72462 1.67141 4.45247 1.67141 3.05106 3.07283C1.64965 4.47424 1.64965 6.74638 3.05106 8.14779L5.93364 11.0101ZM12.4311 1.64176C14.6201 -0.547252 18.1692 -0.547252 20.3582 1.64176C22.5473 3.83077 22.5473 7.37985 20.3582 9.56886L18.917 11.0101L11.0101 18.9373L3.08305 11.0101L1.64176 9.56886C-0.547252 7.37985 -0.547252 3.83077 1.64176 1.64176C3.83077 -0.547252 7.37985 -0.547252 9.56886 1.64176L11.0101 3.08305L12.4311 1.64176Z" fill="white"/>
</svg>
