<svg width="14" height="15" viewBox="0 0 14 15" fill="none" xmlns="http://www.w3.org/2000/svg">
<path d="M0.27544 13.7246C-0.0918132 13.3551 -0.0918132 12.7584 0.27544 12.389L12.3333 0.331119C12.5648 0.0608097 12.9283 -0.0569331 13.2743 0.0262993C13.6203 0.109532 13.8905 0.379692 13.9737 0.725705C14.0569 1.07172 13.9392 1.43519 13.6689 1.66667L1.61099 13.7246C1.24155 14.0918 0.644884 14.0918 0.27544 13.7246Z" fill="#DDE1F3"/>
<path d="M0.27544 0.331165C0.644884 -0.0360881 1.24155 -0.0360881 1.61099 0.331165L13.6689 12.3891C13.9392 12.6205 14.0569 12.984 13.9737 13.33C13.8905 13.676 13.6203 13.9462 13.2743 14.0294C12.9283 14.1127 12.5648 13.9949 12.3333 13.7246L0.27544 1.66672C-0.0918132 1.29728 -0.0918132 0.700609 0.27544 0.331165Z" fill="#DDE1F3"/>
</svg>
