<svg width="24" height="20" viewBox="0 0 24 20" fill="none" xmlns="http://www.w3.org/2000/svg">
<path fill-rule="evenodd" clip-rule="evenodd" d="M19.0154 19.6866C20.5598 19.6866 21.8118 18.4346 21.8118 16.8902C21.8118 15.3458 20.5598 14.0938 19.0154 14.0938C17.471 14.0938 16.219 15.3458 16.219 16.8902C16.219 18.4346 17.471 19.6866 19.0154 19.6866ZM19.0153 17.4495C18.7089 17.4435 18.462 17.1966 18.456 16.8902C18.456 16.5813 18.7064 16.3309 19.0153 16.3309C19.3242 16.3309 19.5746 16.5813 19.5746 16.8902C19.5746 17.1991 19.3242 17.4495 19.0153 17.4495Z" fill="white"/>
<path d="M21.8119 11.1856C22.4296 11.1856 22.9304 11.6864 22.9304 12.3041C22.9304 12.9219 22.4296 13.4227 21.8119 13.4227H11.51L10.0335 18.8588C9.86977 19.455 9.25379 19.8055 8.65765 19.6418C8.06151 19.4781 7.71095 18.8622 7.87466 18.266L9.19456 13.4227H7.44961C6.83369 13.4244 6.297 13.0034 6.15208 12.4048L3.60178 2.23711H1.11858C0.500824 2.23711 2.86102e-05 1.73632 2.86102e-05 1.11856C2.86102e-05 0.500794 0.500824 0 1.11858 0H4.30647C4.92099 0.00227028 5.45549 0.421574 5.60399 1.01789L8.14311 11.1856H21.8119Z" fill="white"/>
<path fill-rule="evenodd" clip-rule="evenodd" d="M21.0735 10.067C21.7097 10.0704 22.2608 9.62662 22.3934 9.00437L23.9705 1.62191C24.0548 1.22643 23.9562 0.81405 23.7023 0.499368C23.4484 0.184686 23.0662 0.00123605 22.6618 0H8.64632C8.24591 0.00788288 7.86994 0.194149 7.62108 0.507929C7.37222 0.82171 7.27647 1.23022 7.35998 1.62191L8.93715 9.00437C9.06968 9.62662 9.62084 10.0704 10.257 10.067H21.0735ZM10.9618 7.82989L9.76493 2.23711H21.5545L20.3577 7.82989H10.9618Z" fill="white"/>
</svg>
