<svg width="18" height="15" viewBox="0 0 18 15" fill="none" xmlns="http://www.w3.org/2000/svg">
<path fill-rule="evenodd" clip-rule="evenodd" d="M3.73864 14.7649C2.58034 14.7649 1.64136 13.8259 1.64136 12.6676C1.64136 11.5093 2.58034 10.5703 3.73864 10.5703C4.89694 10.5703 5.83592 11.5093 5.83592 12.6676C5.83592 13.8259 4.89694 14.7649 3.73864 14.7649ZM3.73841 13.0871C3.96819 13.0826 4.1534 12.8974 4.15786 12.6676C4.15786 12.4359 3.97007 12.2481 3.73841 12.2481C3.50675 12.2481 3.31895 12.4359 3.31895 12.6676C3.31895 12.8993 3.50675 13.0871 3.73841 13.0871Z" fill="url(#paint0_linear)"/>
<path d="M1.6414 8.38913C1.17808 8.38913 0.80249 8.76472 0.80249 9.22804C0.80249 9.69136 1.17808 10.067 1.6414 10.067H9.36779L10.4752 14.1441C10.5979 14.5912 11.0599 14.8541 11.507 14.7313C11.9541 14.6085 12.217 14.1465 12.0943 13.6994L11.1043 10.067H12.413C12.875 10.0683 13.2775 9.75251 13.3862 9.30354L15.2989 1.67783H17.1613C17.6246 1.67783 18.0002 1.30223 18.0002 0.838913C18.0002 0.375594 17.6246 0 17.1613 0H14.7704C14.3095 0.0017027 13.9086 0.316179 13.7972 0.763411L11.8929 8.38913H1.6414Z" fill="url(#paint1_linear)"/>
<path fill-rule="evenodd" clip-rule="evenodd" d="M2.19488 7.55022C1.71774 7.55273 1.30437 7.21993 1.20497 6.75325L0.0220988 1.21642C-0.0410818 0.919818 0.0328137 0.610534 0.22325 0.374524C0.413686 0.138514 0.700368 0.000927033 1.00363 0H11.5152C11.8155 0.00591213 12.0975 0.145611 12.2841 0.380945C12.4708 0.616279 12.5426 0.922663 12.48 1.21642L11.2971 6.75325C11.1977 7.21993 10.7843 7.55273 10.3072 7.55022H2.19488ZM9.77881 5.87239L10.6764 1.67783H1.8343L2.73194 5.87239H9.77881Z" fill="url(#paint2_linear)"/>
<defs>
<linearGradient id="paint0_linear" x1="2.59467" y1="14.1166" x2="4.76821" y2="11.2186" gradientUnits="userSpaceOnUse">
<stop stop-color="#B139FE"/>
<stop offset="1" stop-color="#1E61EB"/>
</linearGradient>
<linearGradient id="paint1_linear" x1="4.71106" y1="12.4802" x2="11.964" y2="1.21358" gradientUnits="userSpaceOnUse">
<stop stop-color="#B139FE"/>
<stop offset="1" stop-color="#1E61EB"/>
</linearGradient>
<linearGradient id="paint2_linear" x1="2.84138" y1="6.38339" x2="5.90475" y2="-0.379926" gradientUnits="userSpaceOnUse">
<stop stop-color="#B139FE"/>
<stop offset="1" stop-color="#1E61EB"/>
</linearGradient>
</defs>
</svg>
