<svg width="22" height="19" viewBox="0 0 22 19" fill="none" xmlns="http://www.w3.org/2000/svg">
<path fill-rule="evenodd" clip-rule="evenodd" d="M3 3H19C20.6569 3 22 4.34315 22 6V16C22 17.6569 20.6569 19 19 19H3C1.34315 19 0 17.6569 0 16V6C0 4.34315 1.34315 3 3 3ZM19 17C19.5523 17 20 16.5523 20 16V6C20 5.44772 19.5523 5 19 5H3C2.44772 5 2 5.44772 2 6V16C2 16.5523 2.44772 17 3 17H19Z" fill="#B5BBDB"/>
<path d="M17.2891 8.63C17.8413 8.63 18.2891 8.18229 18.2891 7.63C18.2891 7.07772 17.8413 6.63 17.2891 6.63C16.7368 6.63 16.2891 7.07772 16.2891 7.63C16.2891 8.18229 16.7368 8.63 17.2891 8.63Z" fill="#B5BBDB"/>
<path fill-rule="evenodd" clip-rule="evenodd" d="M7.28906 10.63C7.28906 8.42087 9.07992 6.63 11.2891 6.63C13.4982 6.63 15.2891 8.42087 15.2891 10.63C15.2891 12.8391 13.4982 14.63 11.2891 14.63C9.07992 14.63 7.28906 12.8391 7.28906 10.63ZM9.28906 10.63C9.28906 11.7346 10.1845 12.63 11.2891 12.63C12.3936 12.63 13.2891 11.7346 13.2891 10.63C13.2891 9.52544 12.3936 8.63 11.2891 8.63C10.1845 8.63 9.28906 9.52544 9.28906 10.63Z" fill="#B5BBDB"/>
<path d="M3.28906 0C2.73678 0 2.28906 0.447715 2.28906 1C2.28906 1.55228 2.73678 2 3.28906 2H7.28906C7.84135 2 8.28906 1.55228 8.28906 1C8.28906 0.447715 7.84135 0 7.28906 0H3.28906Z" fill="#B5BBDB"/>
</svg>
