<svg width="22" height="15" viewBox="0 0 22 15" fill="none" xmlns="http://www.w3.org/2000/svg">
<path fill-rule="evenodd" clip-rule="evenodd" d="M19 4.00589H18C17.7849 4.00831 17.5705 4.03176 17.36 4.07589C16.2179 1.5918 13.7341 0 11 0C8.26594 0 5.7821 1.5918 4.64 4.07589C4.42946 4.03176 4.21511 4.00831 4 4.00589H3C1.34315 4.00589 0 5.34904 0 7.00589V11.0059C0 12.6627 1.34315 14.0059 3 14.0059H4C5.65685 14.0059 7 12.6627 7 11.0059V7.00589C6.99444 6.33726 6.76567 5.68965 6.35 5.16589C7.10425 3.25749 8.94796 2.00369 11 2.00369C13.052 2.00369 14.8958 3.25749 15.65 5.16589C15.2343 5.68965 15.0056 6.33726 15 7.00589V11.0059C15 12.6627 16.3431 14.0059 18 14.0059H19C20.6569 14.0059 22 12.6627 22 11.0059V7.00589C22 5.34904 20.6569 4.00589 19 4.00589ZM5 11.0059C5 11.5582 4.55228 12.0059 4 12.0059H3C2.44772 12.0059 2 11.5582 2 11.0059V7.00589C2 6.45361 2.44772 6.00589 3 6.00589H4C4.55228 6.00589 5 6.45361 5 7.00589V11.0059ZM19 12.0059C19.5523 12.0059 20 11.5582 20 11.0059V7.00589C20 6.45361 19.5523 6.00589 19 6.00589H18C17.4477 6.00589 17 6.45361 17 7.00589V11.0059C17 11.5582 17.4477 12.0059 18 12.0059H19Z" fill="white"/>
</svg>
