<svg width="17" height="22" viewBox="0 0 17 22" fill="none" xmlns="http://www.w3.org/2000/svg">
<path fill-rule="evenodd" clip-rule="evenodd" d="M3 0H14C14.7956 0 15.5587 0.31607 16.1213 0.87868C16.6839 1.44129 17 2.20435 17 3V20.8C16.9994 21.2303 16.7479 21.6207 16.3564 21.7992C15.9649 21.9777 15.5053 21.9116 15.18 21.63L12.5 19.33L9.71 21.72C9.33508 22.0427 8.79089 22.0754 8.38 21.8L4.58 19.26L1.82 21.63C1.4947 21.9116 1.03506 21.9777 0.643573 21.7992C0.252086 21.6207 0.000635195 21.2303 0 20.8V3C0 1.34315 1.34315 0 3 0ZM13.22 17.3L15 18.83V3C15 2.44772 14.5523 2 14 2H3C2.44772 2 2 2.44772 2 3V18.84L3.79 17.29C4.16625 16.9706 4.70818 16.938 5.12 17.21L8.92 19.75L11.78 17.3C12.1964 16.9505 12.8036 16.9505 13.22 17.3Z" fill="white"/>
<path fill-rule="evenodd" clip-rule="evenodd" d="M3 0H14C14.7956 0 15.5587 0.31607 16.1213 0.87868C16.6839 1.44129 17 2.20435 17 3V20.8C16.9994 21.2303 16.7479 21.6207 16.3564 21.7992C15.9649 21.9777 15.5053 21.9116 15.18 21.63L12.5 19.33L9.71 21.72C9.33508 22.0427 8.79089 22.0754 8.38 21.8L4.58 19.26L1.82 21.63C1.4947 21.9116 1.03506 21.9777 0.643573 21.7992C0.252086 21.6207 0.000635195 21.2303 0 20.8V3C0 1.34315 1.34315 0 3 0ZM13.22 17.3L15 18.83V3C15 2.44772 14.5523 2 14 2H3C2.44772 2 2 2.44772 2 3V18.84L3.79 17.29C4.16625 16.9706 4.70818 16.938 5.12 17.21L8.92 19.75L11.78 17.3C12.1964 16.9505 12.8036 16.9505 13.22 17.3Z" fill="white"/>
<path d="M4 6H11C11.5523 6 12 5.55228 12 5C12 4.44772 11.5523 4 11 4H4C3.44772 4 3 4.44772 3 5C3 5.55228 3.44772 6 4 6Z" fill="white"/>
<path d="M4 6H11C11.5523 6 12 5.55228 12 5C12 4.44772 11.5523 4 11 4H4C3.44772 4 3 4.44772 3 5C3 5.55228 3.44772 6 4 6Z" fill="white"/>
<path d="M4 10H8C8.55228 10 9 9.55228 9 9C9 8.44772 8.55228 8 8 8H4C3.44772 8 3 8.44772 3 9C3 9.55228 3.44772 10 4 10Z" fill="white"/>
<path d="M4 10H8C8.55228 10 9 9.55228 9 9C9 8.44772 8.55228 8 8 8H4C3.44772 8 3 8.44772 3 9C3 9.55228 3.44772 10 4 10Z" fill="white"/>
<path d="M12 12H4C3.44772 12 3 12.4477 3 13C3 13.5523 3.44772 14 4 14H12C12.5523 14 13 13.5523 13 13C13 12.4477 12.5523 12 12 12Z" fill="white"/>
<path d="M12 12H4C3.44772 12 3 12.4477 3 13C3 13.5523 3.44772 14 4 14H12C12.5523 14 13 13.5523 13 13C13 12.4477 12.5523 12 12 12Z" fill="white"/>
</svg>
