<svg width="17" height="16" viewBox="0 0 17 16" fill="none" xmlns="http://www.w3.org/2000/svg">
<path fill-rule="evenodd" clip-rule="evenodd" d="M13.9853 0.8L13.9853 7.2L13.9853 7.272C12.9176 7.5396 12.1687 8.49924 12.1687 9.6C12.1687 10.7008 12.9176 11.6604 13.9853 11.928L13.9853 12L13.9853 15.2C13.9853 15.6418 14.3435 16 14.7853 16C15.2271 16 15.5853 15.6418 15.5853 15.2L15.5853 12C15.5929 11.9282 15.5929 11.8558 15.5853 11.784C16.441 11.3941 16.9902 10.5404 16.9902 9.6C16.9902 8.65963 16.441 7.80589 15.5853 7.416C15.5929 7.3442 15.5929 7.2718 15.5853 7.2L15.5853 0.8C15.5853 0.358172 15.2271 -7.70681e-08 14.7853 -9.6381e-08C14.3435 -1.15694e-07 13.9853 0.358172 13.9853 0.8ZM15.3613 9.6C15.3613 10.0418 15.0032 10.4 14.5613 10.4C14.1195 10.4 13.7613 10.0418 13.7613 9.6C13.7613 9.15817 14.1195 8.8 14.5613 8.8C15.0032 8.8 15.3613 9.15817 15.3613 9.6Z" fill="white"/>
<path fill-rule="evenodd" clip-rule="evenodd" d="M8.38622 0.8L8.38622 2.4L8.38622 2.472C7.32618 2.74531 6.58541 3.70129 6.58541 4.796C6.58541 5.89071 7.32618 6.84669 8.38622 7.12L8.38622 15.2C8.38622 15.6418 8.74439 16 9.18622 16C9.62805 16 9.98622 15.6418 9.98622 15.2L9.98622 6.96C10.8279 6.56435 11.3652 5.71804 11.3652 4.788C11.3652 3.85796 10.8279 3.01165 9.98622 2.616C9.99384 2.5442 9.99384 2.4718 9.98622 2.4L9.98622 0.8C9.98622 0.358172 9.62805 -7.59347e-08 9.18622 -9.52477e-08C8.74439 -1.14561e-07 8.38622 0.358172 8.38622 0.8ZM9.76193 4.8C9.76193 5.24183 9.40376 5.6 8.96193 5.6C8.5201 5.6 8.16193 5.24183 8.16193 4.8C8.16193 4.35817 8.5201 4 8.96193 4C9.40376 4 9.76193 4.35817 9.76193 4.8Z" fill="white"/>
<path fill-rule="evenodd" clip-rule="evenodd" d="M2.78442 0.8L2.78442 8.08C1.73189 8.35878 0.998908 9.31118 0.998908 10.4C0.998908 11.4888 1.73189 12.4412 2.78442 12.72L2.78442 15.2C2.78442 15.6418 3.14259 16 3.58442 16C4.02624 16 4.38442 15.6418 4.38442 15.2L4.38442 12.56C5.21239 12.159 5.73828 11.32 5.73828 10.4C5.73828 9.48003 5.21239 8.64101 4.38442 8.24L4.38442 0.8C4.38442 0.358172 4.02624 -7.48355e-08 3.58442 -9.41484e-08C3.14259 -1.13461e-07 2.78442 0.358172 2.78442 0.8ZM4.16057 10.4C4.16057 10.8418 3.8024 11.2 3.36057 11.2C2.91875 11.2 2.56057 10.8418 2.56057 10.4C2.56057 9.95817 2.91875 9.6 3.36057 9.6C3.8024 9.6 4.16057 9.95817 4.16057 10.4Z" fill="white"/>
</svg>
