<svg width="22" height="22" viewBox="0 0 22 22" fill="none" xmlns="http://www.w3.org/2000/svg">
<path fill-rule="evenodd" clip-rule="evenodd" d="M19 6H7V3C7 1.34315 5.65685 0 4 0H1C0.447715 0 0 0.447715 0 1C0 1.55228 0.447715 2 1 2H4C4.55228 2 5 2.44772 5 3V6H3C1.34315 6 0 7.34315 0 9V19C0 20.6569 1.34315 22 3 22H19C20.6569 22 22 20.6569 22 19V9C22 7.34315 20.6569 6 19 6ZM20 19C20 19.5523 19.5523 20 19 20H3C2.44772 20 2 19.5523 2 19V9C2 8.44771 2.44772 8 3 8H19C19.5523 8 20 8.44771 20 9V19Z" fill="#B0B0D1"/>
<path fill-rule="evenodd" clip-rule="evenodd" d="M10.94 9.46997C9.4772 9.4828 8.23692 10.5488 8.00445 11.9931C7.77198 13.4374 8.61511 14.8388 10 15.31C9.99439 15.3632 9.99439 15.4168 10 15.47V18.47C10 19.0223 10.4477 19.47 11 19.47C11.5523 19.47 12 19.0223 12 18.47V15.47C12.0057 15.4068 12.0057 15.3432 12 15.28C13.3507 14.7755 14.1515 13.3816 13.907 11.9607C13.6624 10.5398 12.4416 9.49379 11 9.46997H10.94ZM10.94 11.47C11.4923 11.47 11.94 11.9177 11.94 12.47C11.94 13.0223 11.4923 13.47 10.94 13.47C10.3877 13.47 9.94002 13.0223 9.94002 12.47C9.94002 11.9177 10.3877 11.47 10.94 11.47Z" fill="#B0B0D1"/>
</svg>
