<svg width="22" height="22" viewBox="0 0 22 22" fill="none" xmlns="http://www.w3.org/2000/svg">
<path fill-rule="evenodd" clip-rule="evenodd" d="M19 3.78911H18V3.20911C17.9982 2.26952 17.5563 1.38504 16.806 0.819392C16.0558 0.253749 15.0838 0.0722875 14.18 0.329113L2.73 3.59911C2.56115 3.65188 2.40932 3.7485 2.29 3.87911C0.947662 4.20609 0.0021984 5.40753 0 6.78911V18.7891C0 20.446 1.34315 21.7891 3 21.7891H19C20.6569 21.7891 22 20.446 22 18.7891V6.78911C22 5.13226 20.6569 3.78911 19 3.78911ZM14.73 2.24911C15.0377 2.16259 15.3682 2.22837 15.6193 2.4261C15.8705 2.62384 16.0119 2.92971 16 3.24911V3.82911H9.36L14.73 2.24911ZM20 13.7891H17C16.4477 13.7891 16 13.3414 16 12.7891C16 12.2368 16.4477 11.7891 17 11.7891H20V13.7891ZM20 9.78911H17.15C15.6644 9.75116 14.3621 10.7761 14.05 12.2291C13.8831 13.1076 14.1167 14.0147 14.6873 14.7033C15.2578 15.3918 16.1058 15.7899 17 15.7891H20V18.7891C20 19.3414 19.5523 19.7891 19 19.7891H3C2.44772 19.7891 2 19.3414 2 18.7891V6.78911C2 6.23683 2.44772 5.78911 3 5.78911H19C19.5523 5.78911 20 6.23683 20 6.78911V9.78911Z" fill="white"/>
</svg>
