<svg width="22" height="22" viewBox="0 0 22 22" fill="none" xmlns="http://www.w3.org/2000/svg">
<path fill-rule="evenodd" clip-rule="evenodd" d="M3 22H19C20.6569 22 22 20.6569 22 19V9C22 7.34315 20.6569 6 19 6H17V3C17 1.34315 15.6569 0 14 0H8C6.34315 0 5 1.34315 5 3V6H3C1.34315 6 0 7.34315 0 9V19C0 20.6569 1.34315 22 3 22ZM7.00017 3C7.00017 2.44771 7.44789 2 8.00017 2H14.0002C14.5525 2 15.0002 2.44771 15.0002 3V6H7.00017V3ZM1.99992 9C1.99992 8.44771 2.44763 8 2.99992 8H18.9999C19.5522 8 19.9999 8.44771 19.9999 9V19C19.9999 19.5523 19.5522 20 18.9999 20H2.99992C2.44763 20 1.99992 19.5523 1.99992 19V9Z" fill="white"/>
<path fill-rule="evenodd" clip-rule="evenodd" d="M10.0494 15.2194C10.0222 15.3071 10.0054 15.3978 9.99937 15.4894V18.4894C9.99937 19.0417 10.4471 19.4894 10.9994 19.4894C11.5517 19.4894 11.9994 19.0417 11.9994 18.4894V15.4894C11.9994 15.4894 11.9994 15.4294 11.9994 15.3994C13.426 15.0564 14.3952 13.7318 14.2903 12.2683C14.1855 10.8047 13.0375 9.63176 11.5766 9.49551C10.1157 9.35926 8.77053 10.2997 8.39691 11.7186C8.02328 13.1375 8.73079 14.6185 10.0694 15.2194H10.0494ZM11.2898 11.4894C11.8421 11.4894 12.2898 11.9371 12.2898 12.4894C12.2898 13.0417 11.8421 13.4894 11.2898 13.4894C10.7376 13.4894 10.2898 13.0417 10.2898 12.4894C10.2898 11.9371 10.7376 11.4894 11.2898 11.4894Z" fill="white"/>
</svg>
