<svg width="22" height="23" viewBox="0 0 22 23" fill="none" xmlns="http://www.w3.org/2000/svg">
<path fill-rule="evenodd" clip-rule="evenodd" d="M10.989 0C8.6758 0.0115281 6.42456 0.749171 4.55301 2.10878C2.68145 3.4684 1.28407 5.38131 0.558038 7.57771C-0.167992 9.7741 -0.186008 12.143 0.506521 14.3502C1.19905 16.5574 2.56717 18.4914 4.41782 19.8793C4.65654 20.0492 4.95297 20.1173 5.2419 20.0686C5.38496 20.0445 5.52188 19.9925 5.64483 19.9155C5.76778 19.8385 5.87436 19.738 5.95848 19.6198C6.04259 19.5016 6.1026 19.368 6.13508 19.2266C6.16757 19.0852 6.17187 18.9388 6.14777 18.7958C6.12367 18.6527 6.07164 18.5158 5.99462 18.3928C5.91761 18.2699 5.81714 18.1633 5.69894 18.0792C4.04969 16.857 2.87742 15.0988 2.38349 13.1064C1.88956 11.114 2.10478 9.01183 2.99218 7.16086C3.87959 5.30989 5.3838 3.82568 7.24647 2.96311C9.10914 2.10054 11.214 1.91343 13.1997 2.43396C15.1853 2.95449 16.9277 4.15016 18.1276 5.8156C19.3276 7.48105 19.9102 9.51236 19.7754 11.5606C19.6406 13.6089 18.7968 15.5463 17.3889 17.0401C15.9811 18.534 14.097 19.491 12.0603 19.7468V18.7749C12.0603 18.482 11.944 18.2011 11.7369 17.994C11.5297 17.7869 11.2488 17.6705 10.9559 17.6705C10.663 17.6705 10.3821 17.7869 10.175 17.994C9.96786 18.2011 9.85151 18.482 9.85151 18.7749V20.9838C9.85151 21.2767 9.96786 21.5576 10.175 21.7647C10.3821 21.9718 10.663 22.0882 10.9559 22.0882C13.885 22.0882 16.6941 20.9246 18.7653 18.8534C20.8364 16.7822 22 13.9732 22 11.0441C22 8.11501 20.8364 5.30593 18.7653 3.23476C16.6941 1.16359 13.885 0 10.9559 0H10.989ZM12.5131 7.24492C12.7229 7.44567 12.891 7.68582 13.0079 7.95162C13.1248 8.21741 13.1881 8.50365 13.1943 8.79395C13.2004 9.08424 13.1493 9.37284 13.0438 9.64335C12.9383 9.91386 12.7805 10.1609 12.5794 10.3704C12.3972 10.5259 12.1874 10.6458 11.9609 10.7238C11.3483 10.9704 10.8233 11.3944 10.4533 11.9414C10.0834 12.4885 9.88532 13.1336 9.88464 13.794V14.8985C9.88464 15.1914 10.001 15.4723 10.2081 15.6794C10.4152 15.8865 10.6961 16.0029 10.989 16.0029C11.282 16.0029 11.5629 15.8865 11.77 15.6794C11.9771 15.4723 12.0935 15.1914 12.0935 14.8985V13.794C12.0932 13.5729 12.1594 13.3567 12.2835 13.1736C12.4075 12.9904 12.5837 12.8488 12.7892 12.767C13.3098 12.5782 13.7842 12.2808 14.1808 11.8945C14.6801 11.3727 15.0438 10.7365 15.2402 10.0416C15.4366 9.34665 15.4596 8.61411 15.3072 7.90821C15.1549 7.2023 14.8318 6.54456 14.3662 5.99248C13.9007 5.4404 13.3069 5.01084 12.6369 4.74146C11.9669 4.47208 11.241 4.37109 10.5229 4.44729C9.80474 4.5235 9.11624 4.7746 8.51766 5.1786C7.91908 5.5826 7.42868 6.12722 7.08938 6.7647C6.75008 7.40219 6.57223 8.11311 6.57141 8.83527C6.57141 9.12817 6.68777 9.40907 6.89489 9.61618C7.102 9.8233 7.38292 9.93967 7.67582 9.93967C7.96873 9.93967 8.24964 9.8233 8.45676 9.61618C8.66388 9.40907 8.78023 9.12817 8.78023 8.83527C8.78187 8.40362 8.90996 7.98192 9.14865 7.62226C9.38734 7.26261 9.72618 6.98074 10.1233 6.81155C10.5204 6.64237 10.9584 6.59325 11.3831 6.67026C11.8078 6.74728 12.2007 6.94707 12.5131 7.24492Z" fill="#E2E5F1"/>
</svg>
