<svg width="19" height="19" viewBox="0 0 19 19" fill="none" xmlns="http://www.w3.org/2000/svg">
<path d="M9.5 0C4.26177 0 0 4.26177 0 9.5C0 14.7382 4.26177 19 9.5 19C11.1705 19 12.8132 18.5605 14.2512 17.7284L13.0625 15.6723C11.9852 16.2956 10.753 16.625 9.5 16.625C5.57106 16.625 2.37499 13.4289 2.37499 9.5C2.37499 5.57106 5.57106 2.37499 9.5 2.37499C13.4289 2.37499 16.625 5.57106 16.625 9.5V10.5344C16.625 11.3114 16.1258 11.875 15.4375 11.875C14.7828 11.875 14.25 11.3421 14.25 10.6875V5.93749H12.6084C11.773 5.20769 10.6938 4.74998 9.5 4.74998C6.88088 4.74998 4.74998 6.88088 4.74998 9.5C4.74998 12.1191 6.88088 14.25 9.5 14.25C10.7472 14.25 11.8749 13.7568 12.7233 12.9677C13.3773 13.7449 14.3446 14.25 15.4375 14.25C17.435 14.25 19 12.6178 19 10.5344V9.5C19 4.26177 14.7382 0 9.5 0V0ZM9.5 11.875C8.19014 11.875 7.12501 10.8098 7.12501 9.5C7.12501 8.19014 8.19018 7.12501 9.5 7.12501C10.8099 7.12501 11.875 8.19018 11.875 9.5C11.875 10.8099 10.8099 11.875 9.5 11.875Z" fill="white"/>
</svg>
