<?xml version="1.0" standalone="no"?>
<!DOCTYPE svg PUBLIC "-//W3C//DTD SVG 1.1//EN" "http://www.w3.org/Graphics/SVG/1.1/DTD/svg11.dtd" >
<svg xmlns="http://www.w3.org/2000/svg">
<metadata>Generated by IcoMoon</metadata>
<defs>
<font id="diploma" horiz-adv-x="1024">
<font-face units-per-em="1024" ascent="960" descent="-64" />
<missing-glyph horiz-adv-x="1024" />
<glyph unicode="&#x20;" horiz-adv-x="512" d="" />
<glyph unicode="&#xe900;" glyph-name="arrowR" d="M660.913 106.667c0 74.844 0 157.624 0 244.944-221.887 0-440.214 0-660.913 0 0 61.235 0 117.935 0 179.171 215.954 0 434.282 0 659.726 0 0 90.72 0 175.77 0 258.551 123.402-115.668 245.62-231.336 364.274-343.6-117.47-108.865-240.872-224.532-363.087-339.067z" />
<glyph unicode="&#xe901;" glyph-name="arrowRMini" d="M976.72 422.14c14.277 14.282 14.277 37.437 0 51.719l-232.741 232.739c-14.284 14.282-37.44 14.282-51.722 0s-14.283-37.438 0-51.72l206.879-206.879-206.879-206.879c-14.283-14.282-14.283-37.437 0-51.719s37.437-14.283 51.722 0l232.741 232.739zM0 411.429h950.857v73.143h-950.857v-73.143z" />
<glyph unicode="&#xe902;" glyph-name="arrowUp" d="M520.533 483.359c46.239-46.401 89.688-90.328 132.742-133.641 11.637-11.708 31.502-10.803 43.196 0.842 11.733 11.682 10.789 29.733-0.944 41.415-52.187 51.965-104.528 104.075-156.186 155.511-11.099 11.048-29.039 11.051-40.132-0.006-49.741-49.584-101.092-100.946-152.644-152.084-12.22-12.117-13.21-30.865-0.663-42.644 11.901-11.17 31.613-11.873 43.216-0.39 41.688 41.25 85.316 84.742 131.416 130.995z" />
<glyph unicode="&#xe903;" glyph-name="calendar" d="M713.526 862.667c0 33.498 0 64.467 0 97.333 33.259 0 64.009 0 98.527 0 0-32.234 0-63.835 0-99.861 19.453 0 36.397 0.632 52.715 0 55.224-1.896 98.527-42.978 98.527-98.597 0.626-238.275 0.626-475.919 0-714.195 0-53.724-43.303-96.702-96.645-96.702-236.589-0.632-472.552-0.632-709.143 0-55.225 0-96.644 43.61-97.272 99.861 0 235.749 0 472.127 0.628 707.875 0 59.411 42.674 100.493 101.665 101.757 14.434 0.632 28.868 0 47.067 0 0 33.497 0 65.099 0 99.229 35.143 0 66.521 0 101.037 0 0-32.234 0-63.203 0-96.701 134.299 0 266.085 0 402.895 0zM163.155 606.696c0-184.555 0-368.474 0-553.029 233.452 0 465.65 0 697.848 0 0 185.82 0 369.107 0 553.029-233.454 0-464.396 0-697.848 0zM513.334 155.425c0 82.796 0 164.328 0 248.389 82.836 0 164.418 0 247.883 0 0-82.164 0-164.331 0-248.389-80.953 0-162.536 0-247.883 0z" />
<glyph unicode="&#xe904;" glyph-name="cash" d="M956.276 254.31c6.353-19.358 14.443-46.694 23.682-73.458 14.443-43.846-15.016-87.692-61.808-87.692-244.34-0.568-489.259-0.568-733.601 0.568-82.602 0.573-140.944 41.002-154.23 111.043-6.354 32.456-2.888 68.333 3.466 100.79 20.795 110.471 45.056 220.372 68.739 330.843 4.043 19.361 10.397 38.722 19.062 56.374 17.907 36.444 44.478 60.93 88.957 67.763 37.547 5.694 73.938 19.93 110.329 31.888 23.106 7.972 44.478 9.111 65.851-4.555 39.28-25.625 82.026-31.889 128.814-30.75 103.973 2.278 207.951 0.57 311.924 0 36.971 0 36.971-0.569 47.369-34.735 13.284-45.555 25.991-91.11 39.857-136.665 3.463-10.25 10.975-19.361 17.329-28.472 14.438-19.93 33.503-37.013 42.743-58.652 24.841-56.944 25.418-118.443 18.488-179.373-2.313-19.931-20.797-37.581-36.971-64.917zM75.954 346.559c50.832 39.293 104.553 42.14 160.006 41.571 219.503-0.57 439.005 0 657.932-0.57 21.374 0 43.325-2.847 71.052-4.555-5.199 31.319-8.090 60.36-15.597 88.263-16.175 60.36-56.031 83.707-117.839 68.332-42.747-10.819-86.067-22.208-125.347-40.43-117.262-54.097-239.146-45.555-361.604-30.181-13.285 1.709-18.484 8.542-16.751 21.069 1.733 14.236 3.466 27.903 4.621 42.139 3.466 50.11 7.509 100.221 10.397 150.332 1.155 25.055 0 50.68 0 79.721-12.13-3.986-21.95-6.833-31.77-9.681-33.503-9.111-66.429-19.93-99.932-26.764-27.149-5.125-46.211-18.791-56.609-42.708-8.087-18.222-14.441-37.013-19.062-56.374-8.664-34.735-15.019-70.041-22.528-105.346-11.553-56.374-23.683-112.179-36.969-174.819zM542.687 126.189c118.416 0 236.833 0 355.249 0 7.508 0 15.597-0.573 23.105 0.568 16.752 2.281 30.613 18.79 28.304 34.169-2.313 15.942-12.13 25.055-29.459 24.483-7.512 0-15.597 0-23.105 0-222.394-0.568-444.785-1.136-667.176-1.136-13.286 0-27.149-1.14-40.435 0.568-27.727 2.849-47.944 26.764-47.367 55.235 0.578 27.331 17.907 45.554 46.789 47.262 29.46 1.708 59.497 3.416 89.534 3.984 212.573 2.281 425.142 3.989 637.715 6.265 4.622 0 9.821 0 14.438 0.573 16.752 1.708 30.618 14.801 31.195 28.472 0 18.218-13.284 23.915-27.727 27.899-6.353 1.709-13.284 1.709-20.215 1.709-241.455 0-483.487 0.569-724.94-1.139-24.839 0-51.41-9.111-73.36-21.069-68.739-38.153-74.515-137.802-12.708-182.221 25.416-18.223 56.031-23.915 87.223-23.915 117.839-1.708 235.677-1.708 352.939-1.708zM379.215 752c-5.199-86.555-10.398-168.554-15.596-248.845 155.964-34.166 296.908 1.139 431.499 67.194-142.68 42.708-273.804 117.304-415.903 181.651zM917.574 263.424c-12.13 0-22.528 0-33.503 0-86.644-1.14-173.289-3.416-259.938-3.989-133.432-1.136-266.868-1.136-400.881-2.276-11.553 0-23.683 0-34.081-3.984-5.776-2.281-13.285-11.958-12.708-17.655 0.578-6.265 8.087-14.234 14.441-17.65 5.199-2.849 13.286-1.14 19.64-1.14 232.789 0.568 466.157 0.568 698.945 1.14 6.931 0 13.861 1.708 21.951 2.276-2.89 9.681-4.622 17.082-6.935 24.488-1.731 5.693-4.040 10.817-6.931 18.79zM527.090 724.098c-0.577-1.708-0.577-3.986-1.154-5.694 113.217-54.097 225.857-109.332 354.672-136.096-12.712 44.986-23.687 87.124-37.548 128.123-2.309 6.833-16.175 13.097-24.837 13.097-97.047 0.569-194.090 0.569-291.133 0.569z" />
<glyph unicode="&#xe905;" glyph-name="coffee" d="M122.822 881.85c13.352 0 23.063 0 32.773 0 242.762 0 485.526 0 728.286 0 75.863 0 112.886-37.062 112.886-114.225 0-41.316 0.609-83.239 0-124.554-0.609-60.758-40.663-100.858-100.746-101.466-30.346-0.608-60.083 0-92.856 0 0-47.391 0-91.138 0-135.491-0.609-121.519-82.54-204.145-203.315-204.754-91.035 0-182.071-0.609-273.106 0-119.561 0.609-202.706 82.632-202.706 201.716-1.821 158.579-1.214 315.942-1.214 478.774zM804.982 784.029c0-47.391 0-95.39 0-143.389 31.56 0 61.906 0 92.252 0 0 48.607 0 95.998 0 143.389-31.56 0-60.692 0-92.252 0zM897.859 102.323c0-31.59 0-61.972 0-93.568-290.708 0-580.2 0-870.909 0 0 31.596 0 61.368 0 93.568 289.494 0 578.987 0 870.909 0z" />
<glyph unicode="&#xe906;" glyph-name="conditioner" d="M394.937 392.363c-18.754-11.123-36.106-21.348-53.458-31.573-30.147-17.759-59.943-35.694-90.266-53.097-5.959-3.408-8.062-7.534-8.413-13.99-2.279-35.699-4.907-71.573-7.362-107.271-1.402-20.987-16.3-35.338-36.106-34.621-19.28 0.717-33.477 16.862-32.776 37.849 0.701 16.325 1.928 32.827 2.98 49.152 0.351 6.456 0.701 12.917 1.051 20.807-5.258-3.048-9.289-5.203-13.321-7.534-26.466-15.604-52.932-31.393-79.574-46.997-13.671-7.895-29.446-5.92-40.663 4.481-10.341 9.509-14.898 26.37-8.238 39.287 3.681 7.173 9.991 14.17 16.826 18.476 27.167 17.042 54.86 32.827 82.378 49.152 2.454 1.434 4.907 3.048 8.238 5.022-20.682 10.406-40.313 20.090-59.943 29.954-17.176 8.792-24.713 25.654-19.806 43.052 5.959 20.631 28.043 31.037 47.85 21.528 32.25-15.428 64.15-31.573 96.049-47.718 6.135-3.228 10.867-3.048 16.826 0.541 44.87 26.907 89.915 53.277 134.785 79.823 2.454 1.438 4.907 3.052 8.588 5.383-9.815 5.739-18.754 11.123-27.693 16.325-38.384 22.78-76.945 45.203-115.154 68.343-6.66 4.126-11.743 3.767-18.404 0.359-31.023-15.965-62.222-31.392-93.596-46.64-18.579-9.149-38.56-2.511-47.148 15.247-8.939 18.118-1.753 38.568 17.002 48.254 17.176 8.969 34.529 17.4 51.705 26.19 2.629 1.256 5.083 2.691 8.588 4.664-26.466 15.606-51.881 30.675-77.295 45.743-4.732 2.87-9.64 5.561-14.372 8.61-17.527 10.763-23.311 31.392-13.847 48.613 9.64 17.4 30.497 22.961 48.55 12.557 28.394-16.503 56.613-33.365 84.832-50.048 1.753-1.077 3.505-1.973 6.835-3.947-1.051 17.4-1.928 33.186-2.804 49.151-0.526 7.534-1.227 14.889-1.402 22.423-0.351 19.732 13.671 35.518 32.25 36.415 19.455 0.897 35.054-13.095 36.456-33.186 2.629-36.594 5.258-73.368 7.537-109.962 0.35-6.099 2.629-9.508 7.887-12.378 45.395-26.549 90.441-53.277 135.661-80.005 2.454-1.435 4.907-2.87 8.588-4.843 0.175 3.946 0.526 6.816 0.526 9.507 0 53.456-0.176 107.092 0.175 160.548 0 6.458-2.103 10.225-7.361 13.813-29.621 20.27-59.242 40.541-88.513 61.169-22.26 15.607-20.507 48.434 2.979 60.811 12.445 6.458 24.889 5.382 36.457-2.511 15.774-10.763 31.549-21.526 47.323-32.289 2.279-1.614 4.732-3.229 8.939-5.919 0 4.664 0 7.893 0 10.942 0 32.289-0.176 64.578 0 96.867 0.175 24.396 18.228 40.541 40.312 36.774 15.424-2.511 27.168-15.786 28.395-31.93 0.175-2.332 0-4.844 0-7.175 0-288.269 0-576.36 0-864.626 0-19.373-8.238-33.007-23.312-38.029-22.961-7.895-45.395 8.787-45.57 34.26-0.176 32.646 0 65.117 0 97.763 0 3.228 0 6.281 0 11.664-12.269-8.436-22.961-15.609-33.477-22.786-7.537-5.198-14.898-10.401-22.61-15.423-17.703-11.839-38.56-8.251-49.427 8.431-11.217 17.042-6.485 38.385 11.393 50.766 29.271 20.27 58.541 40.36 87.636 60.811 2.98 2.15 6.135 6.817 6.135 10.225 0.351 55.608 0.35 111.216 0.175 166.824 0.526 1.258 0.351 2.692 0 5.92zM934.254 686.007c-10.342-12.557-21.738-24.217-30.852-37.492-13.322-19.732-27.165-39.823-37.157-61.528-17.003-36.774-7.539-71.215 23.664-96.508 28.394-23.14 61.694-35.696 96.046-45.922 4.033-1.258 8.241-2.331 9.816-2.872-27.867-12.556-56.964-25.293-85.709-38.927-8.587-4.125-16.477-10.401-23.835-16.681-26.995-22.782-35.406-52.56-24.366-86.821 9.118-28.701 26.292-52.38 45.046-74.981 8.065-9.689 16.828-18.837 26.819-29.779-12.444 2.511-22.962 5.022-33.655 6.817-27.692 4.662-55.384 8.431-83.602 5.022-40.141-5.022-65.902-30.315-71.514-71.217-5.257-38.746 1.404-76.239 10.869-113.371 0.527-1.97 0.878-3.945 1.926-7.89-9.64 8.787-17.701 16.501-26.112 23.679-21.387 18.295-43.471 35.338-69.061 46.816-40.136 17.94-75.015 8.075-100.781-28.34-18.578-26.19-29.969-55.788-39.083-86.465-0.878-2.692-1.58-5.559-3.33-7.89 0 59.372 0 118.569 0 178.664 93.769 3.228 170.891 41.077 229.43 116.063 43.993 56.505 65.029 121.622 63.098 193.911-4.203 165.033-139.166 294.189-292.176 293.292 0 62.067 0 124.133 0 188.173 1.399-3.767 2.277-5.92 2.804-8.072 10.864-35.159 23.659-69.422 45.217-99.378 25.064-34.621 58.544-44.128 97.456-27.446 31.549 13.454 57.661 34.8 81.852 59.017 3.33 3.408 6.661 6.637 9.991 10.045 0.346 0.359 1.048 0.359 1.751 0.538-3.155-17.939-7.539-35.697-8.938-53.636-1.755-23.14-3.155-46.64-0.878-69.601 3.857-38.926 29.974-63.681 68.184-69.062 36.279-5.023 71.509 0.897 106.564 10.045 3.155 0.897 6.134 1.615 9.289 2.332 0.176 0 0.527-0.179 1.229-0.538zM519.558 202.567c0 159.291 0 318.764 0 479.671 83.256-3.946 150.562-38.208 194.906-110.141 53.633-87.001 52.404-176.511-1.404-263.336-51.878-83.232-142.497-109.783-193.502-106.194z" />
<glyph unicode="&#xe907;" glyph-name="express" d="M321.773 71.532c-6.687-0.21-10.866 2.504-14.523 6.149-26.121 25.544-52.45 50.877-78.362 76.524-29.255 28.984-58.092 58.486-87.556 87.26-6.582 6.467-8.254 13.24-5.642 20.854 5.747 17.198 11.493 34.611 18.702 51.292 46.39 107.904 110.856 204.337 188.382 292.222 71.988 81.631 153.693 152.106 245.637 210.384 32.599 20.642 66.662 38.782 99.988 58.173 3.451 1.981 4.91 0.208 7.004-1.773 32.594-32.527 65.3-65.054 97.9-97.686 47.744-47.644 95.493-95.392 143.35-142.932 3.026-3.023 3.236-5.004 1.357-8.757-40.75-79.754-90.168-153.67-148.47-221.646-36.884-42.952-76.897-82.877-119.004-120.724-96.543-86.738-204.787-155.233-325.986-202.67-6.269-2.499-12.747-4.48-19.225-6.569-1.567-0.102-3.239 0-3.553-0.102zM390.731 390.548c-3.448-37.949 31.763-64.22 62.69-64.010 34.792 0.312 63.838 28.979 63.735 63.908-0.108 29.292-20.48 63.697-68.751 62.968-31.24-0.521-57.674-28.879-57.674-62.865zM634.593 508.668c36.777-3.857 64.154 33.257 63.836 62.344-0.205 29.712-26.225 64.012-65.613 63.699-31.447-0.208-63.002-28.878-61.645-64.22 1.357-36.28 26.537-61.822 63.421-61.822zM960.783 672.345c-75.121 74.020-150.349 148.040-226.309 222.895 14.525 5.734 28.109 11.364 41.897 16.576 50.468 19.287 102.287 33.153 155.469 41.389 21.422 3.336 43.151 5.525 64.886 6.672 21.315 1.147 27.372-5.525 27.269-27.002-0.21-36.489-6.584-72.144-14.418-107.694-11.597-52.44-27.899-103.524-49.213-152.836-0.312-0.626-0.625-1.251-0.937-1.773 0.415 0.626 0.937 1.251 1.357 1.773zM356.88 653.683c-2.090-2.502-3.971-5.109-6.269-7.402-62.585-65.159-115.662-137.303-160.798-215.387-15.881-27.525-30.091-55.88-44.823-84.029-2.298-4.378-4.493-5.422-9.299-4.065-40.121 11.469-80.242 22.518-120.363 33.879-12.747 3.651-18.493 15.846-13.583 28.36 1.567 3.963 3.761 7.818 6.060 11.469 52.972 82.568 122.244 147.831 209.592 192.973 41.897 21.685 86.093 37.010 132.692 45.35 1.986 0.312 3.971 0.312 5.956 0.417 0.313-0.521 0.523-1.042 0.836-1.564zM404.525 79.974c57.256 27.52 112.318 58.486 164.665 94.346 52.239 35.763 100.931 76.001 147.528 118.851 0.625-0.415 1.357-0.835 1.987-1.249-0.42-3.441-0.732-6.881-1.362-10.322-15.565-81.838-52.029-153.672-104.269-217.892-38.139-46.915-82.959-86.426-134.367-118.431-4.074-2.606-8.358-5.002-12.851-6.779-9.090-3.543-17.866-0.517-21.837 8.34-3.97 8.863-7.314 18.038-10.030 27.315-9.926 34.509-19.538 69.12-29.255 103.629-0.104 0.42-0.104 0.937-0.209 2.191zM267.958 53.704c-7.001-5.32-13.792-11.366-21.419-16.056-29.882-18.555-61.749-33.464-94.452-46.182-47.226-18.452-94.87-35.656-142.409-53.381-2.194-0.835-4.597-1.249-7.941-2.084 3.866 11.156 7.209 21.268 10.866 31.278 21.837 60.047 43.883 120.1 72.197 177.541 9.090 18.35 18.493 36.593 32.389 52.024 1.254 1.357 2.612 2.708 3.553 3.753 48.793-48.788 97.482-97.27 147.215-146.893z" />
<glyph unicode="&#xe908;" glyph-name="facebook" d="M579.495 447.020c0-171.107 0-340.374 0-511.020-57.341 0-112.846 0-170.187 0 0 169.728 0 339.456 0 510.56-46.331 0-90.369 0-136.241 0 0 57.801 0 113.763 0 171.104 44.955 0 88.992 0 135.782 0 0 20.185-0.918 38.993 0 57.8 2.294 41.285 0.459 83.029 9.174 122.938 25.23 116.975 113.305 175.691 233.032 158.719 28.44-4.129 56.422-14.22 83.948-22.477 11.008-3.211 15.138-11.009 15.138-23.395-0.918-39.909-0.461-79.818-0.461-122.48-19.265 0-36.697 0-54.129 0-13.763 0-27.525-0.917-41.284-1.376-56.424-3.211-75.232-22.477-75.232-79.359 0-29.358 0-58.258 0-89.452 57.339 0 113.304 0 170.645 0-11.008-55.965-21.559-109.636-33.027-163.304-0.918-3.673-9.175-7.799-13.763-7.799-34.403-0.457-68.809-0.457-103.212-0.457-5.963 0-12.385 0-20.184 0z" />
<glyph unicode="&#xe909;" glyph-name="G" d="M538.705 689.069c-24.193-25.806-46.773-48.387-69.353-70.967-156.45 79.031-290.32 45.161-343.545-88.709-48.387-114.516 12.903-246.771 132.257-287.095 124.192-41.934 246.771 29.034 283.868 169.354-37.097 0-70.968 0-106.45 0-33.87 0-67.741 0-104.838 0 0 37.097 0 69.353 0 106.45 11.29 1.612 20.968 1.612 30.644 1.612 91.936 0 185.483 0 275.805 0 50-125.804-24.193-291.932-159.676-361.287-148.384-77.419-327.416-30.644-422.576 108.065-91.935 137.094-66.128 324.19 61.29 430.641 125.806 106.451 308.062 103.225 422.576-8.064zM838.702 447.135c-41.936 0-72.58 0-108.063 0 0 24.195 0 45.161 0 70.968 32.256 0 64.514 0 101.611 0 0 37.097 0 69.354 0 106.451 27.419 0 48.387 0 74.192 0 0-32.258 0-64.516 0-101.612 38.709-1.612 72.58-3.227 108.065-4.839 0-22.58 0-41.936 0-67.741-32.258 0-66.129 0-104.838 0 0-38.709 0-72.58 0-108.065-25.807 0-45.161 0-70.968 0 0 30.646 0 64.516 0 104.838z" />
<glyph unicode="&#xe90a;" glyph-name="linkIn" d="M533.584-31.997c-72.128 0-141.872 0-213.523 0 0 7.165 0 13.376 0 20.061 0 211.139 0 422.752-0.479 633.89 0 17.675 5.253 21.974 21.973 21.496 57.322-0.956 114.646-0.478 171.968-0.478 5.731 0 11.942 0 19.107 0 0-29.139 0-57.321 0-90.284 7.642 7.645 11.942 11.466 16.24 15.766 94.106 91.714 257.472 99.835 353.965 17.674 55.891-47.77 80.253-111.302 88.851-182 2.864-24.362 3.344-48.723 3.344-73.085 0.477-114.166 0-227.856 0-342.022 0-6.211 0-12.896 0-20.541-71.178 0-140.918 0-213.526 0 0 6.688 0 13.376 0 20.541 0 107.002 0 213.526 0 320.528 0 18.627-0.957 37.258-4.778 54.931-12.896 65.443-58.755 102.704-123.242 101.747-61.622-0.954-105.091-39.168-116.557-104.611-2.864-15.286-3.821-31.050-3.821-46.336-0.477-108.435 0-217.347 0-325.782 0.477-6.688 0.477-13.373 0.477-21.494zM212.105-31.997c-70.22 0-139.962 0-210.659 0 0 224.512 0 448.544 0 674.012 70.22 0 139.484 0 210.659 0 0-224.035 0-448.070 0-674.012zM110.356 749.497c-31.050 0.956-57.322 7.165-79.296 25.317-46.813 38.692-39.648 108.912 14.33 137.573 37.737 20.063 77.863 20.54 117.033 2.866 34.871-15.764 54.934-52.068 50.157-86.461-5.255-39.648-34.394-68.309-76.908-76.43-9.076-1.433-18.63-2.388-25.317-2.866z" />
<glyph unicode="&#xe90b;" glyph-name="luxury" d="M512 913.455l120.353-355.19h391.647l-316.174-220.531 120.348-355.188-316.174 218.577-316.175-218.577 120.351 355.188-316.175 220.531h391.649l120.351 355.19z" />
<glyph unicode="&#xe90c;" glyph-name="mail" d="M511.679 37.502c-136.233 0-272.469 0.652-409.343-0.655-53.727 0-102.336 49.015-102.336 105.871 0.64 209.128 1.279 418.257 0 626.731 0 45.093 42.214 105.217 102.975 105.217 272.471-1.307 545.578-0.654 818.048 0 54.368 0 102.977-49.014 102.977-105.217-0.638-209.128-0.638-418.255 0-626.731 0-54.897-47.329-105.216-102.977-105.216-136.233 0.652-272.469 0-409.344 0zM102.975 667.5c4.477-4.575 8.955-11.763 15.35-15.031 31.341-13.724 57.564-35.944 86.986-53.589 34.538-20.912 67.798-43.133 101.697-65.352 23.665-15.031 47.33-30.716 70.995-45.748 44.773-28.102 90.184-56.856 134.956-84.958 40.294 26.143 80.589 52.937 121.525 77.769 40.294 24.18 79.309 50.323 119.603 75.156 50.531 31.369 98.499 65.353 149.668 95.415 7.677 4.575 16.63 13.071 16.63 20.913 1.918 32.023 0.638 64.699 0.638 96.722-138.151-88.226-274.388-175.145-409.344-261.41-136.875 87.573-272.469 173.838-409.343 261.41 0.639-34.637 0.639-67.313 0.639-101.296z" />
<glyph unicode="&#xe90d;" glyph-name="mark" d="M510.87-64c-98.843 112.913-184.293 229.018-255.076 355.328-42.087 74.636-78.435 151.19-94.378 235.397-27.42 146.085 17.218 268.567 135.189 357.877 118.609 89.31 249.974 99.517 380.698 29.345 132-70.172 195.133-186.276 188.116-335.551-1.911-45.93-14.664-92.501-31.246-135.878-70.782-190.106-191.304-348.31-323.304-506.518zM509.594 727.671c-70.146 0-127.537-57.414-126.9-127.587 0-70.171 57.392-127.584 127.538-127.584 70.144 0 127.536 57.412 127.536 127.584-0.638 70.173-57.392 127.587-128.174 127.587z" />
<glyph unicode="&#xe90e;" glyph-name="pluse" d="M451.977 876.725v-368.704h-368.704c-34.298 0-60.022-25.723-60.022-60.022s25.724-60.023 60.022-60.023h368.704v-368.703c0-34.298 25.723-60.023 55.734-55.734h8.574c34.298 0 60.022 25.725 55.732 55.734v368.703h360.129c34.298 0 60.023 25.725 60.023 60.023s-25.725 60.022-60.023 60.022h-360.129v368.704c0 34.298-25.721 60.022-55.732 55.734h-8.574c-34.298 0-60.022-25.724-55.734-55.734z" />
<glyph unicode="&#xe90f;" glyph-name="reservedSeat" d="M931.545 960h-839.089c-50.853 0-92.456-41.559-92.456-92.356v-839.285c0-50.802 41.603-92.359 92.456-92.359h839.089c50.851 0 92.455 41.556 92.455 92.359v839.285c0 50.798-41.605 92.356-92.455 92.356zM421.647-6.277v175.477h297.237c25.425 0 46.231-20.781 46.231-46.176v-83.125h1.15c0-25.395-20.811-46.176-46.237-46.176h-298.382zM361.412 169.201v-175.477h-57.441c-25.427 0-46.235 20.781-46.235 46.176v83.125c0 25.395 20.809 46.176 46.235 46.176h57.441zM135.22 364.301c-19.647 0-35.823 16.162-35.823 35.791v318.967h175.676v-318.967c0-19.629-16.191-35.791-35.838-35.791h-104.015zM99.397 835.32c0 19.625 16.176 35.787 35.823 35.787h104.015c19.647 0 35.838-16.162 35.838-35.787v-56.025h-175.676v56.025zM737.37 401.247v317.812h176.833v-317.812c0-20.784-17.336-38.099-38.147-38.099h-100.539c-20.811 0-38.147 17.316-38.147 38.099zM737.37 779.294v54.871c0 20.779 17.336 38.096 38.147 38.096h100.539c20.811 0 38.147-17.316 38.147-38.096v-54.871h-176.833z" />
<glyph unicode="&#xe910;" glyph-name="rub" d="M296.445 345.341c0-34.406 0-68.134 0-102.265 89.691 0 179.094 0 268.929 0 0-34.272 0-68.134 0-102.54-89.547 0-179.094 0-268.929 0 0-68.409 0-136.267 0-204.536-36.078 0-71.724 0-107.945 0 0 67.994 0 135.993 0 204.261-36.078 0-71.58 0-107.514 0 0 34.272 0 68.134 0 102.54 35.646 0 71.293 0 107.083 0 0 34.272 0 67.999 0 102.265-35.647 0-71.293 0-107.227 0 0 34.412 0 68.274 0 102.542 35.646 0 71.292 0 107.37 0 0 170.81 0 341.209 0 511.882 2.156 0.137 3.594 0.273 5.174 0.273 143.736 0 287.471 0.683 431.205-0.273 82.939-0.546 155.093-29.356 215.746-83.152 50.887-45.058 83.655-100.219 96.59-165.211 17.969-90.525-3.018-173.13-61.947-246.315-40.389-50.243-93.141-84.925-156.386-104.726-30.903-9.696-62.669-14.746-95.151-14.746-106.796-0.135-213.447 0-320.243-0.135-2.156 0.135-4.312 0.135-6.755 0.135zM296.589 857.36c0-136.948 0-273.213 0-409.615 1.581 0 2.875 0 4.169 0 107.801 0 215.603-0.273 323.403 0.273 16.675 0.137 33.781 2.458 49.88 6.417 113.982 28.673 181.679 135.173 155.81 243.994-22.14 92.846-109.239 158.931-209.57 158.931-105.644 0-211.29 0-316.936 0-2.156 0-4.312 0-6.756 0z" />
<glyph unicode="&#xe911;" glyph-name="sedentary" d="M200.348 570.29c6.308 8.010 11.468 17.953 19.496 23.753 26.377 18.781 60.496 5.8 68.237-25.962 6.881-28.725 12.615-57.723 18.636-86.725 10.608-49.993 20.93-100.259 31.825-150.252 14.335-64.904 58.201-99.154 127.298-99.43 49.314-0.276 98.341 0.276 147.655-0.276 28.957-0.276 45.298-12.978 49.888-37.283 4.586-26.241-14.051-50.546-41.574-50.822-63.936-0.552-127.872-2.208-191.808 0.552-78.558 3.312-151.669 65.736-172.025 144.727-13.189 51.65-22.937 104.123-34.405 156.049-7.454 34.527-15.482 68.773-23.223 103.297 0 7.457 0 14.915 0 22.372zM402.473 960c22.65-4.695 43.58-11.876 61.642-26.791 37.559-30.934 49.027-87.554 25.517-129.535-25.517-45.848-79.132-68.496-128.159-54.41-48.74 14.086-77.985 48.058-81.712 99.154-2.867 39.22 18.923 80.649 64.223 101.087 10.321 4.695 21.79 6.905 32.971 10.495 8.314 0 16.916 0 25.517 0zM705.532 253.217c-6.879 0-11.754 0-16.339 0-73.399 0-146.797-0.276-220.481 0-56.195 0.276-94.040 30.106-104.935 83.135-18.923 90.041-37.559 180.079-56.482 270.119-19.21 91.42 65.943 135.611 127.012 116.554 38.993-12.153 59.062-40.324 67.090-77.058 16.056-73.744 31.251-147.489 46.16-221.23 2.58-13.259 6.881-18.232 21.79-17.956 59.636 0.552 119.272 0.552 178.904-1.38 40.426-1.104 71.68-32.59 74.547-71.533 0.574-6.629 0.859-13.259 0.859-19.888 0-102.467 0-204.662 0-307.129 0-9.114 0-18.503-2.008-27.341-6.309-27.897-31.539-45.296-61.070-43.364-28.957 1.932-51.605 23.2-54.472 51.374-0.574 6.629-0.574 13.254-0.574 19.883 0 76.506 0 153.288 0 229.795 0 4.697 0 9.666 0 16.019z" />
<glyph unicode="&#xe912;" glyph-name="skype" d="M268.114 960c16.499 0 32.999 0 49.498 0 2.2-0.55 4.4-1.651 6.875-1.927 37.398-4.128 72.596-14.862 105.597-32.751 7.697-4.128 15.124-5.504 23.648-4.128 40.148 5.78 80.299 5.78 120.17 1.101 109.995-13.486 206.517-57.246 285.164-135.409 119.347-118.62 166.093-262.284 139.421-429.070-1.103-6.881-0.276-15.138 2.475-21.466 29.146-71.008 31.072-142.565 3.297-214.122-60.771-156.6-242.814-229.533-395.431-159.628-5.226 2.478-11.824 3.577-17.599 2.751-68.748-8.806-136.67-6.881-203.216 12.66-162.795 47.34-274.99 150.545-333.288 310.173-27.499 75.411-32.449 153.576-20.074 232.837 1.1 6.881-0.825 14.589-3.3 21.47-5.775 16.237-13.749 31.648-18.699 47.886-5.5 18.992-8.525 38.808-12.649 58.073 0 15.963 0 31.65 0 47.613 0.55 2.202 1.65 4.404 1.925 6.88 12.374 114.767 94.871 213.021 206.242 244.947 19.524 5.229 39.873 7.981 59.947 12.11zM503.504 768.722c-18.698-1.651-37.673-2.752-56.371-4.954-42.899-5.504-83.872-17.889-120.721-41.283-92.671-58.897-101.471-195.408-3.3-259.534 25.85-17.063 53.898-29.447 83.32-37.431 48.951-13.21 98.447-24.767 147.671-37.427 21.999-5.506 43.721-12.387 62.147-26.699 30.249-23.119 34.922-63.85 8.25-91.098-11.551-11.834-26.948-21.74-42.349-28.348-34.372-14.585-70.946-15.135-107.52-9.356-35.475 5.779-62.696 23.395-80.572 54.77-7.151 12.933-12.926 26.696-20.623 39.079-6.325 10.458-13.199 21.193-21.726 29.723-18.148 17.889-50.322 20.917-75.346 8.81-24.199-11.561-37.399-33.304-35.473-60.826 0.825-10.182 2.2-20.64 5.775-30.273 21.449-59.45 63.798-99.082 120.995-123.576 34.922-14.862 71.496-21.466 109.169-23.945 61.6-3.85 122.648-1.099 180.668 22.019 72.325 28.897 122.371 77.063 130.895 158.525 6.878 66.328-15.398 119.446-73.421 155.778-32.447 20.364-67.645 33.3-104.496 42.656-45.647 11.561-91.569 22.019-136.943 33.304-22.275 5.502-43.998 13.759-62.15 28.897-21.999 18.439-23.648 47.063-2.748 66.879 9.622 9.082 21.999 16.788 34.372 21.743 32.451 12.66 66.546 11.284 100.646 6.88 26.675-3.578 47.025-16.788 62.423-37.981 5.775-7.98 10.725-16.79 16.5-25.043 6.598-9.909 13.199-20.094 20.35-29.727 17.046-22.292 40.697-25.593 65.997-20.091 26.122 5.782 43.448 22.845 49.497 48.439 7.151 30-4.4 56.421-21.449 80.090-19.524 26.696-45.373 45.687-75.073 59.723-50.046 24.219-103.393 30.549-158.392 30.274z" />
<glyph unicode="&#xe914;" glyph-name="stateroom" d="M92.461 960h839.078c50.857 0 92.461-41.891 92.461-93.091v-837.816c0-51.2-41.605-93.094-92.461-93.094h-839.078c-50.853 0-92.461 41.894-92.461 93.094v837.816c0 51.2 41.607 93.091 92.461 93.091zM790.54 832c-25.431 0-46.231-20.946-46.231-46.546v-66.396h176.827v66.396c0 25.6-20.799 46.546-46.231 46.546h-84.366zM921.136 658.824h-176.827v-303.917c0-25.6 20.799-46.544 46.231-46.544h84.366c25.431 0 46.231 20.944 46.231 46.544v303.917zM273.914 719.059v61.741c0 27.927-23.115 51.2-50.853 51.2h-75.124c-27.738 0-50.853-23.273-50.853-51.2v-61.741h176.83zM97.084 658.824h176.83v-300.424c0-27.925-23.115-51.2-50.853-51.2h-75.124c-27.738 0-50.853 23.275-50.853 51.2v300.424zM917.673-47.706c48.538 0 88.992 39.563 88.992 89.6v166.4h-989.328v-166.4c0-48.875 39.296-89.6 88.993-89.6h811.343z" />
<glyph unicode="&#xe915;" glyph-name="tel" d="M204.376 518.516c86.819-167.134 210.644-290.171 375.743-376.938 36.291 36.27 74.008 71.83 109.592 110.237 26.33 28.447 53.371 34.85 91.798 25.603 56.931-14.223 115.999-22.047 174.35-27.737 46.971-4.98 66.895-21.337 67.608-67.567 0.71-60.45 0.71-120.904 0-181.357-0.713-44.093-22.060-64.007-66.185-64.72-454.021-4.267-871.749 349.914-942.913 800.11-7.828 52.63-11.386 105.97-14.233 158.6-2.135 41.961 20.637 64.009 62.624 64.72 62.624 0.711 125.247 0.711 188.583 0 39.851-0.711 57.642-22.047 61.912-61.875 7.828-63.298 16.368-126.595 29.89-188.47 6.403-30.582 2.847-53.341-18.503-73.966-40.563-39.116-80.415-77.523-120.266-116.64z" />
<glyph unicode="&#xe917;" glyph-name="trainIcon" d="M664.265 201.48c11.056-23.597 43.402-31.734 44.63-63.062-131.841 0-262.045 0-393.888 0 2.048 30.921 33.575 39.464 45.449 62.656-10.646 2.441-20.472 4.069-29.889 6.917-46.678 14.24-79.842 57.365-79.842 106.595-0.819 104.968-0.819 209.123-0.41 313.685 0 48.415 22.52 85.032 67.967 100.9 36.851 12.612 76.157 20.342 115.055 24.004 76.157 6.916 152.724 6.916 228.061-8.952 19.244-4.069 38.079-10.984 55.276-19.529 36.85-18.308 56.094-49.635 56.503-89.914 0.819-107.816 1.229-215.633 0-323.448-0.41-49.637-37.259-91.949-85.574-104.155-7.37-2.441-15.149-3.661-23.339-5.696zM478.377 624.609c-54.866 0-108.504 0-161.322 0 0-54.518 0-107.41 0-160.301 54.457 0 107.275 0 161.322 0 0 53.705 0 106.189 0 160.301zM707.667 624.609c-54.866 0-108.504 0-161.323 0 0-54.518 0-107.41 0-160.301 54.457 0 107.276 0 161.323 0 0 53.705 0 106.189 0 160.301zM413.684 316.214c0.41 26.853-22.11 49.229-49.133 49.229-26.205 0-48.315-21.156-49.134-47.196-0.818-26.851 20.882-49.635 47.905-50.45 27.434-0.406 49.952 21.564 50.362 48.416zM708.485 317.027c0 26.853-22.928 48.823-49.952 48.416-26.205-0.407-47.905-21.971-48.315-48.009-0.41-26.853 21.7-49.229 48.725-49.637 27.432 0 49.543 22.378 49.543 49.229z" />
<glyph unicode="&#xe918;" glyph-name="twitter" d="M0 126.879c106.283-10.957 203.8 13.149 291.729 73.96 4.658 3.288 9.313 6.85 15.889 11.779-96.148 8.765-159.698 57.25-195.309 146.825 31.775-5.48 61.359-4.932 92.039 2.737-103.544 31.503-158.603 99.71-165.725 209.007 30.406-15.067 59.442-24.927 92.313-25.749-92.039 77.521-112.583 169.559-62.455 280.225 114.501-134.771 257.488-207.909 432.803-220.236-1.37 9.861-3.014 18.353-3.836 27.119-10.135 116.692 70.673 216.948 186.816 229.275 64.374 6.848 121.076-13.148 167.917-58.072 5.477-5.205 10.135-6.3 16.982-4.657 42.186 9.861 82.177 25.201 120.802 46.020-14.793-47.115-44.101-82.999-84.095-112.583 12.327 2.191 24.927 4.109 37.254 6.848 12.875 3.013 25.749 6.574 38.624 10.683 12.327 3.835 24.106 8.766 38.076 13.696-25.475-38.075-54.787-69.851-89.575-96.148-10.957-8.218-13.697-16.709-13.971-29.858-3.285-210.648-87.38-380.757-259.407-504.295-80.259-57.798-171.75-87.657-270.090-97.244-136.962-13.697-264.611 14.519-381.851 87.109-1.37 0.822-3.013 1.096-4.657 1.37-0.274 0.822-0.274 1.641-0.274 2.189z" />
<glyph unicode="&#xe91a;" glyph-name="wiFi" d="M1024 637.559c-11.942-11.282-23.885-22.565-35.486-34.189s-22.519-23.933-34.807-37.266c-124.544 120.688-270.925 184.28-442.219 184.28-170.609 0-316.31-63.592-437.443-180.861-24.227 23.933-47.429 47.181-74.045 73.849 36.852 28.719 72.68 61.199 112.602 87.866 284.236 188.724 650.704 155.903 898.431-79.319 4.096-3.761 8.529-7.18 12.966-10.598 0-1.368 0-2.394 0-3.761zM495.108 42.667c-4.437 2.052-8.875 4.446-13.649 6.498-36.169 15.381-56.303 53.333-48.794 91.968 7.505 38.289 41.284 65.984 80.525 65.984 38.899-0.341 72.683-28.378 79.846-66.667 7.164-38.293-13.649-76.245-50.159-91.285-4.779-2.052-9.212-4.105-13.99-6.157-11.26-0.341-22.519-0.341-33.779-0.341zM218.039 424.905c-24.227 23.932-47.43 46.839-70.633 70.087 176.411 191.459 518.655 216.759 728.844 2.051-23.543-23.249-47.428-46.498-71.654-70.432-79.846 76.586-177.775 119.664-293.107 119.322-114.991-0.342-212.58-43.078-293.449-121.029zM733.965 351.053c-24.23-23.932-47.433-47.181-70.635-70.084-91.106 86.157-222.477 76.924-301.297 0.341-23.203 23.249-46.406 46.153-69.95 69.402 93.494 109.748 308.122 137.442 441.882 0.341z" />
<glyph unicode="&#xe91b;" glyph-name="ytube" d="M499.176 852.211c116.003-4.712 222.537-8.751 328.731-13.8 21.307-1.010 42.951-4.039 64.259-8.078 56.479-10.434 96.049-48.804 104.841-107.033 7.78-52.843 12.175-106.696 15.22-160.55 5.748-95.588 4.058-190.841-2.706-286.429-2.706-39.381-7.103-78.759-14.543-117.466-10.822-55.536-51.744-93.906-108.563-99.63-70.683-7.402-141.366-13.8-212.388-14.808-134.265-1.684-268.87 0.337-403.135 2.355-43.289 0.674-86.917 5.050-130.207 10.097-74.404 9.087-114.65 49.141-125.134 123.524-15.895 113.766-17.925 228.204-13.528 342.641 2.367 62.604 7.779 124.871 13.866 187.475 4.735 49.141 27.394 89.194 74.404 109.052 22.997 9.761 48.701 14.81 73.727 16.156 114.987 6.732 229.638 11.444 335.155 16.492zM407.186 270.597c101.46 58.231 201.566 115.785 303.705 174.686-102.475 58.902-202.582 116.458-303.705 174.349 0-117.129 0-232.241 0-349.036z" />
</font>
</defs>
</svg>
