<svg width="26" height="21" viewBox="0 0 26 21" fill="none" xmlns="http://www.w3.org/2000/svg">
<path opacity="0.45" fill-rule="evenodd" clip-rule="evenodd" d="M24.7514 3.78185L20.5503 3.69087L18.4953 0.595319C18.3774 0.4164 18.2172 0.2693 18.0289 0.167193C17.8406 0.065086 17.6299 0.0111181 17.4157 0.0100098H8.6363C8.42208 0.0111181 8.21146 0.065086 8.02313 0.167193C7.8348 0.2693 7.6746 0.4164 7.55678 0.595319L5.50177 3.69087L1.30065 3.78185C0.955697 3.78185 0.62485 3.9189 0.380931 4.16282C0.137012 4.40674 0 4.73755 0 5.0825V19.5068C0 19.8517 0.137012 20.1825 0.380931 20.4264C0.62485 20.6704 0.955697 20.8074 1.30065 20.8074H13.0065C13.3515 20.8074 13.6823 20.6704 13.9262 20.4264C14.1701 20.1825 14.3072 19.8517 14.3072 19.5068V16.7364C15.5332 16.4198 16.6018 15.667 17.3125 14.6189C18.0231 13.5709 18.3272 12.2996 18.1676 11.0434C18.0081 9.78721 17.3959 8.63235 16.4457 7.79526C15.4956 6.95818 14.2728 6.49636 13.0065 6.49636C11.7402 6.49636 10.5174 6.95818 9.56729 7.79526C8.61716 8.63235 8.00494 9.78721 7.84538 11.0434C7.68583 12.2996 7.98987 13.5709 8.70056 14.6189C9.41126 15.667 10.4798 16.4198 11.7059 16.7364V18.2061H2.6013V6.33115L6.20409 6.25312C6.41389 6.24779 6.61928 6.19182 6.80274 6.0899C6.98619 5.98798 7.14226 5.84313 7.25762 5.66781L9.31267 2.59829H16.7004L18.7424 5.66781C18.8577 5.84313 19.0138 5.98798 19.1973 6.0899C19.3807 6.19182 19.5861 6.24779 19.7959 6.25312L23.3987 6.33115V18.2061H18.1961C17.8511 18.2061 17.5203 18.3432 17.2764 18.5871C17.0325 18.831 16.8954 19.1618 16.8954 19.5068C16.8954 19.8517 17.0325 20.1825 17.2764 20.4264C17.5203 20.6704 17.8511 20.8074 18.1961 20.8074H24.6993C25.0443 20.8074 25.3751 20.6704 25.6191 20.4264C25.863 20.1825 26 19.8517 26 19.5068V5.06956C25.9969 4.73569 25.8656 4.41578 25.6332 4.17608C25.4007 3.93638 25.085 3.79519 24.7514 3.78185ZM10.4442 11.7029C10.4442 11.1884 10.5968 10.6854 10.8826 10.2576C11.1685 9.82986 11.5747 9.49642 12.05 9.29954C12.5254 9.10265 13.0484 9.05119 13.553 9.15156C14.0576 9.25193 14.5211 9.49969 14.8849 9.86349C15.2487 10.2273 15.4965 10.6907 15.5969 11.1953C15.6972 11.6999 15.6457 12.223 15.4488 12.6983C15.2519 13.1737 14.9185 13.58 14.4907 13.8658C14.063 14.1516 13.56 14.3042 13.0455 14.3042C12.3556 14.3042 11.694 14.03 11.2061 13.5422C10.7183 13.0544 10.4442 12.3928 10.4442 11.7029Z" fill="#AFB8CC"/>
</svg>
