<svg width="23" height="22" viewBox="0 0 23 22" fill="none" xmlns="http://www.w3.org/2000/svg">
<path fill-rule="evenodd" clip-rule="evenodd" d="M22.2563 10.174L2.84868 1.11712C2.62715 1.01465 2.3812 0.976909 2.13914 1.0083C1.89708 1.03969 1.66883 1.13905 1.48077 1.29465C1.29271 1.45024 1.15246 1.65582 1.07629 1.88771C1.00011 2.1196 0.991141 2.36827 1.05031 2.60507L2.34415 7.78043C2.42822 8.11329 2.64106 8.39911 2.93587 8.57503C3.23068 8.75094 3.58326 8.80251 3.91612 8.71843C4.24897 8.63436 4.5348 8.4216 4.71071 8.12679C4.88663 7.83198 4.93819 7.47932 4.85412 7.14646L4.22015 4.55878L18.6595 11.2996L4.33663 17.9889L5.87631 12.5935H10.0683C10.4115 12.5935 10.7406 12.4572 10.9832 12.2146C11.2258 11.9719 11.3622 11.6428 11.3622 11.2996C11.3622 10.9565 11.2258 10.6275 10.9832 10.3849C10.7406 10.1422 10.4115 10.0058 10.0683 10.0058H4.89297C4.60257 9.99506 4.31698 10.0824 4.08227 10.2538C3.84756 10.4251 3.6774 10.6704 3.59913 10.9503L1.01145 20.0072C0.942518 20.2465 0.944174 20.5009 1.01619 20.7394C1.08821 20.9778 1.22752 21.1903 1.41744 21.3515C1.60735 21.5128 1.83978 21.6158 2.08678 21.6482C2.33379 21.6805 2.58489 21.6408 2.80991 21.534L22.2175 12.4771C22.4398 12.3726 22.6278 12.207 22.7594 11.9996C22.8911 11.7923 22.9609 11.5517 22.9609 11.3061C22.9609 11.0605 22.8911 10.82 22.7594 10.6126C22.6278 10.4053 22.4398 10.2398 22.2175 10.1353L22.2563 10.174Z" fill="url(#paint0_linear)"/>
<defs>
<linearGradient id="paint0_linear" x1="0.960937" y1="11.3283" x2="22.9609" y2="11.3283" gradientUnits="userSpaceOnUse">
<stop stop-color="#8CD23C"/>
<stop offset="1" stop-color="#417A00"/>
</linearGradient>
</defs>
</svg>
