<svg width="23" height="22" viewBox="0 0 23 22" fill="none" xmlns="http://www.w3.org/2000/svg">
<path opacity="0.45" fill-rule="evenodd" clip-rule="evenodd" d="M20.809 0H1.25347C0.929319 0 0.618441 0.128713 0.38923 0.357924C0.160019 0.587135 0.03125 0.898069 0.03125 1.22222V20.7778C0.03125 21.1019 0.160019 21.4129 0.38923 21.6421C0.618441 21.8713 0.929319 22 1.25347 22H11.0312C11.3342 21.9992 11.626 21.886 11.8501 21.6822L18.5724 15.5711C18.6911 15.4628 18.7874 15.3322 18.8557 15.1866C18.924 15.0411 18.9629 14.8835 18.9703 14.7229C18.9776 14.5623 18.9533 14.4017 18.8987 14.2506C18.844 14.0994 18.7601 13.9604 18.6518 13.8416C18.5435 13.7228 18.4128 13.6266 18.2673 13.5583C18.1217 13.49 17.9641 13.4511 17.8035 13.4437C17.6429 13.4363 17.4825 13.4607 17.3313 13.5153C17.1801 13.57 17.0411 13.6539 16.9224 13.7622L10.5546 19.5556H2.47569V2.44444H19.5868V9.77778H11.0312C10.7071 9.77778 10.3962 9.90649 10.167 10.1357C9.9378 10.3649 9.80903 10.6758 9.80903 11V15.2778C9.80903 15.6019 9.9378 15.9129 10.167 16.1421C10.3962 16.3713 10.7071 16.5 11.0312 16.5C11.3554 16.5 11.6663 16.3713 11.8955 16.1421C12.1247 15.9129 12.2535 15.6019 12.2535 15.2778V12.2222H20.809C21.1332 12.2222 21.4441 12.0935 21.6733 11.8643C21.9025 11.6351 22.0312 11.3242 22.0312 11V1.22222C22.0312 0.898069 21.9025 0.587135 21.6733 0.357924C21.4441 0.128713 21.1332 0 20.809 0Z" fill="#AFB8CC"/>
</svg>
