<svg width="26" height="26" viewBox="0 0 26 26" fill="none" xmlns="http://www.w3.org/2000/svg">
<path d="M16.991 0H9.009C1.72467 0 0 1.72467 0 9.009V16.991C0 24.2753 1.72467 26 9.009 26H16.991C24.2753 26 26 24.2753 26 16.991V9.009C26 1.72467 24.2569 0 16.991 0ZM20.9907 18.5499H19.1013C18.3863 18.5499 18.1653 17.9812 16.8805 16.679C15.7614 15.5957 15.2663 15.4494 14.9912 15.4494C14.6055 15.4494 14.495 15.5599 14.495 16.0918V17.7981C14.495 18.2574 14.3488 18.5326 13.1376 18.5326C11.1378 18.5326 8.91692 17.3214 7.358 15.0638C5.00933 11.7618 4.36583 9.28417 4.36583 8.77067C4.36583 8.4955 4.47633 8.23875 5.00825 8.23875H6.89758C7.37425 8.23875 7.55842 8.45867 7.74258 8.97217C8.6775 11.6697 10.2375 14.0367 10.8799 14.0367C11.1183 14.0367 11.2288 13.9263 11.2288 13.3218V10.5311C11.1551 9.24625 10.4758 9.13683 10.4758 8.67858C10.4758 8.45758 10.66 8.23767 10.9525 8.23767H13.9252C14.3293 8.23767 14.4755 8.45758 14.4755 8.93425V12.6967C14.4755 13.0997 14.6597 13.247 14.7691 13.247C15.0074 13.247 15.21 13.0997 15.6498 12.6598C17.0083 11.1367 17.9801 8.788 17.9801 8.788C18.109 8.51283 18.3289 8.25608 18.8067 8.25608H20.696C21.2648 8.25608 21.3937 8.54858 21.2647 8.95267C21.0264 10.0544 18.7146 13.3196 18.7146 13.3196C18.5131 13.65 18.4394 13.7963 18.7146 14.1646C18.9161 14.4398 19.5769 15.0085 20.0178 15.522C20.8249 16.4396 21.4478 17.2098 21.6136 17.7428C21.7978 18.2737 21.5215 18.5488 20.9896 18.5488L20.9907 18.5499Z" fill="white"/>
</svg>
