<svg width="38" height="26" viewBox="0 0 38 26" fill="none" xmlns="http://www.w3.org/2000/svg">
<path d="M36.4254 4.01469C36.2098 3.24209 35.7985 2.53818 35.2313 1.97099C34.6642 1.40381 33.9602 0.992526 33.1876 0.776905C30.2879 2.22748e-05 18.6176 2.19971e-05 18.6176 2.19971e-05C18.6176 2.19971e-05 6.97677 -0.0154843 4.04757 0.776905C3.27497 0.992526 2.57106 1.40381 2.00387 1.97099C1.43668 2.53818 1.0254 3.24209 0.809782 4.01469C0.260103 6.98345 -0.010891 9.99709 0.000334932 13.0163C-0.00876881 16.0241 0.262216 19.0262 0.809782 21.9838C1.0254 22.7564 1.43668 23.4603 2.00387 24.0275C2.57106 24.5947 3.27497 25.0059 4.04757 25.2216C6.94421 26 18.6176 26 18.6176 26C18.6176 26 30.2569 26 33.1876 25.2216C33.9602 25.0059 34.6642 24.5947 35.2313 24.0275C35.7985 23.4603 36.2098 22.7564 36.4254 21.9838C36.9616 19.0251 37.2211 16.023 37.2008 13.0163C37.2232 9.99816 36.9637 6.98453 36.4254 4.01469ZM14.8929 18.5847V7.4308L24.6063 13.0163L14.8929 18.5847Z" fill="white"/>
</svg>
