<svg width="22" height="19" viewBox="0 0 22 19" fill="none" xmlns="http://www.w3.org/2000/svg">
<path fill-rule="evenodd" clip-rule="evenodd" d="M5.8475 10.8475L10.8475 15.8475L15.8475 10.8475L18.6875 8.0075C20.0682 6.62679 20.0682 4.38822 18.6875 3.0075C17.3068 1.62679 15.0682 1.62679 13.6875 3.0075L10.8475 5.8675L8.0075 3.0275C6.62679 1.64679 4.38822 1.64679 3.0075 3.0275C1.62679 4.40822 1.62679 6.64679 3.0075 8.0275L5.8475 10.8475ZM12.2475 1.6175C14.4042 -0.539168 17.9008 -0.539168 20.0575 1.6175C22.2142 3.77418 22.2142 7.27083 20.0575 9.4275L18.6375 10.8475L10.8475 18.6575L3.0375 10.8475L1.6175 9.4275C-0.539168 7.27083 -0.539168 3.77418 1.6175 1.6175C3.77418 -0.539168 7.27083 -0.539168 9.4275 1.6175L10.8475 3.0375L12.2475 1.6175Z" fill="#FF5343"/>
</svg>
