<svg width="20" height="5" viewBox="0 0 20 5" fill="none" xmlns="http://www.w3.org/2000/svg">
<path fill-rule="evenodd" clip-rule="evenodd" d="M2 0.692322C0.895431 0.692322 0 1.58775 0 2.69232C0 3.79689 0.895431 4.69232 2 4.69232C3.10457 4.69232 4 3.79689 4 2.69232C4 1.58775 3.10457 0.692322 2 0.692322Z" fill="white"/>
<path fill-rule="evenodd" clip-rule="evenodd" d="M10 0.692322C8.89543 0.692322 8 1.58775 8 2.69232C8 3.79689 8.89543 4.69232 10 4.69232C11.1046 4.69232 12 3.79689 12 2.69232C12 1.58775 11.1046 0.692322 10 0.692322Z" fill="white"/>
<path fill-rule="evenodd" clip-rule="evenodd" d="M18 0.692322C16.8954 0.692322 16 1.58775 16 2.69232C16 3.79689 16.8954 4.69232 18 4.69232C19.1046 4.69232 20 3.79689 20 2.69232C20 1.58775 19.1046 0.692322 18 0.692322Z" fill="white"/>
</svg>
