<svg width="30" height="29" viewBox="0 0 30 29" fill="none" xmlns="http://www.w3.org/2000/svg">
<path fill-rule="evenodd" clip-rule="evenodd" d="M15 5.19571L13.0034 11.3622C12.7822 12.0309 12.1594 12.4844 11.455 12.4895H4.97612L10.2054 16.2926C10.7741 16.7085 11.0145 17.4406 10.803 18.1127L8.80638 24.2791L14.0356 20.4624C14.6136 20.0538 15.3864 20.0538 15.9644 20.4624L21.1936 24.2791L19.197 18.1127C18.9855 17.4406 19.2259 16.7085 19.7946 16.2926L25.0239 12.4895H18.545C17.8406 12.4844 17.2178 12.0309 16.9966 11.3622L15 5.19571ZM13.4516 1.12096C13.6714 0.452094 14.2959 0 15 0C15.7041 0 16.3286 0.452094 16.5484 1.12096L19.3464 9.77301H28.3787C29.0829 9.77679 29.705 10.2323 29.9212 10.9025C30.1374 11.5727 29.8987 12.3059 29.3295 12.7204L22.0221 18.0312L24.8201 26.6289C25.0394 27.3016 24.7996 28.039 24.2266 28.454C23.6536 28.8691 22.8782 28.867 22.3074 28.4489L15 23.1246L7.69262 28.4353C7.12383 28.8482 6.35443 28.85 5.78375 28.4397C5.21308 28.0294 4.96967 27.2995 5.17986 26.6289L7.97785 18.0447L0.670478 12.7204C0.101272 12.3059 -0.137359 11.5727 0.0788198 10.9025C0.294999 10.2323 0.917102 9.77679 1.62125 9.77301H10.6536L13.4516 1.12096Z" fill="url(#paint0_linear)"/>
<defs>
<linearGradient id="paint0_linear" x1="6.81818" y1="24.3186" x2="21.5366" y2="3.85064" gradientUnits="userSpaceOnUse">
<stop stop-color="#B139FE"/>
<stop offset="1" stop-color="#1E61EB"/>
</linearGradient>
</defs>
</svg>
