<svg width="18" height="18" viewBox="0 0 18 18" fill="none" xmlns="http://www.w3.org/2000/svg">
<path fill-rule="evenodd" clip-rule="evenodd" d="M16.7284 3.36307H15.5805C15.6267 3.23632 15.6595 3.10511 15.6784 2.97156C15.8461 1.90637 15.3315 0.849667 14.3894 0.324981C13.4474 -0.199706 12.278 -0.0809304 11.4607 0.622462L8.64893 3.02494L5.84604 0.622462C5.02873 -0.0809304 3.85938 -0.199706 2.91733 0.324981C1.97528 0.849667 1.46063 1.90637 1.62835 2.97156C1.64727 3.10511 1.68008 3.23632 1.72623 3.36307H1.06777C0.478057 3.36307 0 3.84113 0 4.43084V7.63415C0 8.22386 0.478057 8.70192 1.06777 8.70192H1.77962V14.9306C1.77962 16.4049 2.97476 17.6 4.44904 17.6H13.3471C14.8214 17.6 16.0165 16.4049 16.0165 14.9306V8.70192H16.7284C17.3181 8.70192 17.7962 8.22386 17.7962 7.63415V4.43084C17.7962 3.84113 17.3181 3.36307 16.7284 3.36307ZM12.6173 1.97498C12.8827 1.74295 13.2695 1.71427 13.5662 1.90462C13.8629 2.09497 13.9981 2.45851 13.8978 2.79646C13.7975 3.13441 13.4859 3.36538 13.1334 3.36308H10.989L12.6173 1.97498ZM3.84479 1.85502C3.56395 1.98302 3.38306 2.26251 3.38131 2.57114C3.38131 3.00851 3.73587 3.36307 4.17324 3.36307H6.31768L4.68933 1.97497C4.45524 1.77383 4.12563 1.72702 3.84479 1.85502ZM14.2371 14.9306C14.2371 15.422 13.8388 15.8204 13.3473 15.8204H4.44926C3.95783 15.8204 3.55945 15.422 3.55945 14.9306V8.70191H14.2371V14.9306ZM1.77972 6.9223H16.0167V5.14268H1.77972V6.9223Z" fill="#7F8CA5"/>
</svg>
