<svg width="80" height="64" viewBox="0 0 80 64" fill="none" xmlns="http://www.w3.org/2000/svg">
<g opacity="0.15">
<circle cx="2" cy="62" r="2" fill="white"/>
<circle cx="21" cy="62" r="2" fill="white"/>
<circle cx="40" cy="62" r="2" fill="white"/>
<circle cx="59" cy="62" r="2" fill="white"/>
<circle cx="78" cy="62" r="2" fill="white"/>
<circle cx="2" cy="42" r="2" fill="white"/>
<circle cx="21" cy="42" r="2" fill="white"/>
<circle cx="40" cy="42" r="2" fill="white"/>
<circle cx="59" cy="42" r="2" fill="white"/>
<circle cx="78" cy="42" r="2" fill="white"/>
<circle cx="2" cy="22" r="2" fill="white"/>
<circle cx="21" cy="22" r="2" fill="white"/>
<circle cx="40" cy="22" r="2" fill="white"/>
<circle cx="59" cy="22" r="2" fill="white"/>
<circle cx="78" cy="22" r="2" fill="white"/>
<circle cx="2" cy="2" r="2" fill="white"/>
<circle cx="21" cy="2" r="2" fill="white"/>
<circle cx="40" cy="2" r="2" fill="white"/>
<circle cx="59" cy="2" r="2" fill="white"/>
<circle cx="78" cy="2" r="2" fill="white"/>
</g>
</svg>
