<svg width="20" height="20" viewBox="0 0 20 20" fill="none" xmlns="http://www.w3.org/2000/svg">
<path fill-rule="evenodd" clip-rule="evenodd" d="M0 10C0 4.47715 4.47715 0 10 0C12.6522 0 15.1957 1.05357 17.0711 2.92893C18.9464 4.8043 20 7.34784 20 10C20 15.5228 15.5228 20 10 20C4.47715 20 0 15.5228 0 10ZM1.81795 9.99999C1.81795 14.5187 5.48107 18.1818 9.99977 18.1818C14.5185 18.1818 18.1816 14.5187 18.1816 9.99999C18.1816 5.4813 14.5185 1.81817 9.99977 1.81817C5.48107 1.81817 1.81795 5.4813 1.81795 9.99999Z" fill="white"/>
<path d="M13.6363 9.2182H10.909V4.54547C10.909 4.0434 10.502 3.63638 9.99991 3.63638C9.49783 3.63638 9.09082 4.0434 9.09082 4.54547V10C9.09082 10 9.09082 10.0455 9.09082 10.0637C9.09082 10.0818 9.09082 10.0637 9.09082 10.1273C9.09082 10.6294 9.49783 11.0364 9.99991 11.0364H13.6363C14.1384 11.0364 14.5454 10.6294 14.5454 10.1273C14.5454 9.62521 14.1384 9.2182 13.6363 9.2182Z" fill="white"/>
</svg>
