<svg width="21" height="12" viewBox="0 0 21 12" fill="none" xmlns="http://www.w3.org/2000/svg">
<path fill-rule="evenodd" clip-rule="evenodd" d="M11.2139 11.1731C11.2139 11.1731 11.5707 11.1342 11.7534 10.9416C11.9206 10.7651 11.9148 10.432 11.9148 10.432C11.9148 10.432 11.8926 8.87679 12.6282 8.64715C13.3532 8.42131 14.2842 10.1512 15.2721 10.8163C16.0184 11.3193 16.5849 11.2092 16.5849 11.2092L19.2249 11.1731C19.2249 11.1731 20.6054 11.0896 19.9509 10.024C19.8968 9.93671 19.5691 9.23547 17.9885 7.79504C16.3326 6.28723 16.5549 6.5311 18.5482 3.92257C19.7624 2.3341 20.2477 1.36433 20.0959 0.949657C19.9519 0.553016 19.0587 0.658344 19.0587 0.658344L16.087 0.676373C16.087 0.676373 15.8666 0.646957 15.7033 0.742796C15.5438 0.836737 15.4403 1.05593 15.4403 1.05593C15.4403 1.05593 14.9705 2.28476 14.3431 3.33045C13.0197 5.5357 12.4909 5.65242 12.2744 5.51577C11.7708 5.19599 11.8964 4.23286 11.8964 3.5487C11.8964 1.41082 12.227 0.519804 11.2536 0.289221C10.9307 0.21236 10.6929 0.162068 9.86638 0.153528C8.80592 0.14309 7.90883 0.157323 7.40035 0.401191C7.062 0.563453 6.801 0.925934 6.9605 0.94681C7.15674 0.97243 7.60142 1.06447 7.83729 1.37951C8.1418 1.78659 8.13117 2.69943 8.13117 2.69943C8.13117 2.69943 8.30614 5.21592 7.72225 5.52811C7.32204 5.74256 6.77296 5.30512 5.59263 3.30388C4.98845 2.27907 4.53217 1.14608 4.53217 1.14608C4.53217 1.14608 4.4442 0.934474 4.28663 0.820606C4.09619 0.683015 3.83035 0.640315 3.83035 0.640315L1.00664 0.658344C1.00664 0.658344 0.582264 0.669731 0.426627 0.850971C0.28839 1.01134 0.415993 1.3444 0.415993 1.3444C0.415993 1.3444 2.62682 6.42198 5.13055 8.98117C7.42645 11.3269 10.0326 11.1731 10.0326 11.1731H11.2139Z" fill="white"/>
</svg>
