<svg width="26" height="26" viewBox="0 0 26 26" fill="none" xmlns="http://www.w3.org/2000/svg">
<path d="M21.9072 0C23.4304 0 24.6589 1.23175 24.7315 2.68125V26L21.8314 23.5376L20.2389 22.0881L18.5012 20.5736L19.2271 22.9623H4.01924C2.50041 22.9623 1.26758 21.8086 1.26758 20.28V2.68667C1.26758 1.23717 2.50258 0.00325 4.02466 0.00325H21.8997L21.9072 0ZM15.2794 6.15658H15.2469L15.0281 6.37325C17.2738 7.02325 18.3604 8.03833 18.3604 8.03833C16.9131 7.31467 15.6087 6.95283 14.3044 6.80658C13.3619 6.66033 12.4194 6.73725 11.6232 6.80658H11.4065C10.8973 6.80658 9.814 7.02325 8.36233 7.60283C7.85641 7.82275 7.56608 7.96683 7.56608 7.96683C7.56608 7.96683 8.65158 6.88133 11.0436 6.30175L10.8973 6.1555C10.8973 6.1555 9.08599 6.08617 7.13058 7.53133C7.13058 7.53133 5.17516 10.9373 5.17516 15.1363C5.17516 15.1363 6.2585 17.0213 9.23008 17.0928C9.23008 17.0928 9.66341 16.5154 10.1022 16.0073C8.43383 15.5003 7.78383 14.4863 7.78383 14.4863C7.78383 14.4863 7.929 14.5578 8.14674 14.703H8.21174C8.24425 14.703 8.25941 14.7193 8.27674 14.7355V14.742C8.29408 14.7593 8.30924 14.7745 8.34174 14.7745C8.69924 14.9218 9.05675 15.067 9.34925 15.2078C9.85408 15.4267 10.503 15.6444 11.2992 15.7885C12.3067 15.9348 13.4616 16.0052 14.7767 15.7885C15.4267 15.6423 16.0767 15.4993 16.7267 15.2089C17.1492 14.9923 17.6692 14.7756 18.2402 14.4105C18.2402 14.4105 17.5902 15.4245 15.8514 15.9315C16.2089 16.4363 16.7127 17.0148 16.7127 17.0148C19.6853 16.9498 20.8402 15.0648 20.9052 15.145C20.9052 10.9525 18.9389 7.54 18.9389 7.54C17.1677 6.22483 15.5102 6.175 15.2177 6.175L15.2783 6.15333L15.2794 6.15658ZM15.4614 10.9373C16.223 10.9373 16.8372 11.5873 16.8372 12.3836C16.8372 13.1853 16.2197 13.8353 15.4614 13.8353C14.7031 13.8353 14.0856 13.1853 14.0856 12.3901C14.0877 11.5884 14.7063 10.9406 15.4614 10.9406V10.9373ZM10.5398 10.9373C11.2982 10.9373 11.9113 11.5873 11.9113 12.3836C11.9113 13.1853 11.2938 13.8353 10.5355 13.8353C9.77716 13.8353 9.15966 13.1853 9.15966 12.3901C9.15966 11.5884 9.77716 10.9406 10.5355 10.9406L10.5398 10.9373Z" fill="white"/>
</svg>
