<svg width="18" height="11" viewBox="0 0 18 11" fill="none" xmlns="http://www.w3.org/2000/svg">
<path d="M3.53325 10.0794C3.75231 10.371 4.11275 10.5202 4.47382 10.4688C4.83489 10.4173 5.13931 10.1734 5.26823 9.83221C5.39714 9.49104 5.33008 9.10674 5.09325 8.82939L3.17325 6.41939H14.5133L12.5933 8.82939C12.3564 9.10674 12.2894 9.49104 12.4183 9.83221C12.5472 10.1734 12.8516 10.4173 13.2127 10.4688C13.5738 10.5202 13.9342 10.371 14.1533 10.0794L17.4233 5.98939C17.7743 5.55099 17.7743 4.92779 17.4233 4.48939L14.1533 0.399388C13.9342 0.107789 13.5738 -0.0414231 13.2127 0.0100167C12.8516 0.0614566 12.5472 0.30539 12.4183 0.646562C12.2894 0.987734 12.3564 1.37203 12.5933 1.64939L14.8433 4.41939H2.84325L5.09325 1.64939C5.33008 1.37203 5.39714 0.987734 5.26823 0.646562C5.13931 0.30539 4.83489 0.0614566 4.47382 0.0100167C4.11275 -0.0414231 3.75231 0.107789 3.53325 0.399388L0.26325 4.48939C-0.0877501 4.92779 -0.0877501 5.55099 0.26325 5.98939L3.53325 10.0794Z" fill="#C5CFE4"/>
</svg>
