<svg width="16" height="16" viewBox="0 0 16 16" fill="none" xmlns="http://www.w3.org/2000/svg">
<path d="M0.727273 1.45455H11.6364C12.038 1.45455 12.3636 1.12893 12.3636 0.727273C12.3636 0.325611 12.038 0 11.6364 0H0.727273C0.325611 0 0 0.325611 0 0.727273C0 1.12893 0.325611 1.45455 0.727273 1.45455Z" fill="#B3BFD7"/>
<path d="M0.727273 4.36363H5.81818C6.21984 4.36363 6.54545 4.03802 6.54545 3.63636C6.54545 3.2347 6.21984 2.90909 5.81818 2.90909H0.727273C0.325611 2.90909 0 3.2347 0 3.63636C0 4.03802 0.325611 4.36363 0.727273 4.36363Z" fill="#B3BFD7"/>
<path d="M0.727273 7.27272H8.72727C9.12893 7.27272 9.45455 6.94711 9.45455 6.54545C9.45455 6.14379 9.12893 5.81818 8.72727 5.81818H0.727273C0.325611 5.81818 0 6.14379 0 6.54545C0 6.94711 0.325611 7.27272 0.727273 7.27272Z" fill="#B3BFD7"/>
<path d="M0.727273 10.1818H11.6364C12.038 10.1818 12.3636 9.85621 12.3636 9.45455C12.3636 9.05289 12.038 8.72728 11.6364 8.72728H0.727273C0.325611 8.72728 0 9.05289 0 9.45455C0 9.85621 0.325611 10.1818 0.727273 10.1818Z" fill="#B3BFD7"/>
<path d="M0.727273 13.0909H7.27273C7.67439 13.0909 8 12.7653 8 12.3636C8 11.962 7.67439 11.6364 7.27273 11.6364H0.727273C0.325611 11.6364 0 11.962 0 12.3636C0 12.7653 0.325611 13.0909 0.727273 13.0909Z" fill="#B3BFD7"/>
<path d="M15.2727 14.5455H0.727273C0.325611 14.5455 0 14.8711 0 15.2727C0 15.6744 0.325611 16 0.727273 16H15.2727C15.6744 16 16 15.6744 16 15.2727C16 14.8711 15.6744 14.5455 15.2727 14.5455Z" fill="#B3BFD7"/>
</svg>
