<!-- Generated by IcoMoon.io -->
<svg version="1.1" xmlns="http://www.w3.org/2000/svg" width="32" height="32" viewBox="0 0 32 32">
<title>purse</title>
<path fill="#cdd6e6" d="M27.634 5.2c2.41 0 4.364 1.953 4.366 4.363v17.454c0 2.411-1.955 4.366-4.366 4.366v0h-23.269c-2.411 0-4.366-1.955-4.366-4.366v0-17.454c0.004-2.040 1.407-3.752 3.3-4.227l0.030-0.006c0.17-0.185 0.386-0.326 0.63-0.404l0.010-0.003 16.656-4.757c0.357-0.105 0.767-0.166 1.191-0.166 2.406 0 4.358 1.948 4.363 4.353v0.846h1.456zM13.616 5.257h9.659v-0.846c0.001-0.016 0.001-0.034 0.001-0.052 0-0.803-0.651-1.454-1.454-1.454-0.14 0-0.276 0.020-0.404 0.057l0.010-0.003zM29.093 16.834h-4.363c-0.803 0-1.455 0.651-1.455 1.455s0.651 1.455 1.455 1.455v0h4.366zM29.093 9.563c0-0.001 0-0.001 0-0.002 0-0.803-0.651-1.454-1.454-1.454 0 0 0 0 0 0h-23.275c0 0 0 0 0 0-0.803 0-1.454 0.651-1.454 1.454 0 0.001 0 0.002 0 0.002v-0 17.454c0 0.802 0.651 1.454 1.454 1.454h23.273c0.803 0 1.454-0.651 1.454-1.454v0-4.366h-4.363c-0 0-0 0-0.001 0-2.411 0-4.366-1.955-4.366-4.366 0-0.287 0.028-0.567 0.081-0.839l-0.004 0.028c0.451-2.043 2.246-3.549 4.393-3.549 0.041 0 0.082 0.001 0.122 0.002l-0.006-0h4.144z"></path>
</svg>
