<!-- Generated by IcoMoon.io -->
<svg version="1.1" xmlns="http://www.w3.org/2000/svg" width="28" height="32" viewBox="0 0 28 32">
<title>user</title>
<path fill="#cdd6e6" d="M28.444 28.45v1.422c0 0.785-0.637 1.422-1.422 1.422s-1.422-0.637-1.422-1.422v0-1.422c0-6.284-5.094-11.378-11.378-11.378s-11.378 5.094-11.378 11.378v0 1.422c0 0.785-0.637 1.422-1.422 1.422s-1.422-0.637-1.422-1.422v0-1.422c0.006-5.954 3.67-11.050 8.865-13.164l0.095-0.034c-1.999-1.576-3.271-3.998-3.271-6.718 0-4.713 3.82-8.533 8.533-8.533s8.533 3.821 8.533 8.533c0 2.719-1.272 5.141-3.253 6.704l-0.018 0.014c5.29 2.148 8.954 7.245 8.96 13.197v0.001zM10.199 12.56c1.030 1.030 2.452 1.667 4.023 1.667 3.142 0 5.689-2.547 5.689-5.689 0-1.571-0.637-2.993-1.666-4.022v0c-1.030-1.030-2.452-1.667-4.023-1.667-3.142 0-5.689 2.547-5.689 5.689 0 1.571 0.637 2.993 1.666 4.022v0z"></path>
</svg>
