<!-- Generated by IcoMoon.io -->
<svg version="1.1" xmlns="http://www.w3.org/2000/svg" width="37" height="32" viewBox="0 0 37 32">
<title>Shape</title>
<path fill="#cdd6e6" d="M29.689 6.651c0.018-0.001 0.038-0.001 0.059-0.001 0.652 0 1.232 0.31 1.599 0.791l0.004 0.005 4.823 6.434c0.263 0.343 0.402 0.763 0.398 1.195v9.527c0 1.102-0.891 1.993-1.995 1.993h-4.654c-0.042 0.004-0.092 0.006-0.142 0.006s-0.099-0.002-0.148-0.006l0.006 0c-0.71 1.945-2.544 3.308-4.696 3.308s-3.986-1.363-4.685-3.273l-0.011-0.035h-5.584c-0.716 1.933-2.544 3.285-4.688 3.285s-3.972-1.353-4.677-3.251l-0.011-0.035h-0.299c-2.754 0-4.986-2.232-4.987-4.985v-16.624c0-2.754 2.233-4.987 4.987-4.987h16.624c2.754 0 4.985 2.233 4.985 4.987v1.662zM8.311 24.937c0.001 0.918 0.745 1.662 1.663 1.662s1.663-0.744 1.663-1.663c0-0 0-0.001 0-0.001v0c0-0.918-0.745-1.663-1.663-1.663s-1.663 0.744-1.663 1.663v0zM26.597 24.937c0-0 0-0.001 0-0.001 0-0.918-0.744-1.662-1.662-1.662s-1.661 0.743-1.662 1.66v0c0 0.918 0.744 1.662 1.662 1.662s1.662-0.744 1.662-1.662v0zM33.248 23.273v-7.765l-4.158-5.534h-2.491v6.649c0 0.918-0.744 1.663-1.663 1.663s-1.663-0.744-1.663-1.663v-11.637c0-0.918-0.744-1.662-1.662-1.662v0h-16.624c-0.918 0-1.662 0.744-1.662 1.662v0 16.624c0 0.917 0.743 1.662 1.662 1.662h0.297c0.716-1.934 2.544-3.288 4.689-3.288s3.974 1.354 4.678 3.254l0.011 0.035h5.584c0.709-1.946 2.544-3.311 4.697-3.311s3.988 1.365 4.686 3.276l0.011 0.035c0.042-0.004 0.091-0.006 0.141-0.006s0.098 0.002 0.147 0.006l-0.006-0z"></path>
</svg>
