<!-- Generated by IcoMoon.io -->
<svg version="1.1" xmlns="http://www.w3.org/2000/svg" width="34" height="32" viewBox="0 0 34 32">
<title>ref</title>
<path fill="#cdd6e6" d="M23.371 14.729c2.257 0.047 4.114 1.697 4.483 3.855l0.004 0.027c0.023 0.414 0.023 0.828 0 1.237v0.311h1.549c0.433 0.017 0.862 0.075 1.284 0.171 1.776 0.505 3.101 1.996 3.355 3.828l0.003 0.024c0.143 1.103 0.107 2.221-0.107 3.313-0.529 2.027-2.343 3.499-4.501 3.499-0.012 0-0.024-0-0.037-0h-6.189c-0.010 0-0.023 0-0.035 0-2.363 0-4.314-1.766-4.605-4.050l-0.002-0.023c-0.171-1.056-0.171-2.133 0-3.187 0.463-1.946 2.106-3.4 4.115-3.574l0.017-0.001h2.057c0.021-0.126 0.033-0.271 0.033-0.419 0-0.458-0.115-0.889-0.317-1.265l0.007 0.014c-0.279-0.39-0.728-0.643-1.236-0.651h-12.415c-0.001 0-0.002 0-0.004 0-0.817 0-1.486 0.633-1.543 1.435l-0 0.005v0.881h2.044c2.034 0.228 3.657 1.742 4.048 3.699l0.005 0.030c0.058 0.337 0.085 0.681 0.077 1.024 0.041 0.668 0.041 1.34 0 2.010-0.274 1.957-1.736 3.507-3.622 3.911l-0.030 0.005c-0.275 0.067-0.608 0.121-0.947 0.152l-0.028 0.002h-6.080c-0.033 0.001-0.072 0.001-0.111 0.001-1.722 0-3.225-0.937-4.026-2.33l-0.012-0.023c-0.38-0.642-0.604-1.415-0.604-2.241 0-0.018 0-0.035 0-0.053l-0 0.003v-1.734c0.081-2.318 1.85-4.198 4.111-4.455l0.021-0.002h2.059v-1.193c0.197-2.071 1.728-3.734 3.717-4.127l0.030-0.005c0.326-0.062 0.657-0.092 0.99-0.092h4.55v-2.321c0.001-0.007 0.001-0.014 0.001-0.022 0-0.087-0.060-0.16-0.141-0.18l-0.001-0c-2.354-0.633-4.113-2.605-4.421-5.031l-0.003-0.030c-0.354-1.835 0.192-3.727 1.47-5.092 1.113-1.27 2.737-2.067 4.548-2.067 0.247 0 0.49 0.015 0.728 0.043l-0.029-0.003c2.781 0.281 5.002 2.366 5.488 5.055l0.006 0.038c0.055 0.309 0.086 0.665 0.086 1.028 0 2.314-1.27 4.332-3.151 5.394l-0.031 0.016c-0.356 0.182-0.801 0.375-1.258 0.543l-0.090 0.029c-0.077 0-0.139 0-0.139 0.156v2.289s0.032 0.094 0.032 0.141h0.23zM10.833 27.898c0.853 0 1.549-0.693 1.549-1.547v-1.549c0-0.853-0.693-1.547-1.549-1.547h-6.191c-0.853 0-1.547 0.693-1.547 1.547v1.425c-0.003 0.038-0.005 0.081-0.005 0.126 0 0.855 0.693 1.549 1.549 1.549 0.039 0 0.078-0.001 0.117-0.004l-0.005 0zM29.5 27.898c0.813-0.052 1.453-0.724 1.453-1.546 0-0 0-0.001 0-0.001v0-1.549c0-0.853-0.691-1.547-1.547-1.547h-6.191c-0.007-0-0.015-0-0.023-0-0.757 0-1.387 0.543-1.522 1.26l-0.002 0.010c-0.007 0.097-0.011 0.21-0.011 0.324s0.004 0.227 0.012 0.339l-0.001-0.015v1.101c-0.001 0.023-0.002 0.050-0.002 0.077 0 0.854 0.692 1.547 1.547 1.547 0.001 0 0.001 0 0.002 0h-0zM13.926 6.231c0 1.71 1.386 3.095 3.095 3.095s3.095-1.386 3.095-3.095v0c0-1.71-1.386-3.095-3.095-3.095s-3.095 1.386-3.095 3.095v0z"></path>
</svg>
